<svg xmlns="http://www.w3.org/2000/svg" xmlns:xlink="http://www.w3.org/1999/xlink" width="500" zoomAndPan="magnify" viewBox="0 0 375 374.999991" height="500" preserveAspectRatio="xMidYMid meet" version="1.0"><defs><g/><clipPath id="a93c875940"><path d="M 38.25 140 L 131 140 L 131 247 L 38.25 247 Z M 38.25 140 " clip-rule="nonzero"/></clipPath><clipPath id="820681cd17"><path d="M 204 64.683594 L 351 64.683594 L 351 220 L 204 220 Z M 204 64.683594 " clip-rule="nonzero"/></clipPath></defs><path fill="#ffda02" d="M 96.464844 105.761719 C 94.867188 106.972656 95.351562 108.621094 95.546875 110.21875 C 96.320312 112.203125 97.726562 114.042969 96.804688 116.371094 C 96.902344 117.097656 97 117.871094 97.097656 118.597656 C 99.035156 122.617188 97.339844 127.363281 99.570312 131.382812 C 100.199219 132.542969 100.246094 133.804688 101.894531 132.640625 C 105.433594 130.21875 110.183594 128.523438 112.074219 125.183594 C 113.480469 122.714844 109.410156 118.9375 107.566406 116.03125 C 104.851562 111.769531 101.796875 107.410156 96.464844 105.761719 Z M 96.464844 105.761719 " fill-opacity="1" fill-rule="nonzero"/><path fill="#ffda02" d="M 209.070312 99.902344 C 208.632812 97.480469 208.246094 95.0625 206.597656 93.125 C 202.960938 99.082031 199.761719 105.230469 197.195312 111.769531 C 196.320312 113.996094 194.1875 116.320312 194.527344 118.308594 C 194.964844 120.679688 198.503906 119.421875 200.441406 120.484375 C 201.507812 121.066406 202.71875 121.40625 203.640625 122.085938 C 206.984375 124.601562 208.003906 122.714844 208.441406 119.664062 C 208.050781 118.597656 208.003906 117.53125 208.535156 116.464844 C 208.730469 110.945312 208.925781 105.425781 209.070312 99.902344 Z M 209.070312 99.902344 " fill-opacity="1" fill-rule="nonzero"/><path fill="#fbfbfb" d="M 345.8125 203.785156 C 345.523438 181.992188 337.523438 163.25 322.59375 147.558594 C 312.65625 137.144531 300.007812 132.835938 285.65625 134.144531 C 283.234375 134.386719 281.148438 133.222656 278.679688 133.5625 C 266.027344 135.207031 253.761719 138.164062 242.566406 144.554688 C 241.789062 146.054688 240.527344 146.929688 238.929688 147.363281 L 238.640625 147.703125 C 234.179688 152.011719 238.007812 155.597656 239.996094 158.988281 C 246.589844 170.125 249.546875 181.75 245.425781 194.4375 C 243.4375 200.492188 240.527344 205.964844 235.195312 210.078125 C 233.402344 211.4375 230.011719 212.984375 231.320312 216.859375 C 231.753906 218.214844 230.109375 218.652344 228.796875 218.75 C 226.375 218.894531 224 219.039062 221.042969 219.234375 C 223.5625 214.101562 227.925781 211.195312 231.464844 207.753906 C 245.667969 193.710938 244.988281 176.035156 236.117188 160.585938 C 234.277344 157.339844 232.335938 154.144531 230.445312 150.949219 C 228.652344 149.253906 228.363281 146.78125 227.246094 144.699219 C 225.9375 144.363281 226.179688 143.246094 226.085938 142.277344 C 225.746094 142.230469 225.550781 142.035156 225.503906 141.699219 C 222.496094 140.488281 224.339844 138.066406 224.097656 136.128906 C 223.953125 135.402344 223.804688 134.722656 223.660156 133.996094 C 222.15625 130.65625 223.320312 127.121094 222.835938 123.683594 C 221.964844 122.035156 222.449219 120.242188 222.398438 118.5 C 220.753906 115.835938 222.449219 112.929688 221.820312 110.21875 C 221.671875 109.203125 221.527344 108.136719 221.382812 107.121094 C 220.558594 105.472656 220.21875 103.730469 220.847656 101.9375 C 219.929688 99.226562 220.316406 96.464844 220.21875 93.703125 C 219.929688 91.671875 218.328125 89.78125 219.25 87.554688 C 219.394531 86.777344 219.539062 86.003906 219.734375 85.230469 C 219.296875 84.601562 218.863281 83.96875 218.375 83.339844 C 216.777344 81.402344 216.488281 78.980469 215.710938 76.753906 C 214.644531 74.816406 213.191406 73.316406 211.15625 72.347656 C 208.925781 70.796875 206.839844 72.929688 204.609375 72.636719 C 204.269531 72.445312 204.027344 72.25 203.785156 72.105469 C 202.867188 73.21875 202.042969 74.382812 201.265625 75.542969 C 201.167969 75.785156 201.023438 76.078125 200.828125 76.269531 C 197.046875 85.90625 191.765625 94.769531 186.238281 103.4375 C 182.457031 109.347656 179.210938 115.59375 175.234375 121.453125 C 172.8125 125.039062 170.871094 126.105469 167.042969 124.503906 C 165.832031 123.972656 164.328125 124.117188 162.972656 123.925781 C 161.566406 123.925781 160.160156 123.925781 158.753906 123.925781 C 154.632812 125.523438 150.222656 125.910156 145.859375 126.296875 C 144.699219 127.75 143.339844 127.265625 141.691406 127.121094 C 138.347656 126.734375 135.101562 126.199219 131.996094 124.894531 C 130.738281 123.925781 129.671875 122.90625 129.523438 121.210938 L 128.070312 118.644531 C 122.691406 112.6875 119.734375 104.941406 113.867188 99.273438 C 111.394531 96.902344 109.214844 94.285156 106.886719 91.765625 C 104.511719 90.265625 102.089844 88.765625 99.714844 87.3125 C 97.824219 87.070312 95.980469 86.585938 94.480469 85.421875 C 93.75 85.132812 93.074219 84.890625 92.347656 84.601562 L 90.308594 84.648438 C 89.292969 85.328125 88.226562 86.003906 87.207031 86.683594 C 85.949219 88.085938 84.6875 90.316406 83.425781 88.183594 C 82.894531 88.910156 82.410156 89.636719 81.925781 90.363281 C 81.828125 90.507812 81.730469 90.652344 81.632812 90.800781 C 81.488281 91.671875 81.34375 92.589844 81.246094 93.460938 C 83.183594 93.609375 82.070312 95.640625 82.410156 96.804688 C 84.882812 105.859375 83.425781 115.253906 85.027344 124.410156 C 85.996094 129.785156 86.433594 135.257812 87.0625 140.730469 C 93.121094 140.003906 90.941406 143.394531 89.4375 145.910156 C 84.734375 153.902344 79.984375 161.84375 75.042969 169.738281 C 67.964844 181.023438 67.671875 194.390625 75.527344 204.21875 C 81.003906 211.097656 88.273438 215.988281 96.949219 218.699219 C 102.574219 220.445312 107.710938 224.125 114.0625 222.71875 C 118.523438 222.574219 123.03125 222.476562 127.488281 222.285156 C 128.992188 222.234375 130.589844 222.382812 130.640625 224.074219 C 130.6875 225.433594 129.523438 226.546875 127.878906 226.496094 C 123.273438 226.351562 118.570312 227.949219 114.015625 225.964844 C 110.667969 227.949219 107.082031 226.980469 103.542969 227.128906 C 93.316406 227.464844 83.085938 228.191406 72.859375 228.675781 C 71.355469 228.726562 69.710938 228.917969 68.496094 227.660156 C 67.089844 227.855469 65.636719 228.046875 64.230469 228.242188 C 62 228.628906 58.898438 231.726562 57.882812 228.242188 C 56.914062 224.996094 61.324219 225.578125 63.359375 224.558594 C 64.378906 224.027344 65.976562 224.609375 67.332031 224.707031 C 67.722656 225.09375 68.109375 225.527344 68.496094 225.917969 C 75.042969 223.445312 82.019531 224.753906 88.710938 223.496094 C 90.117188 223.203125 91.714844 223.832031 94.140625 222.285156 C 87.109375 220.25 82.3125 216.035156 77.078125 212.5 C 74.167969 210.515625 70.53125 212.9375 68.011719 214.246094 C 62.4375 217.152344 56.476562 219.183594 51.144531 222.769531 C 43.4375 227.707031 42.03125 230.273438 45.035156 238.75 C 45.472656 240.007812 45.425781 241.414062 45.617188 242.769531 C 46.199219 242.914062 46.78125 243.109375 47.410156 243.253906 C 46.925781 236.863281 50.464844 232.359375 54.632812 228.289062 C 56.425781 226.496094 56.863281 226.835938 57.6875 229.355469 C 57.492188 230.613281 57.25 231.875 55.941406 232.453125 C 53.808594 235.554688 51.582031 238.605469 50.660156 242.382812 C 49.496094 247.128906 50.949219 248.773438 55.796875 248.679688 C 86.964844 248.097656 118.183594 247.855469 149.351562 246.984375 C 170.679688 246.351562 192.007812 246.886719 213.289062 245.433594 C 217.554688 245.144531 221.867188 245.386719 226.179688 245.675781 C 233.792969 246.207031 240.722656 243.691406 247.800781 241.511719 C 258.078125 238.363281 268.691406 236.425781 279.308594 234.390625 C 283.039062 233.664062 286.53125 231.582031 290.164062 230.324219 C 297.628906 227.707031 304.804688 224.464844 311.347656 219.960938 C 314.984375 216.617188 319.347656 214.050781 322.304688 209.933594 C 322.886719 209.113281 323.902344 208.289062 324.921875 209.160156 C 325.890625 209.984375 325.359375 211.097656 324.628906 211.921875 C 321.671875 215.359375 319.25 219.378906 314.9375 221.507812 C 306.648438 228.871094 296.320312 232.210938 286.144531 236.039062 C 272.8125 241.074219 258.464844 241.996094 245.132812 247.078125 C 237.28125 250.035156 230.109375 253.714844 224.289062 259.574219 C 220.558594 263.351562 218.910156 267.855469 219.589844 272.941406 C 219.976562 273.472656 220.171875 274.152344 219.976562 274.878906 C 220.171875 275.703125 220.460938 276.523438 220.753906 277.347656 C 220.316406 277.203125 219.929688 277.058594 219.539062 276.914062 C 219.636719 278.121094 220.460938 279.429688 221.382812 280.542969 C 222.398438 279.914062 223.710938 281.222656 224.726562 281.660156 C 235.390625 286.40625 246.589844 286.066406 257.6875 284.417969 C 270.824219 282.433594 282.699219 277.007812 294.429688 270.808594 C 303.59375 265.96875 311.15625 259.382812 318.378906 252.359375 C 323.902344 246.984375 328.21875 240.300781 332.96875 234.148438 C 333.984375 232.792969 334.714844 231.242188 336.410156 230.515625 C 338.007812 227.757812 339.609375 225.042969 341.207031 222.285156 C 341.742188 220.445312 342.324219 218.601562 343.148438 216.859375 C 343.390625 216.277344 343.777344 215.941406 344.214844 215.792969 C 343.246094 215.601562 342.46875 215.214844 342.566406 214.003906 C 342.664062 212.648438 343.390625 211.773438 344.84375 211.726562 C 345.378906 211.726562 345.8125 211.773438 346.152344 211.921875 C 346.445312 210.804688 346.734375 209.691406 346.976562 208.578125 C 344.84375 207.902344 345.8125 205.285156 345.8125 203.785156 Z M 96.128906 140.488281 C 94.332031 139.082031 94.382812 137.097656 94.527344 135.113281 C 93.898438 134.144531 93.65625 133.125 93.996094 132.011719 C 92.878906 130.027344 93.65625 127.894531 93.414062 125.8125 C 92.832031 125.183594 92.78125 124.457031 93.121094 123.730469 C 92.929688 123.050781 92.734375 122.328125 92.539062 121.648438 C 91.714844 120.339844 91.910156 118.984375 92.199219 117.582031 C 91.714844 115.886719 91.714844 114.140625 92.199219 112.445312 C 91.183594 109.6875 91.039062 107.121094 93.847656 105.230469 C 93.898438 101.066406 96.464844 101.066406 99.472656 101.839844 C 100.683594 101.308594 101.507812 101.890625 102.234375 102.808594 C 105.289062 104.84375 108.003906 107.214844 109.941406 110.363281 C 111.394531 112.398438 112.800781 114.480469 114.257812 116.515625 C 115.03125 117.726562 115.757812 118.886719 116.535156 120.097656 C 117.457031 121.695312 118.375 123.292969 119.296875 124.894531 C 120.171875 127.074219 120.074219 128.816406 117.601562 129.976562 C 111.347656 132.933594 105.675781 136.804688 99.859375 140.585938 C 98.648438 142.035156 97.386719 142.570312 96.128906 140.488281 Z M 121.332031 179.277344 C 120.414062 180.101562 119.347656 180.199219 118.183594 180.054688 C 111.300781 182.425781 106.355469 179.8125 101.945312 174.386719 C 98.9375 170.660156 99.90625 161.554688 103.300781 157.292969 C 103.929688 156.515625 104.464844 155.402344 105.726562 156.082031 C 106.9375 156.710938 106.550781 157.632812 106.210938 158.695312 C 105.046875 161.941406 104.027344 165.28125 104.804688 168.769531 C 106.304688 175.453125 111.203125 178.261719 117.988281 176.421875 C 118.328125 176.324219 118.859375 176.761719 119.296875 177.003906 C 119.199219 175.984375 119.636719 175.40625 120.605469 175.113281 C 124.96875 173.804688 128.070312 170.851562 130.980469 167.511719 C 135.34375 162.472656 138.300781 157.390625 133.5 150.949219 C 133.113281 150.464844 132.871094 149.882812 132.820312 149.351562 C 132.09375 149.785156 131.027344 149.203125 130.253906 149.058594 C 122.59375 147.75 116.050781 150.414062 109.941406 154.628906 C 109.019531 155.257812 108.003906 156.324219 107.128906 154.675781 C 106.5 153.515625 107.226562 152.835938 108.34375 152.496094 C 113.191406 146.492188 120.171875 145.332031 127.199219 144.605469 C 128.457031 144.457031 130.011719 144.941406 131.078125 145.667969 C 131.949219 146.25 133.5 146.734375 133.453125 148.042969 C 133.546875 147.992188 133.597656 147.945312 133.695312 147.898438 C 134.808594 147.265625 135.972656 147.800781 136.941406 148.71875 C 140.285156 151.964844 141.011719 159.859375 138.785156 164.121094 C 134.953125 171.480469 128.796875 176.035156 121.332031 179.277344 Z M 110.328125 160.875 C 114.742188 155.5 120.265625 151.917969 127.488281 151.820312 C 133.0625 151.769531 135.390625 155.257812 132.238281 159.808594 C 128.3125 165.476562 123.417969 170.417969 115.613281 170.417969 C 112.851562 170.707031 110.234375 170.222656 108.972656 167.558594 C 107.90625 165.28125 108.730469 162.8125 110.328125 160.875 Z M 166.851562 182.667969 C 164.960938 184.414062 163.3125 183.394531 161.953125 181.941406 C 158.753906 178.457031 155.652344 174.871094 152.5 171.335938 C 149.691406 171.480469 149.207031 174.4375 147.167969 175.550781 C 147.074219 176.710938 146.589844 177.632812 145.523438 178.214844 C 144.164062 180.34375 143.097656 182.765625 140.675781 183.976562 C 139.414062 184.558594 137.960938 184.898438 136.796875 183.878906 C 135.34375 182.667969 136.359375 181.167969 137.085938 180.246094 C 140.1875 176.226562 142.371094 171.480469 146.636719 168.429688 C 146.394531 166.640625 143.144531 165.039062 146.25 163.007812 C 148.332031 160.777344 150.949219 161.457031 153.472656 161.699219 C 157.785156 161.699219 155.167969 165.671875 156.71875 167.269531 C 161.128906 169.882812 163.457031 174.386719 166.558594 178.214844 C 167.769531 179.667969 168.546875 181.121094 166.851562 182.667969 Z M 202.136719 173.902344 C 192.6875 179.277344 176.691406 176.90625 169.808594 170.125 C 164.863281 165.234375 163.554688 160.535156 166.121094 154.289062 C 168.449219 148.625 174.558594 144.554688 180.421875 144.652344 C 181.539062 144.699219 182.699219 144.410156 183.816406 144.265625 C 184.785156 143.585938 185.851562 143.488281 186.964844 143.636719 C 187.984375 142.910156 188.953125 143.003906 189.972656 143.683594 C 196.855469 143.972656 202.816406 145.765625 207.082031 152.011719 C 212.996094 160.683594 211.492188 168.625 202.136719 173.902344 Z M 213.53125 114.285156 C 213.335938 114.964844 213.140625 115.691406 212.949219 116.371094 C 213.042969 117.433594 213.140625 118.546875 213.238281 119.613281 C 213.191406 120.242188 213.09375 120.921875 213.042969 121.550781 C 212.949219 123.246094 213.480469 124.988281 212.269531 126.492188 C 211.007812 132.011719 210.425781 132.300781 205.726562 129.203125 C 201.558594 126.441406 197.242188 124.070312 192.105469 123.730469 C 190.164062 123.585938 189.097656 123.003906 189.632812 120.484375 C 191.910156 109.25 197.535156 99.660156 203.933594 90.410156 C 204.222656 90.023438 205.144531 90.023438 205.726562 89.832031 C 209.457031 87.601562 212.222656 88.378906 212.800781 92.882812 C 213.433594 97.578125 215.03125 102.277344 214.0625 107.121094 C 214.5 108.089844 214.691406 109.105469 214.160156 110.074219 C 214.5 111.625 214.597656 113.078125 213.53125 114.285156 Z M 213.53125 114.285156 " fill-opacity="1" fill-rule="nonzero"/><path fill="#fbfbfb" d="M 193.753906 148.914062 C 192.054688 148.71875 190.40625 148.671875 188.953125 147.703125 C 187.789062 149.351562 186.191406 148.332031 184.738281 148.429688 C 184.058594 148.429688 183.378906 148.429688 182.699219 148.429688 C 176.011719 148.960938 175.960938 149.011719 174.316406 152.644531 C 168.933594 154.726562 167.769531 161.359375 171.941406 165.476562 C 177.5625 170.996094 184.6875 171.675781 192.007812 171.773438 C 193.363281 171.53125 194.671875 171.289062 196.03125 171.046875 C 196.660156 170.417969 197.386719 170.320312 198.210938 170.511719 C 201.167969 168.140625 205.242188 166.640625 205.289062 161.941406 C 205.386719 155.839844 199.8125 149.59375 193.753906 148.914062 Z M 199.035156 159.617188 C 198.453125 163.976562 195.109375 165.574219 190.746094 166.589844 C 186.191406 167.65625 182.214844 167.027344 178.242188 165.28125 C 171.359375 162.328125 170.339844 158.890625 174.363281 152.644531 C 179.984375 149.980469 185.851562 148.671875 191.957031 150.753906 C 196.175781 152.207031 199.714844 154.726562 199.035156 159.617188 Z M 199.035156 159.617188 " fill-opacity="1" fill-rule="nonzero"/><g clip-path="url(#a93c875940)"><path fill="#eb436e" d="M 45.035156 238.75 C 42.03125 230.273438 43.4375 227.707031 51.09375 222.527344 C 56.425781 218.941406 62.390625 216.910156 67.964844 214.003906 C 70.535156 212.695312 74.121094 210.273438 77.027344 212.257812 C 82.265625 215.792969 87.015625 220.007812 94.089844 222.042969 C 91.667969 223.589844 90.066406 222.960938 88.664062 223.253906 C 81.972656 224.511719 74.992188 223.203125 68.449219 225.675781 C 68.0625 225.285156 67.671875 224.851562 67.285156 224.464844 C 65.929688 224.367188 64.378906 223.785156 63.3125 224.316406 C 61.324219 225.335938 56.863281 224.753906 57.832031 228 C 58.898438 231.484375 62 228.433594 64.183594 228 C 65.589844 227.804688 67.042969 227.613281 68.449219 227.417969 C 69.710938 228.675781 71.355469 228.484375 72.8125 228.433594 C 83.039062 227.949219 93.265625 227.222656 103.496094 226.886719 C 107.035156 226.738281 110.621094 227.707031 113.964844 225.722656 C 118.523438 227.757812 123.175781 226.160156 127.828125 226.253906 C 129.476562 226.304688 130.640625 225.191406 130.589844 223.832031 C 130.542969 222.140625 128.945312 221.992188 127.441406 222.042969 C 122.980469 222.234375 118.472656 222.332031 114.015625 222.476562 C 107.664062 223.882812 102.527344 220.25 96.902344 218.457031 C 88.226562 215.746094 80.953125 210.855469 75.476562 203.976562 C 67.625 194.097656 67.914062 180.78125 74.992188 169.496094 C 79.9375 161.652344 84.6875 153.660156 89.390625 145.667969 C 90.890625 143.152344 93.074219 139.761719 87.015625 140.488281 C 85.996094 141.457031 85.027344 142.425781 84.007812 143.394531 C 84.007812 144.941406 83.476562 146.296875 82.601562 147.65625 C 78.578125 154.097656 74.605469 160.488281 70.96875 167.125 C 65.878906 176.375 62.824219 186.011719 66.21875 196.761719 C 67.527344 200.925781 70.824219 203.929688 72.375 207.804688 C 59.964844 214.050781 45.183594 216.375 38.25 230.515625 C 38.25 231.195312 38.25 231.921875 38.25 232.597656 C 39.121094 232.695312 39.703125 232.9375 39.996094 233.421875 C 39.703125 232.9375 39.171875 232.695312 38.25 232.597656 C 38.25 233.277344 38.25 234.003906 38.25 234.683594 C 38.832031 234.925781 39.414062 235.117188 39.996094 235.359375 C 40.09375 235.070312 40.140625 234.777344 40.1875 234.535156 C 40.1875 234.777344 40.09375 235.070312 39.996094 235.359375 C 40.625 238.3125 40.042969 241.65625 42.613281 244.027344 C 42.953125 244.027344 43.242188 244.125 43.484375 244.222656 C 43.242188 244.125 42.953125 244.027344 42.613281 244.027344 C 42.953125 244.996094 43 246.160156 44.453125 246.207031 C 44.453125 246.207031 44.453125 246.207031 44.453125 246.160156 C 44.453125 246.160156 44.453125 246.160156 44.453125 246.207031 C 44.84375 246.304688 45.230469 246.351562 45.617188 246.449219 C 45.617188 245.238281 45.617188 244.027344 45.617188 242.867188 C 45.425781 241.414062 45.472656 240.007812 45.035156 238.75 Z M 45.035156 238.75 " fill-opacity="1" fill-rule="nonzero"/></g><path fill="#eb436e" d="M 224.242188 259.527344 C 230.058594 253.667969 237.234375 250.035156 245.085938 247.03125 C 258.414062 241.996094 272.765625 241.027344 286.09375 235.988281 C 296.273438 232.164062 306.550781 228.820312 314.886719 221.460938 C 319.152344 219.328125 321.578125 215.308594 324.582031 211.871094 C 325.261719 211.097656 325.84375 209.933594 324.871094 209.113281 C 323.855469 208.238281 322.835938 209.0625 322.253906 209.886719 C 319.296875 214.003906 314.9375 216.519531 311.300781 219.910156 C 304.757812 224.414062 297.628906 227.660156 290.117188 230.273438 C 286.480469 231.535156 282.992188 233.664062 279.257812 234.34375 C 268.691406 236.378906 258.078125 238.265625 247.75 241.460938 C 240.675781 243.640625 233.742188 246.160156 226.132812 245.628906 C 221.867188 245.335938 217.503906 245.09375 213.238281 245.386719 C 191.957031 246.835938 170.628906 246.304688 149.300781 246.933594 C 118.132812 247.855469 86.964844 248.097656 55.75 248.628906 C 50.902344 248.726562 49.398438 247.078125 50.609375 242.332031 C 51.53125 238.554688 53.761719 235.554688 55.894531 232.40625 C 57.25 231.777344 57.492188 230.566406 57.640625 229.304688 C 56.863281 226.789062 56.425781 226.449219 54.585938 228.242188 C 50.417969 232.308594 46.878906 236.863281 47.363281 243.207031 C 46.78125 243.058594 46.199219 242.867188 45.570312 242.722656 C 45.570312 243.933594 45.570312 245.144531 45.570312 246.304688 L 45.859375 246.304688 C 48.285156 249.839844 50.660156 253.667969 55.652344 253.519531 C 67.285156 253.132812 78.96875 252.890625 90.601562 252.792969 C 108.34375 252.699219 126.035156 251.730469 143.777344 251.4375 C 169.226562 251.050781 194.671875 250.953125 220.121094 250.664062 C 222.253906 250.664062 224.386719 249.839844 227.101562 251.050781 C 221.238281 255.652344 216.488281 260.496094 215.128906 267.664062 C 214.207031 272.554688 215.808594 275.796875 220.65625 277.25 C 218.085938 270.421875 219.441406 264.367188 224.242188 259.527344 Z M 312.753906 220.25 C 312.707031 220.25 312.707031 220.25 312.65625 220.25 C 312.707031 220.25 312.753906 220.25 312.753906 220.25 Z M 314.355469 220.832031 C 314.113281 220.636719 313.871094 220.539062 313.628906 220.445312 C 313.871094 220.539062 314.113281 220.636719 314.355469 220.832031 Z M 55.941406 230.710938 C 55.992188 230.421875 56.136719 230.128906 56.332031 229.886719 C 56.136719 230.128906 56.039062 230.421875 55.941406 230.710938 C 55.847656 231.097656 55.847656 231.535156 55.847656 231.96875 C 55.847656 231.535156 55.847656 231.097656 55.941406 230.710938 Z M 46.441406 246.160156 C 47.410156 245.722656 47.75 244.949219 47.558594 243.933594 C 47.75 244.949219 47.410156 245.675781 46.441406 246.160156 Z M 46.441406 246.160156 " fill-opacity="1" fill-rule="nonzero"/><g clip-path="url(#820681cd17)"><path fill="#eb436e" d="M 350.371094 201.21875 C 350.128906 185.625 345.039062 171.578125 336.992188 158.40625 C 328.363281 144.3125 316.828125 134.191406 300.199219 130.703125 C 291.378906 128.863281 282.699219 129.542969 273.78125 130.703125 C 262.34375 132.207031 251.582031 134.917969 241.886719 141.164062 C 241.109375 141.84375 240.285156 142.519531 239.511719 143.246094 C 238.785156 143.925781 238.007812 144.605469 237.28125 145.28125 C 237.378906 145.332031 237.523438 145.378906 237.621094 145.425781 C 237.523438 145.378906 237.425781 145.332031 237.28125 145.28125 C 236.214844 145.523438 235.632812 146.347656 235.148438 147.265625 C 234.082031 147.847656 233.550781 147.460938 232.726562 146.539062 C 230.203125 143.828125 231.222656 140.148438 229.71875 137.242188 C 230.058594 136.417969 229.914062 135.742188 229.234375 135.207031 C 229.1875 135.257812 229.089844 135.355469 229.042969 135.402344 C 229.089844 135.355469 229.1875 135.304688 229.234375 135.207031 C 229.71875 131.722656 229.285156 128.28125 228.703125 124.84375 C 228.945312 123.390625 228.847656 122.035156 228.121094 120.726562 C 227.976562 120 227.828125 119.324219 227.636719 118.597656 C 226.957031 118.015625 226.570312 117.484375 226.375 116.949219 C 226.519531 117.484375 226.957031 118.066406 227.636719 118.597656 C 227.683594 117.191406 227.78125 115.738281 227.828125 114.335938 C 226.8125 103.246094 225.792969 92.058594 222.691406 81.355469 C 221.527344 77.382812 220.753906 72.636719 216.730469 69.878906 C 214.304688 70.167969 212.65625 69.539062 212.898438 66.679688 C 212.609375 69.585938 214.304688 70.167969 216.730469 69.878906 C 215.855469 68.328125 214.355469 67.554688 212.949219 66.679688 C 212.898438 66.003906 212.898438 65.324219 212.851562 64.695312 C 211.832031 64.695312 210.765625 64.695312 209.75 64.695312 C 209.410156 65.375 209.023438 66.050781 208.683594 66.730469 C 207.132812 67.070312 205.242188 66.585938 204.464844 68.570312 C 204.511719 69.925781 204.5625 71.234375 204.660156 72.589844 C 206.839844 72.878906 208.925781 70.796875 211.203125 72.300781 C 213.238281 73.21875 214.742188 74.71875 215.757812 76.707031 C 216.535156 78.933594 216.824219 81.402344 218.425781 83.292969 C 218.863281 83.921875 219.296875 84.550781 219.78125 85.179688 C 219.636719 85.957031 219.492188 86.730469 219.296875 87.503906 C 218.375 89.734375 219.976562 91.574219 220.265625 93.65625 C 220.800781 92.929688 221.042969 92.203125 221.042969 91.574219 C 221.042969 92.25 220.847656 92.929688 220.265625 93.65625 C 220.363281 96.417969 219.976562 99.226562 220.898438 101.890625 C 221.671875 102.46875 222.109375 103.050781 222.253906 103.730469 C 222.109375 103.101562 221.671875 102.46875 220.898438 101.890625 C 220.316406 103.679688 220.605469 105.425781 221.429688 107.070312 C 221.574219 108.089844 221.722656 109.152344 221.867188 110.171875 C 222.449219 112.929688 220.753906 115.789062 222.449219 118.453125 C 222.496094 118.355469 222.496094 118.257812 222.546875 118.160156 C 222.496094 118.257812 222.496094 118.355469 222.449219 118.453125 C 222.496094 120.195312 222.011719 121.988281 222.886719 123.632812 C 223.371094 127.074219 222.253906 130.609375 223.707031 133.949219 C 223.855469 134.675781 224 135.355469 224.144531 136.082031 C 224.386719 138.015625 222.546875 140.4375 225.550781 141.648438 C 225.503906 141.550781 225.453125 141.40625 225.453125 141.3125 C 225.40625 141.070312 225.355469 140.828125 225.355469 140.585938 C 225.355469 140.828125 225.40625 141.070312 225.453125 141.3125 C 225.503906 141.40625 225.503906 141.550781 225.550781 141.648438 C 225.597656 141.988281 225.792969 142.183594 226.132812 142.230469 C 226.132812 142.230469 226.132812 142.230469 226.179688 142.230469 C 226.179688 142.230469 226.179688 142.230469 226.132812 142.230469 C 226.230469 143.199219 225.988281 144.265625 227.296875 144.652344 C 228.410156 146.734375 228.703125 149.203125 230.496094 150.898438 C 230.15625 148.429688 230.835938 145.476562 227.34375 144.605469 C 227.394531 144.3125 227.394531 144.070312 227.394531 143.828125 C 227.394531 144.070312 227.394531 144.3125 227.34375 144.605469 C 230.835938 145.476562 230.203125 148.429688 230.496094 150.898438 C 232.386719 154.097656 234.324219 157.292969 236.167969 160.535156 C 245.085938 175.9375 245.714844 193.664062 231.511719 207.707031 C 228.023438 211.195312 223.660156 214.050781 221.089844 219.183594 C 224.046875 218.992188 226.472656 218.84375 228.847656 218.699219 C 230.109375 218.605469 231.804688 218.167969 231.367188 216.8125 C 230.058594 212.9375 233.453125 211.386719 235.246094 210.03125 C 240.578125 205.914062 243.484375 200.441406 245.472656 194.390625 C 249.59375 181.75 246.636719 170.125 240.042969 158.9375 C 238.058594 155.546875 234.277344 151.964844 238.6875 147.65625 L 238.976562 147.316406 C 238.832031 146.589844 238.445312 146.007812 237.910156 145.621094 C 238.445312 146.007812 238.832031 146.589844 238.976562 147.316406 C 240.578125 146.832031 241.839844 146.007812 242.613281 144.507812 C 253.8125 138.113281 266.027344 135.207031 278.726562 133.511719 C 281.199219 133.175781 283.28125 134.335938 285.707031 134.09375 C 300.101562 132.785156 312.753906 137.097656 322.644531 147.507812 C 337.574219 163.152344 345.523438 181.894531 345.863281 203.734375 C 345.863281 205.429688 344.648438 208.578125 347.996094 208.578125 C 351 208.578125 350.222656 205.671875 350.515625 203.734375 C 350.5625 202.960938 350.371094 202.089844 350.371094 201.21875 Z M 213.09375 71.910156 C 213.867188 71.863281 214.449219 72.007812 214.886719 72.300781 C 214.449219 72.058594 213.820312 71.910156 213.09375 71.910156 Z M 215.808594 73.75 C 215.710938 73.265625 215.515625 72.878906 215.175781 72.589844 C 215.515625 72.878906 215.710938 73.265625 215.808594 73.75 Z M 220.023438 84.210938 C 220.023438 84.019531 219.976562 83.875 219.878906 83.777344 C 219.976562 83.921875 220.023438 84.066406 220.023438 84.210938 Z M 224.484375 128.089844 C 224.484375 127.652344 224.4375 127.21875 224.339844 126.78125 C 224.289062 126.394531 224.144531 126.054688 224 125.667969 C 224.144531 126.054688 224.242188 126.394531 224.339844 126.78125 C 224.4375 127.21875 224.484375 127.652344 224.484375 128.089844 Z M 222.109375 105.375 C 222.15625 105.132812 222.207031 104.941406 222.253906 104.699219 C 222.253906 104.890625 222.207031 105.132812 222.109375 105.375 C 222.011719 105.617188 221.964844 105.8125 221.867188 106.054688 C 221.964844 105.8125 222.0625 105.570312 222.109375 105.375 Z M 223.371094 113.707031 C 223.320312 112.882812 223.128906 112.058594 222.640625 111.285156 C 223.128906 112.058594 223.320312 112.882812 223.371094 113.707031 Z M 223.371094 114.238281 C 223.320312 114.917969 223.222656 115.644531 223.03125 116.320312 C 223.222656 115.644531 223.371094 114.964844 223.371094 114.238281 Z M 223.175781 124.117188 C 223.371094 124.359375 223.515625 124.601562 223.660156 124.894531 C 223.515625 124.652344 223.371094 124.410156 223.175781 124.117188 Z M 228.992188 135.402344 C 228.75 135.644531 228.652344 135.839844 228.605469 136.03125 C 228.652344 135.839844 228.75 135.644531 228.992188 135.402344 Z M 227.34375 122.179688 C 227.34375 122.132812 227.394531 122.085938 227.394531 122.035156 C 227.394531 122.085938 227.394531 122.132812 227.34375 122.179688 Z M 226.910156 142.8125 C 226.859375 142.761719 226.8125 142.667969 226.761719 142.617188 C 226.8125 142.714844 226.859375 142.761719 226.910156 142.8125 Z M 227.296875 114.722656 C 227.152344 114.867188 227.003906 114.964844 226.910156 115.109375 C 227.003906 114.964844 227.152344 114.867188 227.296875 114.722656 Z M 226.328125 116.128906 C 226.277344 116.320312 226.277344 116.464844 226.328125 116.660156 C 226.277344 116.515625 226.277344 116.320312 226.328125 116.128906 Z M 226.421875 142.425781 C 226.472656 142.472656 226.519531 142.519531 226.570312 142.570312 C 226.519531 142.519531 226.472656 142.472656 226.421875 142.425781 Z M 226.957031 142.910156 C 227.003906 143.003906 227.054688 143.054688 227.101562 143.152344 C 227.054688 143.054688 227.003906 143.003906 226.957031 142.910156 Z M 227.152344 143.199219 C 227.199219 143.296875 227.246094 143.394531 227.246094 143.488281 C 227.199219 143.394531 227.152344 143.296875 227.152344 143.199219 Z M 227.246094 143.488281 C 227.296875 143.585938 227.296875 143.730469 227.296875 143.828125 C 227.296875 143.730469 227.246094 143.636719 227.246094 143.488281 Z M 228.605469 136.46875 C 228.554688 136.371094 228.554688 136.324219 228.554688 136.226562 C 228.554688 136.273438 228.554688 136.371094 228.605469 136.46875 C 228.652344 136.613281 228.75 136.710938 228.847656 136.804688 C 228.75 136.710938 228.652344 136.566406 228.605469 136.46875 Z M 228.605469 136.46875 " fill-opacity="1" fill-rule="nonzero"/></g><path fill="#eb436e" d="M 332.917969 234.050781 C 328.167969 240.203125 323.855469 246.886719 318.328125 252.261719 C 311.105469 259.234375 303.542969 265.820312 294.382812 270.714844 C 282.652344 276.960938 270.777344 282.335938 257.640625 284.320312 C 246.539062 286.015625 235.390625 286.308594 224.679688 281.5625 C 223.417969 281.027344 221.722656 279.1875 220.65625 281.222656 C 219.929688 282.625 221.527344 283.886719 222.886719 284.757812 C 227.585938 287.953125 233.113281 288.777344 238.492188 289.261719 C 250.902344 290.425781 262.679688 288.390625 274.558594 283.984375 C 283.234375 280.738281 291.570312 277.398438 299.375 272.503906 C 316.246094 261.996094 328.800781 247.515625 338.589844 230.421875 C 337.863281 230.371094 337.089844 230.371094 336.359375 230.324219 C 334.664062 231.148438 333.9375 232.746094 332.917969 234.050781 Z M 332.917969 234.050781 " fill-opacity="1" fill-rule="nonzero"/><path fill="#eb436e" d="M 96.128906 140.488281 C 97.386719 142.570312 98.648438 142.085938 99.859375 140.488281 C 105.628906 136.710938 111.347656 132.835938 117.601562 129.882812 C 120.074219 128.71875 120.171875 126.976562 119.296875 124.796875 C 118.375 123.199219 117.457031 121.601562 116.535156 120 C 115.757812 118.789062 115.03125 117.628906 114.257812 116.417969 C 112.800781 116.464844 111.929688 116.128906 111.347656 115.59375 C 111.929688 116.128906 112.800781 116.464844 114.257812 116.417969 C 112.800781 114.382812 111.394531 112.300781 109.941406 110.265625 C 108.003906 107.121094 105.289062 104.699219 102.234375 102.710938 C 101.507812 101.792969 100.683594 101.257812 99.472656 101.742188 C 96.464844 100.96875 93.847656 100.96875 93.847656 105.132812 C 94.722656 105.328125 95.59375 105.570312 96.464844 105.761719 C 101.847656 107.363281 104.851562 111.769531 107.566406 116.03125 C 109.457031 118.9375 113.527344 122.714844 112.074219 125.183594 C 110.183594 128.523438 105.433594 130.21875 101.894531 132.640625 C 100.246094 133.753906 100.199219 132.542969 99.570312 131.382812 C 97.339844 127.363281 98.988281 122.617188 97.097656 118.597656 C 97 117.871094 96.902344 117.097656 96.804688 116.371094 C 97.726562 114.042969 96.320312 112.203125 95.546875 110.21875 C 95.351562 110.21875 95.15625 110.21875 95.011719 110.21875 C 95.207031 110.171875 95.351562 110.171875 95.546875 110.21875 C 95.351562 108.621094 94.867188 106.972656 96.464844 105.761719 C 95.59375 105.570312 94.722656 105.328125 93.847656 105.132812 C 91.039062 107.023438 91.183594 109.589844 92.199219 112.351562 C 91.714844 114.042969 91.765625 115.789062 92.199219 117.484375 C 93.265625 118.402344 93.558594 119.371094 93.21875 120.390625 C 93.558594 119.371094 93.265625 118.402344 92.199219 117.484375 C 91.910156 118.886719 91.714844 120.242188 92.539062 121.550781 C 92.539062 121.503906 92.589844 121.503906 92.589844 121.453125 C 92.589844 121.503906 92.539062 121.503906 92.539062 121.550781 C 92.734375 122.230469 92.929688 122.957031 93.121094 123.632812 C 93.265625 123.683594 93.414062 123.777344 93.507812 123.828125 C 93.753906 123.972656 93.898438 124.117188 94.042969 124.3125 C 93.945312 124.167969 93.753906 123.972656 93.507812 123.828125 C 93.414062 123.730469 93.265625 123.683594 93.121094 123.632812 C 92.78125 124.410156 92.832031 125.085938 93.414062 125.714844 C 93.65625 127.796875 92.832031 129.929688 93.996094 131.914062 C 93.65625 133.027344 93.898438 134.09375 94.527344 135.015625 C 94.964844 134.578125 95.207031 134.191406 95.304688 133.804688 C 95.207031 134.191406 94.914062 134.578125 94.527344 135.015625 C 94.382812 137.097656 94.332031 139.035156 96.128906 140.488281 Z M 117.164062 123.585938 C 117.457031 123.925781 117.84375 124.261719 118.375 124.457031 C 118.617188 124.554688 118.859375 124.652344 119.152344 124.699219 C 118.859375 124.652344 118.617188 124.554688 118.375 124.457031 C 117.84375 124.261719 117.457031 123.972656 117.164062 123.585938 C 117.019531 123.390625 116.875 123.199219 116.777344 123.003906 C 116.875 123.246094 117.019531 123.441406 117.164062 123.585938 Z M 100.34375 102.617188 C 100.152344 102.519531 99.90625 102.324219 99.761719 102.132812 C 99.957031 102.324219 100.152344 102.46875 100.34375 102.617188 C 100.539062 102.761719 100.78125 102.808594 101.023438 102.808594 C 100.828125 102.808594 100.585938 102.710938 100.34375 102.617188 Z M 110.378906 113.414062 C 110.328125 113.222656 110.328125 113.078125 110.28125 112.882812 C 110.328125 113.078125 110.328125 113.222656 110.378906 113.414062 C 110.476562 113.949219 110.570312 114.433594 110.816406 114.820312 C 110.570312 114.382812 110.476562 113.898438 110.378906 113.414062 Z M 110.910156 115.011719 C 111.007812 115.160156 111.105469 115.253906 111.203125 115.402344 C 111.058594 115.304688 111.007812 115.160156 110.910156 115.011719 Z M 95.691406 117.484375 C 95.691406 117.53125 95.691406 117.582031 95.691406 117.628906 C 95.691406 117.582031 95.691406 117.53125 95.691406 117.484375 Z M 93.121094 120.679688 C 93.121094 120.679688 93.121094 120.726562 93.121094 120.679688 C 93.074219 120.726562 93.121094 120.726562 93.121094 120.679688 Z M 93.847656 110.847656 C 93.898438 110.800781 93.847656 110.800781 93.847656 110.847656 Z M 94.1875 124.894531 C 94.1875 124.988281 94.140625 125.039062 94.089844 125.136719 C 94.140625 125.039062 94.140625 124.941406 94.1875 124.894531 Z M 93.800781 125.472656 C 93.847656 125.425781 93.898438 125.378906 93.945312 125.328125 C 93.898438 125.378906 93.847656 125.425781 93.800781 125.472656 Z M 93.800781 125.472656 " fill-opacity="1" fill-rule="nonzero"/><path fill="#eb436e" d="M 203.835938 90.460938 C 197.4375 99.710938 191.8125 109.300781 189.535156 120.535156 C 189.003906 123.101562 190.070312 123.683594 192.007812 123.777344 C 197.144531 124.117188 201.460938 126.492188 205.628906 129.25 C 210.332031 132.351562 210.960938 132.0625 212.171875 126.539062 C 213.382812 125.039062 212.851562 123.246094 212.949219 121.601562 C 212.996094 120.96875 213.09375 120.292969 213.140625 119.664062 C 212.269531 119.226562 211.785156 118.789062 211.640625 118.308594 C 211.785156 118.789062 212.269531 119.226562 213.140625 119.664062 C 213.042969 118.597656 212.949219 117.484375 212.851562 116.417969 C 213.042969 115.738281 213.238281 115.011719 213.433594 114.335938 C 212.996094 113.65625 212.753906 113.027344 212.707031 112.398438 C 212.753906 113.027344 212.996094 113.65625 213.433594 114.335938 C 214.5 113.078125 214.402344 111.671875 214.015625 110.21875 C 214.546875 109.203125 214.402344 108.234375 213.917969 107.265625 C 213.722656 107.121094 213.53125 107.023438 213.382812 106.878906 C 213.238281 106.730469 213.140625 106.585938 213.042969 106.394531 C 213.140625 106.539062 213.238281 106.730469 213.382812 106.878906 C 213.53125 107.023438 213.722656 107.167969 213.917969 107.265625 C 214.933594 102.421875 213.335938 97.675781 212.65625 93.027344 C 212.027344 88.523438 209.265625 87.699219 205.578125 89.976562 C 205.046875 90.074219 204.125 90.023438 203.835938 90.460938 Z M 209.023438 116.855469 C 209.070312 116.902344 209.167969 117 209.214844 117.046875 C 209.167969 117 209.117188 116.902344 209.023438 116.855469 Z M 212.367188 116.855469 Z M 211.976562 117.289062 C 211.929688 117.339844 211.929688 117.386719 211.882812 117.433594 C 211.929688 117.339844 211.929688 117.289062 211.976562 117.289062 Z M 212.800781 112.351562 C 212.800781 112.109375 212.800781 111.816406 212.898438 111.574219 C 212.800781 111.867188 212.800781 112.109375 212.800781 112.351562 Z M 209.894531 99.902344 C 209.652344 99.902344 209.359375 99.902344 209.070312 99.953125 C 208.875 105.472656 208.730469 110.945312 208.535156 116.464844 C 208.003906 117.53125 208.050781 118.597656 208.441406 119.664062 C 208.003906 122.714844 206.984375 124.601562 203.640625 122.085938 C 202.71875 121.359375 201.460938 121.066406 200.441406 120.484375 C 198.503906 119.421875 194.914062 120.679688 194.527344 118.308594 C 194.1875 116.371094 196.320312 113.996094 197.195312 111.769531 C 199.761719 105.277344 202.960938 99.082031 206.597656 93.125 C 208.246094 95.109375 208.632812 97.53125 209.070312 99.902344 C 209.359375 99.902344 209.652344 99.902344 209.894531 99.902344 Z M 209.894531 99.902344 " fill-opacity="1" fill-rule="nonzero"/><path fill="#eb436e" d="M 115.613281 170.464844 C 123.417969 170.464844 128.3125 165.523438 132.238281 159.859375 C 135.34375 155.355469 133.0625 151.820312 127.488281 151.867188 C 120.316406 151.964844 114.789062 155.5 110.328125 160.925781 C 108.730469 162.863281 107.90625 165.332031 108.972656 167.609375 C 110.183594 170.222656 112.851562 170.707031 115.613281 170.464844 Z M 115.613281 170.464844 " fill-opacity="1" fill-rule="nonzero"/><path fill="#eb436e" d="M 207.035156 152.011719 C 202.71875 145.765625 196.804688 143.972656 189.921875 143.683594 C 189.292969 144.363281 188.664062 144.605469 188.03125 144.410156 C 188.664062 144.605469 189.292969 144.363281 189.921875 143.683594 C 188.953125 143.003906 187.9375 142.910156 186.917969 143.636719 C 185.804688 143.488281 184.738281 143.585938 183.765625 144.265625 C 183.425781 145.621094 183.089844 147.023438 182.699219 148.382812 C 183.378906 148.382812 184.058594 148.382812 184.738281 148.382812 C 186.191406 148.332031 187.789062 149.351562 188.953125 147.65625 C 190.40625 148.671875 192.054688 148.671875 193.753906 148.867188 C 199.8125 149.542969 205.386719 155.789062 205.335938 161.84375 C 205.335938 166.542969 201.21875 168.042969 198.261719 170.417969 C 197.4375 170.222656 196.710938 170.320312 196.078125 170.949219 C 194.722656 171.191406 193.414062 171.433594 192.054688 171.675781 C 192.007812 171.964844 191.910156 172.207031 191.8125 172.402344 C 191.910156 172.207031 192.007812 171.964844 192.054688 171.675781 C 184.738281 171.53125 177.609375 170.902344 171.988281 165.378906 C 167.820312 161.261719 168.984375 154.628906 174.363281 152.546875 C 176.011719 148.867188 176.058594 148.867188 182.75 148.332031 C 183.089844 146.976562 183.425781 145.574219 183.816406 144.214844 C 182.699219 144.363281 181.539062 144.605469 180.421875 144.605469 C 174.558594 144.457031 168.449219 148.527344 166.121094 154.242188 C 163.554688 160.488281 164.863281 165.1875 169.808594 170.078125 C 176.691406 176.859375 192.6875 179.230469 202.136719 173.855469 C 200.636719 174 199.132812 174.144531 197.628906 174.289062 C 199.132812 174.144531 200.636719 174 202.136719 173.855469 C 211.492188 168.625 212.996094 160.683594 207.035156 152.011719 Z M 187.742188 146.734375 C 186.675781 146.152344 185.753906 146.25 185.027344 147.75 C 185.707031 146.25 186.675781 146.105469 187.742188 146.734375 C 187.9375 146.832031 188.082031 146.929688 188.273438 147.074219 C 188.082031 146.929688 187.886719 146.832031 187.742188 146.734375 Z M 191.714844 172.691406 C 191.714844 172.691406 191.667969 172.742188 191.714844 172.691406 C 191.667969 172.742188 191.714844 172.691406 191.714844 172.691406 Z M 187.355469 174.679688 C 187.449219 174.582031 187.5 174.484375 187.597656 174.386719 C 187.5 174.484375 187.402344 174.582031 187.355469 174.679688 C 187.257812 174.824219 187.160156 174.96875 187.0625 175.164062 C 187.160156 174.96875 187.257812 174.824219 187.355469 174.679688 Z M 187.355469 174.679688 " fill-opacity="1" fill-rule="nonzero"/><path fill="#eb436e" d="M 138.785156 164.074219 C 141.011719 159.808594 140.335938 151.917969 136.941406 148.671875 C 135.972656 147.703125 134.808594 147.21875 133.695312 147.847656 C 133.597656 147.898438 133.5 147.945312 133.453125 147.992188 C 133.5 146.734375 131.902344 146.203125 131.078125 145.621094 C 130.011719 144.894531 128.457031 144.457031 127.199219 144.554688 C 120.171875 145.332031 113.191406 146.445312 108.34375 152.449219 C 107.226562 152.789062 106.5 153.464844 107.128906 154.628906 C 108.003906 156.273438 109.019531 155.210938 109.941406 154.582031 C 109.941406 153.902344 109.699219 153.371094 109.261719 153.03125 C 109.117188 152.886719 108.925781 152.738281 108.683594 152.644531 C 108.925781 152.738281 109.117188 152.886719 109.261719 153.03125 C 109.699219 153.417969 109.941406 153.902344 109.941406 154.582031 C 116.050781 150.367188 122.59375 147.703125 130.253906 149.011719 C 131.027344 149.15625 132.09375 149.738281 132.820312 149.300781 C 132.871094 149.835938 133.113281 150.414062 133.5 150.898438 C 138.300781 157.292969 135.292969 162.425781 130.980469 167.460938 C 128.070312 170.804688 124.96875 173.757812 120.605469 175.066406 C 119.636719 175.355469 119.199219 175.9375 119.296875 176.953125 C 118.859375 176.761719 118.375 176.277344 117.988281 176.375 C 111.25 178.214844 106.355469 175.40625 104.804688 168.722656 C 104.027344 165.1875 105.046875 161.894531 106.210938 158.648438 C 106.597656 157.582031 106.9375 156.664062 105.726562 156.03125 C 104.464844 155.402344 103.929688 156.46875 103.300781 157.242188 C 99.90625 161.503906 98.9375 170.609375 101.945312 174.339844 C 106.304688 179.761719 111.300781 182.378906 118.183594 180.003906 C 118.375 179.519531 118.523438 179.035156 118.714844 178.550781 C 118.523438 179.035156 118.375 179.519531 118.183594 180.003906 C 119.347656 180.152344 120.414062 180.054688 121.332031 179.230469 C 128.796875 176.035156 134.953125 171.480469 138.785156 164.074219 Z M 120.65625 177.824219 C 120.605469 177.777344 120.507812 177.679688 120.460938 177.632812 C 120.558594 177.679688 120.605469 177.730469 120.65625 177.824219 Z M 120.363281 177.535156 C 120.265625 177.488281 120.21875 177.4375 120.121094 177.34375 C 120.21875 177.4375 120.316406 177.488281 120.363281 177.535156 Z M 120.074219 177.34375 C 119.976562 177.292969 119.878906 177.246094 119.78125 177.195312 C 119.878906 177.195312 119.976562 177.246094 120.074219 177.34375 Z M 119.683594 177.148438 C 119.589844 177.101562 119.441406 177.050781 119.296875 177.003906 C 119.441406 177.003906 119.589844 177.050781 119.683594 177.148438 Z M 121.1875 178.648438 C 121.1875 178.699219 121.238281 178.746094 121.238281 178.84375 C 121.238281 178.746094 121.238281 178.699219 121.1875 178.648438 Z M 120.75 177.921875 C 120.800781 177.972656 120.847656 178.019531 120.898438 178.117188 C 120.898438 178.019531 120.800781 177.972656 120.75 177.921875 Z M 120.992188 178.261719 C 121.042969 178.308594 121.089844 178.359375 121.089844 178.457031 C 121.089844 178.359375 121.042969 178.308594 120.992188 178.261719 Z M 120.992188 178.261719 " fill-opacity="1" fill-rule="nonzero"/><path fill="#eb436e" d="M 174.460938 152.546875 C 174.410156 152.546875 174.410156 152.59375 174.363281 152.59375 C 174.363281 152.644531 174.316406 152.644531 174.316406 152.691406 Z M 174.460938 152.546875 " fill-opacity="1" fill-rule="nonzero"/><path fill="#eb436e" d="M 84.007812 143.441406 C 85.027344 142.472656 85.996094 141.503906 87.015625 140.535156 C 86.335938 135.113281 85.949219 129.589844 84.976562 124.214844 C 83.332031 115.0625 84.832031 105.667969 82.359375 96.609375 C 82.019531 95.304688 83.332031 93.027344 80.664062 93.269531 C 78.484375 93.460938 78.484375 95.59375 78.386719 97.335938 C 77.753906 106.441406 78.820312 115.546875 79.984375 124.503906 C 80.808594 130.851562 80.710938 137.53125 84.007812 143.441406 Z M 84.007812 143.441406 " fill-opacity="1" fill-rule="nonzero"/><path fill="#eb436e" d="M 336.359375 230.421875 C 337.089844 230.46875 337.863281 230.46875 338.589844 230.515625 C 339.65625 226.933594 343.679688 224.609375 342.515625 219.960938 C 340.480469 223.445312 338.398438 226.933594 336.359375 230.421875 Z M 336.359375 230.421875 " fill-opacity="1" fill-rule="nonzero"/><path fill="#eb436e" d="M 344.796875 211.628906 C 343.339844 211.679688 342.613281 212.550781 342.515625 213.90625 C 342.421875 215.261719 343.390625 215.601562 344.503906 215.746094 C 345.621094 215.40625 346.929688 215.214844 347.023438 213.710938 C 347.121094 212.164062 346.199219 211.582031 344.796875 211.628906 Z M 344.796875 211.628906 " fill-opacity="1" fill-rule="nonzero"/><path fill="#eb436e" d="M 204.5625 72.542969 C 204.511719 71.183594 204.464844 69.878906 204.367188 68.519531 C 202.1875 70.894531 202.1875 71.136719 204.5625 72.542969 Z M 204.5625 72.542969 " fill-opacity="1" fill-rule="nonzero"/><path fill="#eb436e" d="M 82.699219 86.488281 C 84.152344 90.894531 85.65625 88.085938 87.109375 86.488281 C 88.128906 85.8125 89.195312 85.132812 90.214844 84.453125 C 89.875 84.210938 89.535156 84.019531 89.292969 83.875 C 88.808594 83.632812 88.417969 83.632812 88.175781 83.726562 C 88.417969 83.582031 88.808594 83.632812 89.292969 83.875 C 89.582031 84.019531 89.875 84.164062 90.214844 84.453125 C 90.890625 84.453125 91.570312 84.40625 92.25 84.40625 C 93.21875 83.339844 93.753906 83.390625 94.042969 84.066406 C 94.089844 84.210938 94.140625 84.359375 94.1875 84.503906 C 94.140625 84.308594 94.089844 84.164062 94.042969 84.066406 C 93.753906 83.4375 93.21875 83.339844 92.25 84.40625 C 92.976562 84.695312 93.65625 84.9375 94.382812 85.230469 C 95.933594 86.441406 97.726562 86.875 99.617188 87.117188 C 101.070312 85.714844 102.1875 86.828125 103.398438 87.554688 C 103.929688 87.894531 104.464844 88.085938 105.046875 87.941406 C 105.289062 87.601562 105.335938 87.3125 105.335938 87.019531 C 105.335938 87.3125 105.289062 87.601562 105.046875 87.941406 C 104.464844 88.085938 103.929688 87.84375 103.398438 87.554688 C 102.234375 86.875 101.121094 85.714844 99.617188 87.117188 C 101.992188 88.621094 104.417969 90.121094 106.792969 91.574219 C 106.792969 91.429688 106.792969 91.28125 106.792969 91.136719 C 106.792969 91.28125 106.792969 91.429688 106.792969 91.574219 C 109.117188 94.09375 111.300781 96.707031 113.769531 99.082031 C 119.636719 104.746094 122.59375 112.496094 127.972656 118.453125 C 128.457031 119.324219 128.945312 120.148438 129.429688 121.019531 C 129.574219 122.664062 130.6875 123.730469 131.902344 124.699219 C 135.003906 126.007812 138.25 126.539062 141.59375 126.925781 C 143.195312 127.121094 144.550781 127.558594 145.765625 126.105469 C 145.183594 125.863281 144.84375 125.472656 144.648438 125.085938 C 144.84375 125.472656 145.230469 125.8125 145.765625 126.105469 C 150.125 125.714844 154.488281 125.378906 158.65625 123.730469 C 160.0625 123.730469 161.46875 123.730469 162.875 123.730469 C 162.679688 123.535156 162.535156 123.34375 162.339844 123.199219 C 162.535156 123.34375 162.679688 123.535156 162.875 123.730469 C 164.230469 123.925781 165.734375 123.777344 166.945312 124.3125 C 170.777344 125.910156 172.714844 124.84375 175.140625 121.261719 C 179.113281 115.402344 182.359375 109.152344 186.140625 103.246094 C 191.667969 94.578125 196.953125 85.714844 200.734375 76.078125 C 201.363281 75.398438 201.460938 74.089844 200.925781 74.042969 C 199.714844 73.945312 198.550781 74.625 197.921875 75.835938 C 198.550781 75.882812 199.179688 75.929688 199.8125 75.980469 C 199.179688 75.929688 198.550781 75.882812 197.921875 75.835938 C 196.03125 77.769531 194.335938 79.902344 193.753906 82.664062 C 192.734375 83.242188 192.25 84.164062 192.203125 85.328125 C 185.316406 95.15625 178.824219 105.277344 173.585938 116.03125 C 171.941406 119.421875 169.808594 120.292969 166.753906 119.515625 C 162.632812 118.5 158.609375 119.273438 154.539062 119.371094 C 153.082031 118.886719 151.871094 119.179688 150.757812 120.195312 C 148.285156 119.855469 146.296875 121.117188 144.164062 122.035156 C 144.261719 122.8125 144.164062 123.632812 144.359375 124.359375 C 144.210938 123.632812 144.261719 122.8125 144.164062 122.035156 C 142.175781 118.546875 139.996094 115.886719 136.167969 120.195312 C 136.070312 120.339844 135.246094 119.855469 134.761719 119.710938 C 134.082031 118.160156 133.546875 116.515625 132.09375 115.402344 C 130.929688 115.109375 130.640625 114.335938 130.6875 113.464844 C 130.589844 114.382812 130.929688 115.109375 132.09375 115.402344 C 132.09375 114.335938 131.707031 113.414062 130.785156 112.785156 C 130.738281 112.929688 130.738281 113.078125 130.6875 113.222656 C 130.6875 113.078125 130.738281 112.929688 130.785156 112.785156 C 127.828125 108.378906 125.210938 103.632812 121.722656 99.710938 C 118.132812 95.640625 115.417969 90.652344 110.136719 88.230469 C 109.84375 88.230469 109.601562 88.230469 109.359375 88.28125 C 109.117188 88.328125 108.875 88.328125 108.632812 88.378906 C 108.292969 88.472656 108.003906 88.570312 107.710938 88.714844 C 107.953125 88.570312 108.292969 88.425781 108.632812 88.378906 C 108.875 88.328125 109.117188 88.28125 109.359375 88.28125 C 109.601562 88.230469 109.894531 88.230469 110.136719 88.230469 C 108.730469 86.296875 106.695312 85.277344 104.5625 84.40625 C 102.1875 83.242188 100.296875 80.871094 97.242188 81.402344 C 96.613281 80.871094 95.933594 80.675781 95.15625 81.015625 C 93.074219 80.582031 91.039062 79.902344 88.953125 80.96875 C 87.351562 81.550781 85.464844 81.453125 84.152344 82.808594 L 83.765625 83 C 83.765625 83.726562 83.816406 84.453125 83.621094 85.085938 C 83.574219 85.230469 83.523438 85.375 83.425781 85.472656 C 83.523438 85.328125 83.574219 85.179688 83.621094 85.085938 C 83.816406 84.453125 83.765625 83.726562 83.765625 83 C 81.535156 83.535156 82.457031 85.132812 82.699219 86.488281 Z M 193.65625 84.746094 C 193.703125 84.695312 193.753906 84.648438 193.753906 84.601562 C 193.753906 84.601562 193.703125 84.648438 193.65625 84.746094 Z M 193.460938 84.9375 L 193.414062 84.988281 Z M 153.859375 120.242188 C 153.664062 120.339844 153.421875 120.4375 153.230469 120.484375 C 153.421875 120.4375 153.664062 120.390625 153.859375 120.242188 Z M 153.132812 120.535156 C 152.890625 120.582031 152.695312 120.582031 152.453125 120.582031 C 152.695312 120.582031 152.890625 120.582031 153.132812 120.535156 Z M 144.699219 125.136719 C 144.648438 125.039062 144.601562 124.894531 144.550781 124.796875 C 144.601562 124.894531 144.648438 124.988281 144.699219 125.136719 Z M 129.621094 120.390625 C 129.621094 120.242188 129.621094 120.097656 129.621094 119.953125 C 129.621094 120.097656 129.621094 120.195312 129.621094 120.390625 Z M 129.476562 119.371094 C 129.429688 119.273438 129.332031 119.179688 129.28125 119.082031 C 129.332031 119.179688 129.378906 119.273438 129.476562 119.371094 Z M 107.46875 89.199219 C 107.179688 89.492188 106.984375 89.878906 106.886719 90.363281 C 106.984375 89.878906 107.179688 89.492188 107.46875 89.199219 Z M 87.597656 84.648438 C 87.644531 84.453125 87.742188 84.308594 87.839844 84.164062 C 87.691406 84.261719 87.644531 84.453125 87.597656 84.648438 Z M 87.351562 82.757812 C 87.0625 82.90625 86.773438 83 86.433594 83.050781 C 86.722656 82.953125 87.0625 82.855469 87.351562 82.757812 Z M 83.425781 85.90625 C 83.332031 86.003906 83.28125 86.101562 83.183594 86.148438 C 83.28125 86.101562 83.378906 86.003906 83.425781 85.90625 Z M 83.425781 85.90625 " fill-opacity="1" fill-rule="nonzero"/><path fill="#eb436e" d="M 145.570312 178.214844 C 146.589844 177.632812 147.074219 176.710938 147.21875 175.550781 C 149.253906 174.484375 149.738281 171.480469 152.550781 171.335938 C 155.699219 174.871094 158.753906 178.457031 162.003906 181.941406 C 163.359375 183.394531 165.007812 184.414062 166.898438 182.667969 C 168.546875 181.121094 167.820312 179.667969 166.605469 178.214844 C 163.554688 174.386719 161.226562 169.882812 156.765625 167.269531 C 155.265625 165.671875 157.882812 161.652344 153.519531 161.699219 C 153.566406 161.746094 153.617188 161.796875 153.664062 161.84375 C 153.617188 161.796875 153.566406 161.746094 153.519531 161.699219 C 151 161.503906 148.382812 160.777344 146.296875 163.007812 C 143.195312 165.039062 146.441406 166.640625 146.683594 168.429688 C 146.878906 168.285156 147.074219 168.1875 147.21875 168.042969 C 147.363281 167.898438 147.507812 167.800781 147.558594 167.65625 C 147.703125 167.460938 147.75 167.316406 147.800781 167.125 C 147.800781 167.027344 147.800781 166.882812 147.800781 166.785156 C 147.800781 166.882812 147.847656 167.027344 147.800781 167.125 C 147.800781 167.316406 147.703125 167.460938 147.558594 167.65625 C 147.460938 167.753906 147.363281 167.898438 147.21875 168.042969 C 147.074219 168.1875 146.878906 168.285156 146.683594 168.429688 C 142.417969 171.480469 140.238281 176.277344 137.136719 180.246094 C 136.410156 181.167969 135.390625 182.667969 136.84375 183.878906 C 138.007812 184.847656 139.460938 184.558594 140.722656 183.976562 C 143.144531 182.765625 144.210938 180.34375 145.570312 178.214844 C 145.523438 177.972656 145.472656 177.730469 145.472656 177.488281 C 145.472656 177.730469 145.523438 177.972656 145.570312 178.214844 Z M 156.765625 167.21875 C 153.714844 166.832031 154.828125 164.023438 154.054688 162.328125 C 154.828125 164.023438 153.714844 166.832031 156.765625 167.21875 Z M 153.808594 161.941406 C 153.761719 161.894531 153.761719 161.84375 153.714844 161.796875 C 153.761719 161.894531 153.761719 161.941406 153.808594 161.941406 Z M 154.003906 162.328125 C 154.003906 162.28125 153.957031 162.230469 153.90625 162.183594 C 153.957031 162.230469 154.003906 162.28125 154.003906 162.328125 Z M 153.90625 162.136719 C 153.859375 162.085938 153.859375 162.039062 153.808594 161.988281 C 153.859375 162.039062 153.90625 162.085938 153.90625 162.136719 Z M 152.792969 171.046875 Z M 153.035156 170.804688 Z M 147.21875 165.816406 C 147.316406 165.914062 147.410156 166.007812 147.460938 166.15625 C 147.410156 166.007812 147.316406 165.914062 147.21875 165.816406 Z M 145.910156 176.132812 C 145.8125 176.226562 145.765625 176.277344 145.714844 176.375 C 145.765625 176.277344 145.8125 176.226562 145.910156 176.132812 Z M 145.910156 176.132812 " fill-opacity="1" fill-rule="nonzero"/><path fill="#eb436e" d="M 178.289062 165.332031 C 182.265625 167.027344 186.191406 167.703125 190.796875 166.640625 C 195.15625 165.621094 198.453125 164.023438 199.085938 159.664062 C 199.761719 154.726562 196.222656 152.207031 192.007812 150.800781 C 185.898438 148.71875 180.035156 150.027344 174.410156 152.691406 C 170.386719 158.890625 171.359375 162.378906 178.289062 165.332031 Z M 178.289062 165.332031 " fill-opacity="1" fill-rule="nonzero"/><path fill="#eb436e" d="M 174.316406 152.691406 C 174.363281 152.691406 174.363281 152.691406 174.410156 152.644531 C 174.460938 152.59375 174.460938 152.546875 174.460938 152.546875 C 174.460938 152.546875 174.316406 152.691406 174.316406 152.691406 Z M 174.316406 152.691406 " fill-opacity="1" fill-rule="nonzero"/><g fill="#eb436e" fill-opacity="1"><g transform="translate(49.622375, 277.347961)"><g><path d="M 0.3125 -13.78125 C 0.382812 -14.175781 0.429688 -14.40625 0.453125 -14.46875 C 0.546875 -14.8125 0.753906 -15.078125 1.078125 -15.265625 C 1.191406 -15.335938 1.445312 -15.460938 1.84375 -15.640625 C 2.738281 -16.035156 3.707031 -16.316406 4.75 -16.484375 C 5.800781 -16.660156 6.859375 -16.703125 7.921875 -16.609375 C 9.023438 -16.523438 10.035156 -16.28125 10.953125 -15.875 C 11.941406 -15.4375 12.773438 -14.847656 13.453125 -14.109375 C 13.773438 -13.753906 14.066406 -13.351562 14.328125 -12.90625 C 14.585938 -12.382812 14.773438 -11.910156 14.890625 -11.484375 C 15.015625 -10.960938 15.050781 -10.46875 15 -10 C 14.882812 -8.863281 14.1875 -7.859375 12.90625 -6.984375 C 11.625 -6.117188 10.539062 -5.578125 9.65625 -5.359375 C 8.6875 -5.117188 7.519531 -5.019531 6.15625 -5.0625 C 6.09375 -5.070312 6.015625 -5.0625 5.921875 -5.03125 C 5.816406 -5.007812 5.726562 -4.984375 5.65625 -4.953125 C 5.570312 -4.910156 5.484375 -4.851562 5.390625 -4.78125 C 5.179688 -4.625 5.019531 -4.363281 4.90625 -4 C 4.800781 -3.664062 4.726562 -3.273438 4.6875 -2.828125 C 4.664062 -2.546875 4.65625 -2.132812 4.65625 -1.59375 C 4.65625 -1.40625 4.660156 -1.226562 4.671875 -1.0625 C 4.679688 -0.894531 4.691406 -0.75 4.703125 -0.625 C 4.710938 -0.5 4.707031 -0.382812 4.6875 -0.28125 C 4.65625 -0.1875 4.609375 -0.113281 4.546875 -0.0625 C 4.472656 -0.0078125 4.394531 0.015625 4.3125 0.015625 C 4.1875 0.0351562 4.078125 0.046875 3.984375 0.046875 C 3.609375 0.046875 3.203125 0.015625 2.765625 -0.046875 C 2.328125 -0.109375 1.960938 -0.25 1.671875 -0.46875 C 1.585938 -0.519531 1.507812 -0.597656 1.4375 -0.703125 C 1.300781 -0.859375 1.171875 -1.179688 1.046875 -1.671875 C 0.929688 -2.046875 0.816406 -2.539062 0.703125 -3.15625 C 0.597656 -3.632812 0.507812 -4.148438 0.4375 -4.703125 C 0.34375 -5.265625 0.289062 -5.625 0.28125 -5.78125 C 0.28125 -5.8125 0.28125 -5.859375 0.28125 -5.921875 C 0.269531 -5.941406 0.257812 -5.960938 0.25 -5.984375 C 0.25 -6.015625 0.25 -6.035156 0.25 -6.046875 C 0.25 -6.117188 0.242188 -6.164062 0.234375 -6.1875 C 0.234375 -6.207031 0.226562 -6.226562 0.21875 -6.25 C 0.21875 -6.269531 0.21875 -6.289062 0.21875 -6.3125 C 0.195312 -6.601562 0.171875 -6.898438 0.140625 -7.203125 C 0.109375 -7.503906 0.0859375 -7.804688 0.078125 -8.109375 C 0.0351562 -8.671875 0.0078125 -9.304688 0 -10.015625 C 0 -10.773438 0.0195312 -11.414062 0.0625 -11.9375 C 0.113281 -12.65625 0.195312 -13.269531 0.3125 -13.78125 Z M 9.5625 -12.828125 C 8.59375 -13.234375 7.378906 -13.285156 5.921875 -12.984375 C 5.773438 -12.929688 5.65625 -12.882812 5.5625 -12.84375 C 5.21875 -12.675781 4.953125 -12.40625 4.765625 -12.03125 C 4.628906 -11.726562 4.566406 -11.253906 4.578125 -10.609375 C 4.585938 -9.972656 4.675781 -9.519531 4.84375 -9.25 C 4.96875 -9.082031 5.082031 -8.957031 5.1875 -8.875 C 5.5 -8.59375 6.128906 -8.457031 7.078125 -8.46875 C 7.578125 -8.46875 8.101562 -8.507812 8.65625 -8.59375 C 9.21875 -8.675781 9.703125 -8.894531 10.109375 -9.25 C 10.335938 -9.488281 10.515625 -9.742188 10.640625 -10.015625 C 10.773438 -10.304688 10.84375 -10.613281 10.84375 -10.9375 C 10.820312 -11.644531 10.492188 -12.21875 9.859375 -12.65625 C 9.773438 -12.726562 9.675781 -12.785156 9.5625 -12.828125 Z M 9.5625 -12.828125 "/></g></g><g transform="translate(64.888243, 277.347961)"><g><path d="M 0.390625 -3.421875 C 0.285156 -4.804688 0.304688 -6.210938 0.453125 -7.640625 C 0.597656 -9.066406 0.820312 -10.046875 1.125 -10.578125 C 1.4375 -11.117188 1.75 -11.375 2.0625 -11.34375 C 2.363281 -11.320312 2.65625 -11.289062 2.9375 -11.25 C 3.1875 -11.1875 3.382812 -11.132812 3.53125 -11.09375 C 3.570312 -11.082031 3.617188 -11.054688 3.671875 -11.015625 C 3.703125 -11.003906 3.738281 -10.96875 3.78125 -10.90625 C 3.78125 -10.90625 3.820312 -10.863281 3.90625 -10.78125 C 3.925781 -10.757812 3.960938 -10.710938 4.015625 -10.640625 C 4.035156 -10.609375 4.054688 -10.554688 4.078125 -10.484375 C 4.097656 -10.390625 4.117188 -10.296875 4.140625 -10.203125 C 4.140625 -10.179688 4.148438 -10.09375 4.171875 -9.9375 C 4.179688 -9.820312 4.125 -8.941406 4 -7.296875 C 3.875 -5.648438 3.953125 -3.738281 4.234375 -1.5625 C 4.222656 -1.320312 4.191406 -1.09375 4.140625 -0.875 C 4.097656 -0.65625 4.054688 -0.503906 4.015625 -0.421875 C 3.921875 -0.285156 3.75 -0.1875 3.5 -0.125 C 3.375 -0.09375 3.238281 -0.0703125 3.09375 -0.0625 C 2.945312 -0.0625 2.800781 -0.0664062 2.65625 -0.078125 C 2.375 -0.0859375 2.078125 -0.125 1.765625 -0.1875 C 1.535156 -0.21875 1.332031 -0.265625 1.15625 -0.328125 C 1.101562 -0.359375 1.066406 -0.382812 1.046875 -0.40625 C 1.015625 -0.414062 0.972656 -0.453125 0.921875 -0.515625 C 0.890625 -0.535156 0.851562 -0.578125 0.8125 -0.640625 C 0.8125 -0.628906 0.773438 -0.675781 0.703125 -0.78125 C 0.679688 -0.800781 0.660156 -0.859375 0.640625 -0.953125 C 0.617188 -1.015625 0.597656 -1.101562 0.578125 -1.21875 C 0.566406 -1.3125 0.503906 -2.046875 0.390625 -3.421875 Z M 2.453125 -16.03125 C 2.953125 -16.03125 3.375 -15.863281 3.71875 -15.53125 C 4.070312 -15.195312 4.25 -14.789062 4.25 -14.3125 C 4.25 -13.832031 4.070312 -13.421875 3.71875 -13.078125 C 3.375 -12.742188 2.953125 -12.578125 2.453125 -12.578125 C 1.960938 -12.578125 1.546875 -12.742188 1.203125 -13.078125 C 0.859375 -13.421875 0.6875 -13.832031 0.6875 -14.3125 C 0.6875 -14.789062 0.859375 -15.195312 1.203125 -15.53125 C 1.546875 -15.863281 1.960938 -16.03125 2.453125 -16.03125 Z M 2.453125 -16.03125 "/></g></g><g transform="translate(69.57794, 277.347961)"><g><path d="M 1.703125 -0.1875 C 1.554688 -0.238281 1.441406 -0.289062 1.359375 -0.34375 C 1.085938 -0.539062 0.890625 -0.828125 0.765625 -1.203125 C 0.648438 -1.578125 0.570312 -1.945312 0.53125 -2.3125 C 0.425781 -3 0.367188 -3.875 0.359375 -4.9375 C 0.347656 -6.007812 0.378906 -7.113281 0.453125 -8.25 C 0.535156 -9.382812 0.765625 -10.175781 1.140625 -10.625 C 1.296875 -10.90625 1.488281 -11.097656 1.71875 -11.203125 C 1.957031 -11.328125 2.242188 -11.398438 2.578125 -11.421875 C 2.910156 -11.441406 3.207031 -11.4375 3.46875 -11.40625 C 3.84375 -11.363281 4.128906 -11.242188 4.328125 -11.046875 C 4.535156 -10.847656 4.59375 -10.492188 4.5 -9.984375 C 5.269531 -10.566406 5.875 -10.835938 6.3125 -10.796875 C 7.007812 -10.765625 7.726562 -10.472656 8.46875 -9.921875 C 9.25 -9.335938 9.828125 -8.578125 10.203125 -7.640625 C 10.578125 -6.710938 10.832031 -5.78125 10.96875 -4.84375 C 11.0625 -4.195312 11.101562 -3.4375 11.09375 -2.5625 C 11.082031 -1.6875 10.910156 -0.9375 10.578125 -0.3125 C 10.453125 -0.101562 10.285156 0.015625 10.078125 0.046875 C 9.703125 0.0976562 9.316406 0.046875 8.921875 -0.109375 C 8.523438 -0.273438 8.226562 -0.460938 8.03125 -0.671875 C 7.945312 -0.742188 7.890625 -0.835938 7.859375 -0.953125 C 7.804688 -1.097656 7.796875 -1.257812 7.828125 -1.4375 C 7.859375 -1.613281 7.890625 -1.78125 7.921875 -1.9375 C 8.054688 -2.507812 8.128906 -3.082031 8.140625 -3.65625 C 8.148438 -4.238281 8.140625 -4.800781 8.109375 -5.34375 C 8.003906 -5.894531 7.832031 -6.34375 7.59375 -6.6875 C 7.101562 -7.519531 6.546875 -7.941406 5.921875 -7.953125 C 5.296875 -7.972656 4.875 -7.609375 4.65625 -6.859375 C 4.476562 -6.253906 4.394531 -5.484375 4.40625 -4.546875 C 4.40625 -4.523438 4.40625 -4.492188 4.40625 -4.453125 C 4.46875 -3.671875 4.554688 -2.929688 4.671875 -2.234375 C 4.703125 -2.066406 4.757812 -1.820312 4.84375 -1.5 C 4.9375 -1.125 4.929688 -0.875 4.828125 -0.75 C 4.796875 -0.71875 4.769531 -0.691406 4.75 -0.671875 C 4.664062 -0.492188 4.523438 -0.351562 4.328125 -0.25 C 4.023438 -0.09375 3.679688 -0.00390625 3.296875 0.015625 C 3.003906 0.0234375 2.722656 0.0078125 2.453125 -0.03125 C 2.316406 -0.0195312 2.191406 -0.0195312 2.078125 -0.03125 C 1.929688 -0.0390625 1.804688 -0.09375 1.703125 -0.1875 Z M 1.703125 -0.1875 "/></g></g><g transform="translate(80.808164, 277.347961)"><g><path d="M 3.140625 -7.765625 C 4.035156 -9.023438 4.695312 -9.898438 5.125 -10.390625 C 5.550781 -10.878906 6.023438 -11.285156 6.546875 -11.609375 C 6.753906 -11.742188 6.988281 -11.867188 7.25 -11.984375 C 7.519531 -12.109375 7.78125 -12.15625 8.03125 -12.125 C 8.3125 -12.070312 8.707031 -11.832031 9.21875 -11.40625 C 9.726562 -10.988281 9.804688 -10.601562 9.453125 -10.25 C 9.359375 -10.15625 9.242188 -10.070312 9.109375 -10 C 8.984375 -9.925781 8.863281 -9.851562 8.75 -9.78125 C 8.070312 -9.375 7.492188 -8.925781 7.015625 -8.4375 C 6.535156 -7.957031 6.066406 -7.457031 5.609375 -6.9375 C 5.929688 -6.71875 6.367188 -6.40625 6.921875 -6 C 7.472656 -5.59375 8.035156 -5.171875 8.609375 -4.734375 C 9.179688 -4.304688 9.703125 -3.898438 10.171875 -3.515625 C 10.640625 -3.140625 10.960938 -2.867188 11.140625 -2.703125 C 11.523438 -2.296875 11.425781 -1.832031 10.84375 -1.3125 C 10.257812 -0.789062 9.816406 -0.503906 9.515625 -0.453125 C 9.234375 -0.398438 8.878906 -0.523438 8.453125 -0.828125 C 8.035156 -1.128906 7.613281 -1.457031 7.1875 -1.8125 C 6.769531 -2.164062 6.347656 -2.546875 5.921875 -2.953125 C 5.503906 -3.359375 5.039062 -3.769531 4.53125 -4.1875 C 4.070312 -4.53125 3.734375 -4.726562 3.515625 -4.78125 C 3.847656 -3.425781 4.179688 -2.367188 4.515625 -1.609375 C 4.578125 -1.484375 4.640625 -1.347656 4.703125 -1.203125 C 4.773438 -1.066406 4.820312 -0.929688 4.84375 -0.796875 C 4.875 -0.535156 4.757812 -0.335938 4.5 -0.203125 C 4.25 -0.0664062 3.941406 0.0195312 3.578125 0.0625 C 3.222656 0.113281 2.9375 0.125 2.71875 0.09375 C 2.507812 0.0703125 2.328125 0.03125 2.171875 -0.03125 C 1.890625 -0.132812 1.664062 -0.316406 1.5 -0.578125 C 1.332031 -0.835938 1.195312 -1.09375 1.09375 -1.34375 C 0.894531 -1.820312 0.710938 -2.4375 0.546875 -3.1875 C 0.390625 -3.945312 0.257812 -4.734375 0.15625 -5.546875 C 0.0625 -6.359375 0.00390625 -7.882812 -0.015625 -10.125 C -0.046875 -12.363281 -0.0195312 -13.722656 0.0625 -14.203125 C 0.132812 -14.628906 0.234375 -14.972656 0.359375 -15.234375 C 0.460938 -15.453125 0.609375 -15.601562 0.796875 -15.6875 C 1.003906 -15.789062 1.191406 -15.859375 1.359375 -15.890625 C 1.535156 -15.921875 1.742188 -15.9375 1.984375 -15.9375 C 2.335938 -15.925781 2.617188 -15.863281 2.828125 -15.75 C 3.046875 -15.632812 3.148438 -15.367188 3.140625 -14.953125 C 3.097656 -14.410156 3.097656 -12.015625 3.140625 -7.765625 Z M 3.140625 -7.765625 "/></g></g><g transform="translate(92.010556, 277.347961)"><g><path d="M 0.609375 -9.765625 C 0.859375 -10.160156 1.078125 -10.441406 1.265625 -10.609375 C 1.460938 -10.785156 1.738281 -11.015625 2.09375 -11.296875 C 2.476562 -11.460938 2.863281 -11.351562 3.25 -10.96875 C 3.820312 -10.394531 4.300781 -9.582031 4.6875 -8.53125 C 5.070312 -7.488281 5.523438 -6.65625 6.046875 -6.03125 C 6.203125 -5.8125 6.375 -5.769531 6.5625 -5.90625 C 6.75 -6.039062 6.910156 -6.1875 7.046875 -6.34375 C 7.421875 -6.78125 7.785156 -7.390625 8.140625 -8.171875 C 8.503906 -8.960938 8.8125 -9.640625 9.0625 -10.203125 C 9.207031 -10.546875 9.367188 -10.789062 9.546875 -10.9375 C 9.734375 -11.09375 10.003906 -11.09375 10.359375 -10.9375 C 10.691406 -10.769531 10.96875 -10.554688 11.1875 -10.296875 C 11.414062 -10.046875 11.640625 -9.75 11.859375 -9.40625 C 12.097656 -9.03125 12.15625 -8.523438 12.03125 -7.890625 C 11.875 -7.085938 11.597656 -6.289062 11.203125 -5.5 C 10.816406 -4.707031 10.441406 -3.972656 10.078125 -3.296875 C 9.679688 -2.597656 9.269531 -1.925781 8.84375 -1.28125 C 8.425781 -0.644531 8.003906 -0.015625 7.578125 0.609375 C 7.160156 1.171875 6.75 1.726562 6.34375 2.28125 C 5.9375 2.84375 5.492188 3.34375 5.015625 3.78125 C 4.503906 4.257812 4.03125 4.566406 3.59375 4.703125 C 3.269531 4.804688 2.882812 4.738281 2.4375 4.5 C 2 4.257812 1.691406 4.003906 1.515625 3.734375 C 1.335938 3.460938 1.160156 3.171875 0.984375 2.859375 C 0.816406 2.554688 0.828125 2.265625 1.015625 1.984375 C 1.160156 1.765625 1.378906 1.539062 1.671875 1.3125 C 1.960938 1.082031 2.210938 0.835938 2.421875 0.578125 C 2.609375 0.335938 2.785156 0.144531 2.953125 0 C 3.128906 -0.15625 3.367188 -0.488281 3.671875 -1 C 4.253906 -1.800781 4.242188 -2.617188 3.640625 -3.453125 C 3.398438 -3.867188 3.0625 -4.375 2.625 -4.96875 C 2.1875 -5.570312 1.832031 -6.0625 1.5625 -6.4375 C 1.375 -6.707031 1.1875 -6.988281 1 -7.28125 C 0.820312 -7.570312 0.671875 -7.878906 0.546875 -8.203125 C 0.410156 -8.492188 0.335938 -8.753906 0.328125 -8.984375 C 0.328125 -9.210938 0.421875 -9.472656 0.609375 -9.765625 Z M 0.609375 -9.765625 "/></g></g><g transform="translate(104.117489, 277.347961)"><g><path d="M 4.6875 -11.90625 C 5.925781 -13.78125 6.835938 -15.082031 7.421875 -15.8125 C 8.015625 -16.550781 8.664062 -17.160156 9.375 -17.640625 C 9.675781 -17.847656 10.007812 -18.039062 10.375 -18.21875 C 10.75 -18.40625 11.101562 -18.46875 11.4375 -18.40625 C 11.832031 -18.34375 12.390625 -17.992188 13.109375 -17.359375 C 13.828125 -16.734375 13.929688 -16.160156 13.421875 -15.640625 C 13.285156 -15.492188 13.128906 -15.363281 12.953125 -15.25 C 12.773438 -15.132812 12.609375 -15.03125 12.453125 -14.9375 C 11.515625 -14.320312 10.710938 -13.65625 10.046875 -12.9375 C 9.390625 -12.21875 8.738281 -11.46875 8.09375 -10.6875 C 8.550781 -10.351562 9.160156 -9.878906 9.921875 -9.265625 C 10.679688 -8.660156 11.453125 -8.035156 12.234375 -7.390625 C 13.023438 -6.753906 13.75 -6.148438 14.40625 -5.578125 C 15.070312 -5.015625 15.519531 -4.609375 15.75 -4.359375 C 16.28125 -3.742188 16.140625 -3.050781 15.328125 -2.28125 C 14.523438 -1.507812 13.921875 -1.085938 13.515625 -1.015625 C 13.117188 -0.941406 12.628906 -1.128906 12.046875 -1.578125 C 11.460938 -2.023438 10.878906 -2.507812 10.296875 -3.03125 C 9.722656 -3.550781 9.140625 -4.117188 8.546875 -4.734375 C 7.960938 -5.347656 7.316406 -5.960938 6.609375 -6.578125 C 5.972656 -7.097656 5.503906 -7.394531 5.203125 -7.46875 C 5.648438 -5.445312 6.113281 -3.867188 6.59375 -2.734375 C 6.664062 -2.546875 6.75 -2.347656 6.84375 -2.140625 C 6.945312 -1.929688 7.007812 -1.722656 7.03125 -1.515625 C 7.070312 -1.140625 6.914062 -0.847656 6.5625 -0.640625 C 6.207031 -0.441406 5.78125 -0.304688 5.28125 -0.234375 C 4.78125 -0.160156 4.382812 -0.140625 4.09375 -0.171875 C 3.800781 -0.203125 3.550781 -0.269531 3.34375 -0.375 C 2.945312 -0.53125 2.632812 -0.804688 2.40625 -1.203125 C 2.175781 -1.597656 1.992188 -1.976562 1.859375 -2.34375 C 1.566406 -3.050781 1.304688 -3.96875 1.078125 -5.09375 C 0.859375 -6.226562 0.679688 -7.398438 0.546875 -8.609375 C 0.410156 -9.816406 0.328125 -10.984375 0.296875 -12.109375 C 0.265625 -13.242188 0.300781 -14.164062 0.40625 -14.875 C 0.507812 -15.519531 0.648438 -16.035156 0.828125 -16.421875 C 0.972656 -16.722656 1.171875 -16.945312 1.421875 -17.09375 C 1.710938 -17.25 1.976562 -17.347656 2.21875 -17.390625 C 2.457031 -17.429688 2.75 -17.453125 3.09375 -17.453125 C 3.582031 -17.441406 3.972656 -17.347656 4.265625 -17.171875 C 4.554688 -17.003906 4.691406 -16.613281 4.671875 -16 C 4.617188 -15.1875 4.625 -13.820312 4.6875 -11.90625 Z M 4.6875 -11.90625 "/></g></g><g transform="translate(120.273982, 277.347961)"><g><path d="M 0.390625 -3.421875 C 0.285156 -4.804688 0.304688 -6.210938 0.453125 -7.640625 C 0.597656 -9.066406 0.820312 -10.046875 1.125 -10.578125 C 1.4375 -11.117188 1.75 -11.375 2.0625 -11.34375 C 2.363281 -11.320312 2.65625 -11.289062 2.9375 -11.25 C 3.1875 -11.1875 3.382812 -11.132812 3.53125 -11.09375 C 3.570312 -11.082031 3.617188 -11.054688 3.671875 -11.015625 C 3.703125 -11.003906 3.738281 -10.96875 3.78125 -10.90625 C 3.78125 -10.90625 3.820312 -10.863281 3.90625 -10.78125 C 3.925781 -10.757812 3.960938 -10.710938 4.015625 -10.640625 C 4.035156 -10.609375 4.054688 -10.554688 4.078125 -10.484375 C 4.097656 -10.390625 4.117188 -10.296875 4.140625 -10.203125 C 4.140625 -10.179688 4.148438 -10.09375 4.171875 -9.9375 C 4.179688 -9.820312 4.125 -8.941406 4 -7.296875 C 3.875 -5.648438 3.953125 -3.738281 4.234375 -1.5625 C 4.222656 -1.320312 4.191406 -1.09375 4.140625 -0.875 C 4.097656 -0.65625 4.054688 -0.503906 4.015625 -0.421875 C 3.921875 -0.285156 3.75 -0.1875 3.5 -0.125 C 3.375 -0.09375 3.238281 -0.0703125 3.09375 -0.0625 C 2.945312 -0.0625 2.800781 -0.0664062 2.65625 -0.078125 C 2.375 -0.0859375 2.078125 -0.125 1.765625 -0.1875 C 1.535156 -0.21875 1.332031 -0.265625 1.15625 -0.328125 C 1.101562 -0.359375 1.066406 -0.382812 1.046875 -0.40625 C 1.015625 -0.414062 0.972656 -0.453125 0.921875 -0.515625 C 0.890625 -0.535156 0.851562 -0.578125 0.8125 -0.640625 C 0.8125 -0.628906 0.773438 -0.675781 0.703125 -0.78125 C 0.679688 -0.800781 0.660156 -0.859375 0.640625 -0.953125 C 0.617188 -1.015625 0.597656 -1.101562 0.578125 -1.21875 C 0.566406 -1.3125 0.503906 -2.046875 0.390625 -3.421875 Z M 2.453125 -16.03125 C 2.953125 -16.03125 3.375 -15.863281 3.71875 -15.53125 C 4.070312 -15.195312 4.25 -14.789062 4.25 -14.3125 C 4.25 -13.832031 4.070312 -13.421875 3.71875 -13.078125 C 3.375 -12.742188 2.953125 -12.578125 2.453125 -12.578125 C 1.960938 -12.578125 1.546875 -12.742188 1.203125 -13.078125 C 0.859375 -13.421875 0.6875 -13.832031 0.6875 -14.3125 C 0.6875 -14.789062 0.859375 -15.195312 1.203125 -15.53125 C 1.546875 -15.863281 1.960938 -16.03125 2.453125 -16.03125 Z M 2.453125 -16.03125 "/></g></g><g transform="translate(124.963679, 277.347961)"><g><path d="M 2.453125 -11.25 C 2.492188 -12.082031 2.566406 -12.769531 2.671875 -13.3125 C 2.785156 -13.882812 2.914062 -14.328125 3.0625 -14.640625 C 3.1875 -14.910156 3.332031 -15.09375 3.5 -15.1875 C 3.71875 -15.289062 4.03125 -15.359375 4.4375 -15.390625 C 4.84375 -15.429688 5.164062 -15.441406 5.40625 -15.421875 C 5.726562 -15.367188 5.984375 -15.253906 6.171875 -15.078125 C 6.359375 -14.898438 6.425781 -14.539062 6.375 -14 C 6.28125 -13.132812 6.210938 -12.226562 6.171875 -11.28125 C 6.390625 -11.269531 6.609375 -11.257812 6.828125 -11.25 C 7.191406 -11.207031 7.554688 -11.128906 7.921875 -11.015625 C 8.285156 -10.921875 8.578125 -10.78125 8.796875 -10.59375 C 8.953125 -10.445312 9.070312 -10.21875 9.15625 -9.90625 C 9.226562 -9.625 9.253906 -9.304688 9.234375 -8.953125 C 9.210938 -8.609375 9.160156 -8.328125 9.078125 -8.109375 C 8.972656 -7.867188 8.84375 -7.753906 8.6875 -7.765625 C 8.613281 -7.765625 8.535156 -7.78125 8.453125 -7.8125 C 8.378906 -7.820312 8.285156 -7.847656 8.171875 -7.890625 C 7.609375 -8.078125 6.976562 -8.1875 6.28125 -8.21875 L 6.140625 -8.21875 C 6.140625 -8.125 6.144531 -8.035156 6.15625 -7.953125 C 6.207031 -5.742188 6.425781 -3.796875 6.8125 -2.109375 C 6.851562 -1.929688 6.898438 -1.75 6.953125 -1.5625 C 7.003906 -1.375 7.035156 -1.1875 7.046875 -1 C 7.046875 -0.65625 6.921875 -0.410156 6.671875 -0.265625 C 6.421875 -0.117188 6.125 -0.0351562 5.78125 -0.015625 C 5.445312 0.00390625 5.050781 -0.015625 4.59375 -0.078125 C 4.132812 -0.140625 3.835938 -0.21875 3.703125 -0.3125 C 3.453125 -0.488281 3.257812 -0.753906 3.125 -1.109375 C 3 -1.472656 2.90625 -1.828125 2.84375 -2.171875 C 2.695312 -2.816406 2.582031 -3.644531 2.5 -4.65625 C 2.425781 -5.664062 2.382812 -6.710938 2.375 -7.796875 C 2.363281 -7.972656 2.359375 -8.148438 2.359375 -8.328125 L 2.296875 -8.328125 C 1.742188 -8.316406 1.207031 -8.265625 0.6875 -8.171875 C 0.539062 -8.140625 0.453125 -8.125 0.421875 -8.125 C 0.335938 -8.125 0.257812 -8.140625 0.1875 -8.171875 C 0.125 -8.191406 0.0664062 -8.242188 0.015625 -8.328125 C -0.0234375 -8.378906 -0.0625 -8.46875 -0.09375 -8.59375 C -0.15625 -8.832031 -0.1875 -9.09375 -0.1875 -9.375 C -0.1875 -9.664062 -0.15625 -9.929688 -0.09375 -10.171875 C -0.0390625 -10.429688 0.132812 -10.632812 0.4375 -10.78125 C 0.601562 -10.863281 0.789062 -10.941406 1 -11.015625 C 1.144531 -11.054688 1.363281 -11.101562 1.65625 -11.15625 C 1.78125 -11.175781 1.992188 -11.207031 2.296875 -11.25 Z M 2.453125 -11.25 "/></g></g><g transform="translate(134.412653, 277.347961)"><g><path d="M 2.453125 -11.25 C 2.492188 -12.082031 2.566406 -12.769531 2.671875 -13.3125 C 2.785156 -13.882812 2.914062 -14.328125 3.0625 -14.640625 C 3.1875 -14.910156 3.332031 -15.09375 3.5 -15.1875 C 3.71875 -15.289062 4.03125 -15.359375 4.4375 -15.390625 C 4.84375 -15.429688 5.164062 -15.441406 5.40625 -15.421875 C 5.726562 -15.367188 5.984375 -15.253906 6.171875 -15.078125 C 6.359375 -14.898438 6.425781 -14.539062 6.375 -14 C 6.28125 -13.132812 6.210938 -12.226562 6.171875 -11.28125 C 6.390625 -11.269531 6.609375 -11.257812 6.828125 -11.25 C 7.191406 -11.207031 7.554688 -11.128906 7.921875 -11.015625 C 8.285156 -10.921875 8.578125 -10.78125 8.796875 -10.59375 C 8.953125 -10.445312 9.070312 -10.21875 9.15625 -9.90625 C 9.226562 -9.625 9.253906 -9.304688 9.234375 -8.953125 C 9.210938 -8.609375 9.160156 -8.328125 9.078125 -8.109375 C 8.972656 -7.867188 8.84375 -7.753906 8.6875 -7.765625 C 8.613281 -7.765625 8.535156 -7.78125 8.453125 -7.8125 C 8.378906 -7.820312 8.285156 -7.847656 8.171875 -7.890625 C 7.609375 -8.078125 6.976562 -8.1875 6.28125 -8.21875 L 6.140625 -8.21875 C 6.140625 -8.125 6.144531 -8.035156 6.15625 -7.953125 C 6.207031 -5.742188 6.425781 -3.796875 6.8125 -2.109375 C 6.851562 -1.929688 6.898438 -1.75 6.953125 -1.5625 C 7.003906 -1.375 7.035156 -1.1875 7.046875 -1 C 7.046875 -0.65625 6.921875 -0.410156 6.671875 -0.265625 C 6.421875 -0.117188 6.125 -0.0351562 5.78125 -0.015625 C 5.445312 0.00390625 5.050781 -0.015625 4.59375 -0.078125 C 4.132812 -0.140625 3.835938 -0.21875 3.703125 -0.3125 C 3.453125 -0.488281 3.257812 -0.753906 3.125 -1.109375 C 3 -1.472656 2.90625 -1.828125 2.84375 -2.171875 C 2.695312 -2.816406 2.582031 -3.644531 2.5 -4.65625 C 2.425781 -5.664062 2.382812 -6.710938 2.375 -7.796875 C 2.363281 -7.972656 2.359375 -8.148438 2.359375 -8.328125 L 2.296875 -8.328125 C 1.742188 -8.316406 1.207031 -8.265625 0.6875 -8.171875 C 0.539062 -8.140625 0.453125 -8.125 0.421875 -8.125 C 0.335938 -8.125 0.257812 -8.140625 0.1875 -8.171875 C 0.125 -8.191406 0.0664062 -8.242188 0.015625 -8.328125 C -0.0234375 -8.378906 -0.0625 -8.46875 -0.09375 -8.59375 C -0.15625 -8.832031 -0.1875 -9.09375 -0.1875 -9.375 C -0.1875 -9.664062 -0.15625 -9.929688 -0.09375 -10.171875 C -0.0390625 -10.429688 0.132812 -10.632812 0.4375 -10.78125 C 0.601562 -10.863281 0.789062 -10.941406 1 -11.015625 C 1.144531 -11.054688 1.363281 -11.101562 1.65625 -11.15625 C 1.78125 -11.175781 1.992188 -11.207031 2.296875 -11.25 Z M 2.453125 -11.25 "/></g></g><g transform="translate(143.861627, 277.347961)"><g><path d="M 0.609375 -9.765625 C 0.859375 -10.160156 1.078125 -10.441406 1.265625 -10.609375 C 1.460938 -10.785156 1.738281 -11.015625 2.09375 -11.296875 C 2.476562 -11.460938 2.863281 -11.351562 3.25 -10.96875 C 3.820312 -10.394531 4.300781 -9.582031 4.6875 -8.53125 C 5.070312 -7.488281 5.523438 -6.65625 6.046875 -6.03125 C 6.203125 -5.8125 6.375 -5.769531 6.5625 -5.90625 C 6.75 -6.039062 6.910156 -6.1875 7.046875 -6.34375 C 7.421875 -6.78125 7.785156 -7.390625 8.140625 -8.171875 C 8.503906 -8.960938 8.8125 -9.640625 9.0625 -10.203125 C 9.207031 -10.546875 9.367188 -10.789062 9.546875 -10.9375 C 9.734375 -11.09375 10.003906 -11.09375 10.359375 -10.9375 C 10.691406 -10.769531 10.96875 -10.554688 11.1875 -10.296875 C 11.414062 -10.046875 11.640625 -9.75 11.859375 -9.40625 C 12.097656 -9.03125 12.15625 -8.523438 12.03125 -7.890625 C 11.875 -7.085938 11.597656 -6.289062 11.203125 -5.5 C 10.816406 -4.707031 10.441406 -3.972656 10.078125 -3.296875 C 9.679688 -2.597656 9.269531 -1.925781 8.84375 -1.28125 C 8.425781 -0.644531 8.003906 -0.015625 7.578125 0.609375 C 7.160156 1.171875 6.75 1.726562 6.34375 2.28125 C 5.9375 2.84375 5.492188 3.34375 5.015625 3.78125 C 4.503906 4.257812 4.03125 4.566406 3.59375 4.703125 C 3.269531 4.804688 2.882812 4.738281 2.4375 4.5 C 2 4.257812 1.691406 4.003906 1.515625 3.734375 C 1.335938 3.460938 1.160156 3.171875 0.984375 2.859375 C 0.816406 2.554688 0.828125 2.265625 1.015625 1.984375 C 1.160156 1.765625 1.378906 1.539062 1.671875 1.3125 C 1.960938 1.082031 2.210938 0.835938 2.421875 0.578125 C 2.609375 0.335938 2.785156 0.144531 2.953125 0 C 3.128906 -0.15625 3.367188 -0.488281 3.671875 -1 C 4.253906 -1.800781 4.242188 -2.617188 3.640625 -3.453125 C 3.398438 -3.867188 3.0625 -4.375 2.625 -4.96875 C 2.1875 -5.570312 1.832031 -6.0625 1.5625 -6.4375 C 1.375 -6.707031 1.1875 -6.988281 1 -7.28125 C 0.820312 -7.570312 0.671875 -7.878906 0.546875 -8.203125 C 0.410156 -8.492188 0.335938 -8.753906 0.328125 -8.984375 C 0.328125 -9.210938 0.421875 -9.472656 0.609375 -9.765625 Z M 0.609375 -9.765625 "/></g></g><g transform="translate(155.96856, 277.347961)"><g/></g><g transform="translate(163.037895, 277.347961)"><g><path d="M 13.625 -17.09375 C 14.351562 -16.925781 14.929688 -16.71875 15.359375 -16.46875 C 15.859375 -16.15625 16.109375 -15.789062 16.109375 -15.375 C 16.109375 -14.894531 16.066406 -14.535156 15.984375 -14.296875 C 15.898438 -14.054688 15.738281 -13.722656 15.5 -13.296875 C 15.144531 -12.691406 14.804688 -12.390625 14.484375 -12.390625 C 14.191406 -12.390625 13.898438 -12.4375 13.609375 -12.53125 C 13.316406 -12.625 13.039062 -12.71875 12.78125 -12.8125 C 12.207031 -13 11.425781 -13.078125 10.4375 -13.046875 C 9.457031 -13.015625 8.535156 -12.800781 7.671875 -12.40625 C 6.816406 -12.019531 6.082031 -11.414062 5.46875 -10.59375 C 4.851562 -9.769531 4.804688 -8.398438 5.328125 -6.484375 C 5.648438 -5.359375 6.363281 -4.503906 7.46875 -3.921875 C 8.582031 -3.335938 10.164062 -3.28125 12.21875 -3.75 C 10.9375 -4.15625 10.21875 -4.410156 10.0625 -4.515625 C 9.84375 -4.660156 9.675781 -4.820312 9.5625 -5 C 9.457031 -5.132812 9.390625 -5.296875 9.359375 -5.484375 C 9.265625 -5.984375 9.300781 -6.503906 9.46875 -7.046875 C 9.582031 -7.484375 9.984375 -7.648438 10.671875 -7.546875 C 11.367188 -7.441406 12.128906 -7.222656 12.953125 -6.890625 C 13.773438 -6.566406 14.554688 -6.203125 15.296875 -5.796875 C 16.046875 -5.398438 16.539062 -5.128906 16.78125 -4.984375 C 17.363281 -4.585938 17.304688 -3.960938 16.609375 -3.109375 C 15.910156 -2.253906 15.359375 -1.675781 14.953125 -1.375 C 14.660156 -1.175781 14.367188 -1 14.078125 -0.84375 C 13.304688 -0.4375 12.53125 -0.195312 11.75 -0.125 C 10.96875 -0.0625 10.1875 -0.0664062 9.40625 -0.140625 C 8.375 -0.234375 7.382812 -0.46875 6.4375 -0.84375 C 5.675781 -1.144531 4.953125 -1.539062 4.265625 -2.03125 C 3.585938 -2.519531 2.988281 -3.125 2.46875 -3.84375 C 1.488281 -5.144531 0.835938 -6.597656 0.515625 -8.203125 C -0.015625 -10.679688 0.582031 -12.75 2.3125 -14.40625 C 3.175781 -15.25 4.148438 -15.878906 5.234375 -16.296875 C 6.328125 -16.710938 7.382812 -17.003906 8.40625 -17.171875 C 9.257812 -17.304688 10.128906 -17.375 11.015625 -17.375 C 11.910156 -17.375 12.78125 -17.28125 13.625 -17.09375 Z M 13.625 -17.09375 "/></g></g><g transform="translate(180.405082, 277.347961)"><g><path d="M 0.390625 -3.421875 C 0.285156 -4.804688 0.304688 -6.210938 0.453125 -7.640625 C 0.597656 -9.066406 0.820312 -10.046875 1.125 -10.578125 C 1.4375 -11.117188 1.75 -11.375 2.0625 -11.34375 C 2.363281 -11.320312 2.65625 -11.289062 2.9375 -11.25 C 3.1875 -11.1875 3.382812 -11.132812 3.53125 -11.09375 C 3.570312 -11.082031 3.617188 -11.054688 3.671875 -11.015625 C 3.703125 -11.003906 3.738281 -10.96875 3.78125 -10.90625 C 3.78125 -10.90625 3.820312 -10.863281 3.90625 -10.78125 C 3.925781 -10.757812 3.960938 -10.710938 4.015625 -10.640625 C 4.035156 -10.609375 4.054688 -10.554688 4.078125 -10.484375 C 4.097656 -10.390625 4.117188 -10.296875 4.140625 -10.203125 C 4.140625 -10.179688 4.148438 -10.09375 4.171875 -9.9375 C 4.179688 -9.820312 4.125 -8.941406 4 -7.296875 C 3.875 -5.648438 3.953125 -3.738281 4.234375 -1.5625 C 4.222656 -1.320312 4.191406 -1.09375 4.140625 -0.875 C 4.097656 -0.65625 4.054688 -0.503906 4.015625 -0.421875 C 3.921875 -0.285156 3.75 -0.1875 3.5 -0.125 C 3.375 -0.09375 3.238281 -0.0703125 3.09375 -0.0625 C 2.945312 -0.0625 2.800781 -0.0664062 2.65625 -0.078125 C 2.375 -0.0859375 2.078125 -0.125 1.765625 -0.1875 C 1.535156 -0.21875 1.332031 -0.265625 1.15625 -0.328125 C 1.101562 -0.359375 1.066406 -0.382812 1.046875 -0.40625 C 1.015625 -0.414062 0.972656 -0.453125 0.921875 -0.515625 C 0.890625 -0.535156 0.851562 -0.578125 0.8125 -0.640625 C 0.8125 -0.628906 0.773438 -0.675781 0.703125 -0.78125 C 0.679688 -0.800781 0.660156 -0.859375 0.640625 -0.953125 C 0.617188 -1.015625 0.597656 -1.101562 0.578125 -1.21875 C 0.566406 -1.3125 0.503906 -2.046875 0.390625 -3.421875 Z M 2.453125 -16.03125 C 2.953125 -16.03125 3.375 -15.863281 3.71875 -15.53125 C 4.070312 -15.195312 4.25 -14.789062 4.25 -14.3125 C 4.25 -13.832031 4.070312 -13.421875 3.71875 -13.078125 C 3.375 -12.742188 2.953125 -12.578125 2.453125 -12.578125 C 1.960938 -12.578125 1.546875 -12.742188 1.203125 -13.078125 C 0.859375 -13.421875 0.6875 -13.832031 0.6875 -14.3125 C 0.6875 -14.789062 0.859375 -15.195312 1.203125 -15.53125 C 1.546875 -15.863281 1.960938 -16.03125 2.453125 -16.03125 Z M 2.453125 -16.03125 "/></g></g><g transform="translate(185.094778, 277.347961)"><g><path d="M 1.96875 -0.1875 C 1.820312 -0.238281 1.707031 -0.289062 1.625 -0.34375 C 1.351562 -0.539062 1.15625 -0.828125 1.03125 -1.203125 C 0.914062 -1.578125 0.835938 -1.945312 0.796875 -2.3125 C 0.691406 -3 0.632812 -3.875 0.625 -4.9375 C 0.613281 -6.007812 0.644531 -7.113281 0.71875 -8.25 C 0.800781 -9.382812 1.03125 -10.175781 1.40625 -10.625 C 1.5625 -10.90625 1.75 -11.097656 1.96875 -11.203125 C 2.21875 -11.328125 2.507812 -11.398438 2.84375 -11.421875 C 3.175781 -11.441406 3.472656 -11.4375 3.734375 -11.40625 C 4.109375 -11.363281 4.394531 -11.242188 4.59375 -11.046875 C 4.800781 -10.847656 4.859375 -10.492188 4.765625 -9.984375 C 5.535156 -10.566406 6.523438 -10.738281 7.734375 -10.5 C 8.953125 -10.269531 9.476562 -9.6875 9.3125 -8.75 C 9.144531 -7.8125 8.425781 -7.445312 7.15625 -7.65625 C 5.882812 -7.875 5.140625 -7.609375 4.921875 -6.859375 C 4.742188 -6.253906 4.660156 -5.484375 4.671875 -4.546875 C 4.671875 -4.523438 4.671875 -4.492188 4.671875 -4.453125 C 4.734375 -3.671875 4.820312 -2.929688 4.9375 -2.234375 C 4.96875 -2.066406 5.023438 -1.820312 5.109375 -1.5 C 5.203125 -1.125 5.195312 -0.875 5.09375 -0.75 C 5.0625 -0.71875 5.035156 -0.691406 5.015625 -0.671875 C 4.929688 -0.492188 4.789062 -0.351562 4.59375 -0.25 C 4.289062 -0.09375 3.945312 -0.00390625 3.5625 0.015625 C 3.269531 0.0234375 2.988281 0.0078125 2.71875 -0.03125 C 2.582031 -0.0195312 2.457031 -0.0195312 2.34375 -0.03125 C 2.195312 -0.0390625 2.070312 -0.09375 1.96875 -0.1875 Z M 1.96875 -0.1875 "/></g></g><g transform="translate(194.321096, 277.347961)"><g><path d="M 3.640625 -14.578125 C 3.453125 -12.671875 3.382812 -10.570312 3.4375 -8.28125 C 3.488281 -6 3.703125 -3.984375 4.078125 -2.234375 C 4.109375 -2.046875 4.144531 -1.847656 4.1875 -1.640625 C 4.238281 -1.441406 4.269531 -1.25 4.28125 -1.0625 C 4.28125 -0.71875 4.160156 -0.46875 3.921875 -0.3125 C 3.679688 -0.15625 3.398438 -0.0664062 3.078125 -0.046875 C 2.765625 -0.0234375 2.457031 -0.0507812 2.15625 -0.125 C 1.851562 -0.195312 1.632812 -0.289062 1.5 -0.40625 C 1.257812 -0.59375 1.078125 -0.867188 0.953125 -1.234375 C 0.835938 -1.609375 0.75 -1.972656 0.6875 -2.328125 C 0.550781 -3.003906 0.445312 -3.867188 0.375 -4.921875 C 0.3125 -5.972656 0.269531 -7.054688 0.25 -8.171875 C 0.238281 -9.296875 0.253906 -10.375 0.296875 -11.40625 C 0.347656 -12.4375 0.429688 -13.269531 0.546875 -13.90625 C 0.640625 -14.5 0.753906 -14.960938 0.890625 -15.296875 C 1.003906 -15.578125 1.144531 -15.765625 1.3125 -15.859375 C 1.507812 -15.972656 1.738281 -16.039062 2 -16.0625 C 2.269531 -16.082031 2.515625 -16.078125 2.734375 -16.046875 C 3.035156 -16.003906 3.273438 -15.890625 3.453125 -15.703125 C 3.640625 -15.515625 3.703125 -15.140625 3.640625 -14.578125 Z M 3.640625 -14.578125 "/></g></g><g transform="translate(198.802053, 277.347961)"><g><path d="M 7.8125 -6.8125 L 8.640625 -6.234375 C 8.671875 -6.210938 8.695312 -6.195312 8.71875 -6.1875 C 9.382812 -5.78125 9.847656 -5.296875 10.109375 -4.734375 C 10.367188 -4.179688 10.367188 -3.554688 10.109375 -2.859375 C 9.847656 -2.179688 9.375 -1.597656 8.6875 -1.109375 C 8.226562 -0.796875 7.675781 -0.570312 7.03125 -0.4375 C 6.394531 -0.300781 5.734375 -0.253906 5.046875 -0.296875 C 5.046875 -0.285156 5.046875 -0.273438 5.046875 -0.265625 L 5.03125 -0.265625 C 4.175781 -0.316406 3.769531 -0.378906 3.8125 -0.453125 C 3.507812 -0.515625 3.242188 -0.578125 3.015625 -0.640625 L 1.46875 -1.359375 C 1.164062 -1.546875 0.90625 -1.757812 0.6875 -2 C 0.675781 -2.019531 0.664062 -2.03125 0.65625 -2.03125 C 0.644531 -2.039062 0.640625 -2.054688 0.640625 -2.078125 C 0.617188 -2.085938 0.601562 -2.09375 0.59375 -2.09375 C 0.59375 -2.101562 0.585938 -2.113281 0.578125 -2.125 C 0.460938 -2.269531 0.398438 -2.421875 0.390625 -2.578125 L 0.390625 -2.640625 C 0.398438 -2.847656 0.410156 -3.097656 0.421875 -3.390625 C 0.441406 -3.679688 0.492188 -3.921875 0.578125 -4.109375 C 0.660156 -4.316406 0.785156 -4.378906 0.953125 -4.296875 C 1.117188 -4.222656 1.257812 -4.132812 1.375 -4.03125 C 1.382812 -4.019531 1.394531 -4.007812 1.40625 -4 C 1.425781 -4 1.445312 -3.992188 1.46875 -3.984375 C 1.738281 -3.734375 2.054688 -3.519531 2.421875 -3.34375 C 3.234375 -2.945312 4.222656 -2.757812 5.390625 -2.78125 C 5.421875 -2.800781 5.476562 -2.832031 5.5625 -2.875 C 5.8125 -3.03125 5.867188 -3.234375 5.734375 -3.484375 C 5.722656 -3.492188 5.710938 -3.503906 5.703125 -3.515625 C 5.691406 -3.535156 5.6875 -3.550781 5.6875 -3.5625 C 5.613281 -3.65625 4.925781 -4.0625 3.625 -4.78125 C 2.363281 -5.644531 1.644531 -6.21875 1.46875 -6.5 C 1.019531 -7.164062 0.882812 -7.828125 1.0625 -8.484375 C 1.25 -9.148438 1.640625 -9.734375 2.234375 -10.234375 C 3.304688 -11.097656 5.015625 -11.410156 7.359375 -11.171875 C 7.648438 -11.085938 7.90625 -11.003906 8.125 -10.921875 C 8.207031 -10.890625 8.328125 -10.832031 8.484375 -10.75 C 8.640625 -10.664062 8.820312 -10.570312 9.03125 -10.46875 C 9.300781 -10.351562 9.410156 -10.234375 9.359375 -10.109375 C 9.367188 -10.085938 9.382812 -10.0625 9.40625 -10.03125 C 9.539062 -9.851562 9.648438 -9.601562 9.734375 -9.28125 C 9.816406 -8.96875 9.753906 -8.71875 9.546875 -8.53125 C 9.515625 -8.507812 9.492188 -8.492188 9.484375 -8.484375 C 9.304688 -8.347656 9.050781 -8.320312 8.71875 -8.40625 C 8.363281 -8.507812 8.015625 -8.59375 7.671875 -8.65625 L 7.078125 -8.796875 C 6.335938 -8.890625 5.796875 -8.9375 5.453125 -8.9375 C 4.765625 -8.707031 4.929688 -8.257812 5.953125 -7.59375 C 6.035156 -7.519531 6.65625 -7.257812 7.8125 -6.8125 Z M 7.8125 -6.8125 "/></g></g></g></svg>