<svg xmlns="http://www.w3.org/2000/svg" xmlns:xlink="http://www.w3.org/1999/xlink" width="500" zoomAndPan="magnify" viewBox="0 0 375 270.749989" height="361" preserveAspectRatio="xMidYMid meet" version="1.0"><defs><g/><clipPath id="3b93793cbc"><path d="M 0.171875 90 L 111 90 L 111 218 L 0.171875 218 Z M 0.171875 90 " clip-rule="nonzero"/></clipPath></defs><path fill="#ffda02" d="M 69.859375 49.171875 C 67.941406 50.621094 68.523438 52.589844 68.753906 54.503906 C 69.683594 56.882812 71.367188 59.082031 70.265625 61.867188 C 70.378906 62.734375 70.496094 63.664062 70.613281 64.53125 C 72.933594 69.34375 70.902344 75.023438 73.570312 79.835938 C 74.324219 81.226562 74.382812 82.734375 76.355469 81.34375 C 80.59375 78.445312 86.277344 76.417969 88.539062 72.417969 C 90.222656 69.460938 85.351562 64.9375 83.144531 61.460938 C 79.894531 56.359375 76.238281 51.140625 69.859375 49.171875 Z M 69.859375 49.171875 " fill-opacity="1" fill-rule="nonzero"/><path fill="#ffda02" d="M 204.644531 42.15625 C 204.121094 39.257812 203.65625 36.359375 201.683594 34.039062 C 197.332031 41.171875 193.503906 48.535156 190.429688 56.359375 C 189.382812 59.027344 186.832031 61.808594 187.238281 64.183594 C 187.757812 67.027344 191.996094 65.519531 194.316406 66.792969 C 195.59375 67.488281 197.042969 67.894531 198.144531 68.707031 C 202.148438 71.722656 203.367188 69.460938 203.890625 65.808594 C 203.425781 64.53125 203.367188 63.257812 204.003906 61.980469 C 204.238281 55.375 204.46875 48.765625 204.644531 42.15625 Z M 204.644531 42.15625 " fill-opacity="1" fill-rule="nonzero"/><path fill="#fbfbfb" d="M 368.324219 166.5 C 367.976562 140.414062 358.402344 117.980469 340.53125 99.199219 C 328.636719 86.734375 313.492188 81.574219 296.320312 83.140625 C 293.417969 83.429688 290.921875 82.039062 287.964844 82.445312 C 272.820312 84.417969 258.140625 87.953125 244.738281 95.605469 C 243.808594 97.402344 242.300781 98.445312 240.386719 98.964844 L 240.039062 99.371094 C 234.699219 104.53125 239.28125 108.820312 241.660156 112.878906 C 249.554688 126.210938 253.09375 140.125 248.160156 155.3125 C 245.78125 162.558594 242.300781 169.109375 235.917969 174.039062 C 233.769531 175.660156 229.710938 177.515625 231.277344 182.152344 C 231.796875 183.777344 229.824219 184.296875 228.257812 184.414062 C 225.359375 184.585938 222.515625 184.761719 218.976562 184.992188 C 221.992188 178.847656 227.214844 175.371094 231.449219 171.253906 C 248.449219 154.445312 247.636719 133.285156 237.019531 114.792969 C 234.816406 110.910156 232.496094 107.082031 230.230469 103.257812 C 228.085938 101.226562 227.738281 98.269531 226.402344 95.777344 C 224.835938 95.371094 225.125 94.039062 225.007812 92.878906 C 224.601562 92.820312 224.371094 92.589844 224.3125 92.183594 C 220.714844 90.734375 222.921875 87.835938 222.628906 85.519531 C 222.457031 84.648438 222.28125 83.835938 222.109375 82.96875 C 220.308594 78.96875 221.703125 74.734375 221.121094 70.621094 C 220.078125 68.648438 220.65625 66.503906 220.601562 64.417969 C 218.625 61.230469 220.65625 57.75 219.902344 54.503906 C 219.730469 53.285156 219.554688 52.011719 219.382812 50.792969 C 218.394531 48.824219 217.988281 46.734375 218.742188 44.589844 C 217.640625 41.34375 218.105469 38.039062 217.988281 34.738281 C 217.640625 32.300781 215.726562 30.042969 216.828125 27.375 C 217.003906 26.445312 217.175781 25.519531 217.410156 24.59375 C 216.886719 23.839844 216.363281 23.085938 215.785156 22.332031 C 213.867188 20.011719 213.519531 17.113281 212.59375 14.445312 C 211.316406 12.128906 209.574219 10.332031 207.136719 9.171875 C 204.46875 7.316406 201.972656 9.867188 199.304688 9.519531 C 198.898438 9.289062 198.609375 9.054688 198.320312 8.882812 C 197.214844 10.214844 196.230469 11.605469 195.300781 12.996094 C 195.1875 13.289062 195.011719 13.636719 194.78125 13.867188 C 190.253906 25.402344 183.929688 36.011719 177.316406 46.386719 C 172.789062 53.460938 168.902344 60.9375 164.144531 67.953125 C 161.242188 72.242188 158.921875 73.519531 154.339844 71.605469 C 152.886719 70.96875 151.089844 71.140625 149.464844 70.910156 C 147.78125 70.910156 146.097656 70.910156 144.417969 70.910156 C 139.484375 72.824219 134.203125 73.285156 128.984375 73.75 C 127.589844 75.488281 125.964844 74.910156 123.992188 74.734375 C 119.988281 74.273438 116.101562 73.632812 112.386719 72.070312 C 110.878906 70.910156 109.601562 69.691406 109.429688 67.664062 L 107.6875 64.589844 C 101.246094 57.460938 97.707031 48.183594 90.6875 41.402344 C 87.730469 38.5625 85.117188 35.433594 82.332031 32.417969 C 79.488281 30.621094 76.589844 28.824219 73.746094 27.085938 C 71.480469 26.792969 69.277344 26.214844 67.480469 24.824219 C 66.609375 24.476562 65.796875 24.1875 64.925781 23.839844 L 62.488281 23.894531 C 61.269531 24.707031 59.992188 25.519531 58.777344 26.332031 C 57.265625 28.011719 55.757812 30.679688 54.25 28.128906 C 53.613281 28.996094 53.03125 29.867188 52.449219 30.738281 C 52.335938 30.910156 52.21875 31.085938 52.101562 31.257812 C 51.929688 32.300781 51.753906 33.402344 51.640625 34.445312 C 53.960938 34.621094 52.625 37.054688 53.03125 38.445312 C 55.992188 49.285156 54.25 60.53125 56.164062 71.488281 C 57.324219 77.921875 57.847656 84.472656 58.601562 91.023438 C 65.855469 90.15625 63.242188 94.214844 61.445312 97.226562 C 55.816406 106.792969 50.128906 116.300781 44.210938 125.75 C 35.742188 139.253906 35.390625 155.253906 44.792969 167.023438 C 51.347656 175.253906 60.050781 181.109375 70.4375 184.355469 C 77.167969 186.441406 83.320312 190.847656 90.917969 189.167969 C 96.257812 188.992188 101.652344 188.878906 106.992188 188.644531 C 108.789062 188.585938 110.707031 188.761719 110.761719 190.789062 C 110.820312 192.414062 109.429688 193.746094 107.457031 193.6875 C 101.945312 193.515625 96.316406 195.429688 90.863281 193.050781 C 86.859375 195.429688 82.566406 194.269531 78.328125 194.441406 C 66.085938 194.847656 53.84375 195.71875 41.601562 196.296875 C 39.800781 196.355469 37.828125 196.585938 36.378906 195.082031 C 34.695312 195.3125 32.957031 195.542969 31.273438 195.777344 C 28.605469 196.238281 24.890625 199.949219 23.671875 195.777344 C 22.511719 191.890625 27.792969 192.585938 30.226562 191.371094 C 31.445312 190.730469 33.363281 191.429688 34.984375 191.542969 C 35.449219 192.007812 35.914062 192.53125 36.378906 192.992188 C 44.210938 190.035156 52.566406 191.601562 60.574219 190.09375 C 62.257812 189.746094 64.171875 190.5 67.074219 188.644531 C 58.660156 186.210938 52.914062 181.167969 46.648438 176.9375 C 43.167969 174.558594 38.816406 177.457031 35.796875 179.023438 C 29.125 182.5 21.988281 184.933594 15.605469 189.226562 C 6.382812 195.136719 4.699219 198.210938 8.296875 208.355469 C 8.816406 209.863281 8.761719 211.542969 8.992188 213.167969 C 9.6875 213.339844 10.386719 213.574219 11.140625 213.746094 C 10.558594 206.09375 14.792969 200.703125 19.785156 195.832031 C 21.929688 193.6875 22.453125 194.09375 23.441406 197.109375 C 23.207031 198.617188 22.917969 200.125 21.351562 200.820312 C 18.796875 204.527344 16.128906 208.179688 15.027344 212.703125 C 13.632812 218.382812 15.375 220.355469 21.175781 220.238281 C 58.484375 219.542969 95.851562 219.253906 133.160156 218.210938 C 158.691406 217.457031 184.21875 218.09375 209.691406 216.355469 C 214.796875 216.007812 219.960938 216.296875 225.125 216.644531 C 234.234375 217.28125 242.53125 214.269531 251.003906 211.660156 C 263.304688 207.890625 276.011719 205.574219 288.71875 203.136719 C 293.1875 202.269531 297.363281 199.777344 301.714844 198.269531 C 310.648438 195.136719 319.238281 191.253906 327.070312 185.863281 C 331.421875 181.863281 336.644531 178.789062 340.183594 173.863281 C 340.878906 172.878906 342.097656 171.890625 343.316406 172.9375 C 344.476562 173.921875 343.839844 175.253906 342.96875 176.238281 C 339.429688 180.355469 336.527344 185.167969 331.363281 187.71875 C 321.441406 196.53125 309.082031 200.527344 296.898438 205.109375 C 280.941406 211.136719 263.769531 212.238281 247.8125 218.324219 C 238.414062 221.863281 229.824219 226.269531 222.863281 233.28125 C 218.394531 237.804688 216.421875 243.195312 217.234375 249.28125 C 217.699219 249.917969 217.929688 250.730469 217.699219 251.601562 C 217.929688 252.585938 218.277344 253.570312 218.628906 254.558594 C 218.105469 254.382812 217.640625 254.207031 217.175781 254.035156 C 217.292969 255.484375 218.277344 257.050781 219.382812 258.382812 C 220.601562 257.628906 222.167969 259.195312 223.386719 259.714844 C 236.148438 265.398438 249.554688 264.992188 262.839844 263.019531 C 278.5625 260.644531 292.78125 254.152344 306.820312 246.730469 C 317.785156 240.933594 326.839844 233.050781 335.484375 224.644531 C 342.097656 218.210938 347.261719 210.210938 352.949219 202.847656 C 354.167969 201.226562 355.039062 199.371094 357.066406 198.5 C 358.984375 195.195312 360.898438 191.949219 362.8125 188.644531 C 363.449219 186.441406 364.148438 184.238281 365.132812 182.152344 C 365.421875 181.457031 365.886719 181.050781 366.410156 180.878906 C 365.25 180.644531 364.320312 180.183594 364.4375 178.734375 C 364.554688 177.109375 365.421875 176.066406 367.164062 176.007812 C 367.800781 176.007812 368.324219 176.066406 368.730469 176.238281 C 369.078125 174.90625 369.425781 173.574219 369.71875 172.238281 C 367.164062 171.429688 368.324219 168.296875 368.324219 166.5 Z M 69.453125 90.734375 C 67.304688 89.054688 67.363281 86.675781 67.535156 84.300781 C 66.78125 83.140625 66.492188 81.921875 66.898438 80.589844 C 65.5625 78.214844 66.492188 75.664062 66.203125 73.171875 C 65.507812 72.417969 65.449219 71.546875 65.855469 70.675781 C 65.621094 69.867188 65.390625 68.996094 65.15625 68.183594 C 64.171875 66.621094 64.402344 64.996094 64.75 63.316406 C 64.171875 61.285156 64.171875 59.199219 64.75 57.171875 C 63.535156 53.867188 63.359375 50.792969 66.722656 48.535156 C 66.78125 43.546875 69.859375 43.546875 73.457031 44.476562 C 74.90625 43.835938 75.890625 44.535156 76.761719 45.636719 C 80.417969 48.070312 83.667969 50.910156 85.988281 54.679688 C 87.730469 57.113281 89.410156 59.605469 91.152344 62.039062 C 92.082031 63.488281 92.949219 64.878906 93.878906 66.328125 C 94.980469 68.242188 96.082031 70.15625 97.1875 72.070312 C 98.230469 74.675781 98.113281 76.765625 95.15625 78.15625 C 87.671875 81.691406 80.882812 86.328125 73.917969 90.851562 C 72.46875 92.589844 70.960938 93.226562 69.453125 90.734375 Z M 99.625 137.167969 C 98.519531 138.152344 97.246094 138.269531 95.851562 138.097656 C 87.613281 140.9375 81.695312 137.804688 76.414062 131.3125 C 72.816406 126.851562 73.976562 115.953125 78.039062 110.851562 C 78.792969 109.921875 79.429688 108.589844 80.941406 109.402344 C 82.390625 110.15625 81.925781 111.257812 81.519531 112.53125 C 80.128906 116.414062 78.910156 120.414062 79.835938 124.589844 C 81.636719 132.589844 87.496094 135.953125 95.621094 133.75 C 96.027344 133.632812 96.664062 134.152344 97.1875 134.445312 C 97.070312 133.226562 97.59375 132.53125 98.753906 132.183594 C 103.976562 130.617188 107.6875 127.082031 111.167969 123.082031 C 116.390625 117.054688 119.929688 110.964844 114.1875 103.257812 C 113.722656 102.675781 113.433594 101.980469 113.375 101.34375 C 112.503906 101.863281 111.226562 101.167969 110.300781 100.996094 C 101.132812 99.429688 93.296875 102.617188 85.988281 107.664062 C 84.886719 108.414062 83.667969 109.691406 82.621094 107.71875 C 81.867188 106.328125 82.738281 105.515625 84.074219 105.113281 C 89.875 97.921875 98.230469 96.53125 106.644531 95.664062 C 108.152344 95.488281 110.007812 96.066406 111.285156 96.9375 C 112.332031 97.632812 114.1875 98.214844 114.128906 99.777344 C 114.246094 99.71875 114.304688 99.664062 114.417969 99.605469 C 115.753906 98.851562 117.144531 99.488281 118.304688 100.589844 C 122.308594 104.472656 123.179688 113.921875 120.511719 119.023438 C 115.925781 127.835938 108.558594 133.285156 99.625 137.167969 Z M 86.453125 115.140625 C 91.730469 108.707031 98.347656 104.414062 106.992188 104.300781 C 113.664062 104.242188 116.449219 108.414062 112.679688 113.863281 C 107.976562 120.648438 102.117188 126.558594 92.777344 126.558594 C 89.46875 126.90625 86.335938 126.328125 84.828125 123.140625 C 83.550781 120.414062 84.539062 117.460938 86.453125 115.140625 Z M 154.105469 141.226562 C 151.84375 143.3125 149.871094 142.097656 148.246094 140.355469 C 144.417969 136.183594 140.703125 131.894531 136.929688 127.660156 C 133.566406 127.835938 132.984375 131.371094 130.550781 132.703125 C 130.433594 134.097656 129.851562 135.199219 128.578125 135.894531 C 126.953125 138.445312 125.675781 141.34375 122.773438 142.792969 C 121.265625 143.488281 119.523438 143.894531 118.132812 142.675781 C 116.390625 141.226562 117.609375 139.429688 118.480469 138.328125 C 122.195312 133.515625 124.804688 127.835938 129.910156 124.183594 C 129.621094 122.039062 125.734375 120.125 129.445312 117.691406 C 131.941406 115.023438 135.074219 115.835938 138.09375 116.125 C 143.257812 116.125 140.121094 120.878906 141.980469 122.792969 C 147.257812 125.921875 150.042969 131.3125 153.757812 135.894531 C 155.207031 137.632812 156.136719 139.371094 154.105469 141.226562 Z M 196.347656 130.734375 C 185.03125 137.167969 165.882812 134.328125 157.644531 126.210938 C 151.726562 120.359375 150.160156 114.734375 153.234375 107.257812 C 156.019531 100.472656 163.332031 95.605469 170.351562 95.71875 C 171.6875 95.777344 173.078125 95.429688 174.414062 95.257812 C 175.574219 94.445312 176.851562 94.328125 178.183594 94.503906 C 179.402344 93.632812 180.5625 93.75 181.78125 94.5625 C 190.023438 94.910156 197.160156 97.054688 202.265625 104.53125 C 209.34375 114.910156 207.542969 124.414062 196.347656 130.734375 Z M 209.980469 59.375 C 209.75 60.183594 209.515625 61.054688 209.285156 61.867188 C 209.402344 63.140625 209.515625 64.476562 209.632812 65.75 C 209.574219 66.503906 209.460938 67.316406 209.402344 68.070312 C 209.285156 70.097656 209.921875 72.183594 208.472656 73.980469 C 206.964844 80.589844 206.269531 80.9375 200.640625 77.226562 C 195.648438 73.925781 190.484375 71.082031 184.335938 70.675781 C 182.015625 70.503906 180.738281 69.808594 181.375 66.792969 C 184.105469 53.34375 190.835938 41.867188 198.492188 30.792969 C 198.839844 30.332031 199.945312 30.332031 200.640625 30.097656 C 205.109375 27.433594 208.414062 28.359375 209.109375 33.75 C 209.867188 39.375 211.78125 44.996094 210.621094 50.792969 C 211.140625 51.953125 211.375 53.171875 210.734375 54.332031 C 211.140625 56.183594 211.257812 57.925781 209.980469 59.375 Z M 209.980469 59.375 " fill-opacity="1" fill-rule="nonzero"/><path fill="#fbfbfb" d="M 186.308594 100.820312 C 184.277344 100.589844 182.304688 100.53125 180.5625 99.371094 C 179.171875 101.34375 177.257812 100.125 175.515625 100.242188 C 174.703125 100.242188 173.890625 100.242188 173.078125 100.242188 C 165.074219 100.878906 165.015625 100.9375 163.042969 105.285156 C 156.601562 107.777344 155.207031 115.71875 160.199219 120.648438 C 166.929688 127.253906 175.457031 128.066406 184.21875 128.183594 C 185.84375 127.894531 187.410156 127.605469 189.035156 127.3125 C 189.789062 126.558594 190.660156 126.445312 191.648438 126.675781 C 195.1875 123.835938 200.058594 122.039062 200.117188 116.414062 C 200.234375 109.113281 193.5625 101.632812 186.308594 100.820312 Z M 192.632812 113.632812 C 191.9375 118.851562 187.933594 120.761719 182.710938 121.980469 C 177.257812 123.257812 172.5 122.503906 167.742188 120.414062 C 159.503906 116.878906 158.285156 112.761719 163.101562 105.285156 C 169.832031 102.097656 176.851562 100.53125 184.160156 103.023438 C 189.210938 104.765625 193.445312 107.777344 192.632812 113.632812 Z M 192.632812 113.632812 " fill-opacity="1" fill-rule="nonzero"/><g clip-path="url(#3b93793cbc)"><path fill="#eb436e" d="M 8.296875 208.355469 C 4.699219 198.210938 6.382812 195.136719 15.550781 188.933594 C 21.929688 184.644531 29.066406 182.210938 35.742188 178.734375 C 38.816406 177.167969 43.109375 174.269531 46.589844 176.644531 C 52.855469 180.878906 58.542969 185.921875 67.015625 188.355469 C 64.113281 190.210938 62.199219 189.457031 60.515625 189.804688 C 52.507812 191.3125 44.152344 189.746094 36.320312 192.703125 C 35.855469 192.238281 35.390625 191.71875 34.929688 191.253906 C 33.304688 191.136719 31.445312 190.441406 30.171875 191.082031 C 27.792969 192.296875 22.453125 191.601562 23.613281 195.484375 C 24.890625 199.660156 28.605469 196.007812 31.214844 195.484375 C 32.898438 195.253906 34.636719 195.023438 36.320312 194.789062 C 37.828125 196.296875 39.800781 196.066406 41.542969 196.007812 C 53.785156 195.429688 66.027344 194.558594 78.269531 194.152344 C 82.507812 193.980469 86.800781 195.136719 90.804688 192.761719 C 96.257812 195.195312 101.828125 193.28125 107.398438 193.398438 C 109.371094 193.457031 110.761719 192.125 110.707031 190.5 C 110.648438 188.472656 108.734375 188.296875 106.933594 188.355469 C 101.597656 188.585938 96.199219 188.703125 90.863281 188.878906 C 83.261719 190.558594 77.109375 186.210938 70.378906 184.066406 C 59.992188 180.820312 51.289062 174.964844 44.734375 166.734375 C 35.335938 154.90625 35.683594 138.964844 44.152344 125.457031 C 50.070312 116.066406 55.757812 106.503906 61.386719 96.9375 C 63.183594 93.921875 65.796875 89.867188 58.542969 90.734375 C 57.324219 91.894531 56.164062 93.054688 54.945312 94.214844 C 54.945312 96.066406 54.308594 97.691406 53.261719 99.316406 C 48.449219 107.023438 43.691406 114.675781 39.339844 122.617188 C 33.246094 133.691406 29.589844 145.226562 33.652344 158.09375 C 35.21875 163.082031 39.164062 166.675781 41.019531 171.3125 C 26.167969 178.789062 8.46875 181.574219 0.171875 198.5 C 0.171875 199.3125 0.171875 200.179688 0.171875 200.992188 C 1.21875 201.109375 1.914062 201.398438 2.261719 201.976562 C 1.914062 201.398438 1.277344 201.109375 0.171875 200.992188 C 0.171875 201.804688 0.171875 202.675781 0.171875 203.484375 C 0.871094 203.777344 1.566406 204.007812 2.261719 204.296875 C 2.378906 203.949219 2.4375 203.601562 2.492188 203.3125 C 2.492188 203.601562 2.378906 203.949219 2.261719 204.296875 C 3.015625 207.832031 2.320312 211.832031 5.394531 214.671875 C 5.800781 214.671875 6.148438 214.789062 6.4375 214.90625 C 6.148438 214.789062 5.800781 214.671875 5.394531 214.671875 C 5.800781 215.832031 5.859375 217.222656 7.601562 217.28125 C 7.601562 217.28125 7.601562 217.28125 7.601562 217.222656 C 7.601562 217.222656 7.601562 217.222656 7.601562 217.28125 C 8.0625 217.398438 8.527344 217.457031 8.992188 217.570312 C 8.992188 216.121094 8.992188 214.671875 8.992188 213.28125 C 8.761719 211.542969 8.816406 209.863281 8.296875 208.355469 Z M 8.296875 208.355469 " fill-opacity="1" fill-rule="nonzero"/></g><path fill="#eb436e" d="M 222.804688 233.222656 C 229.765625 226.210938 238.355469 221.863281 247.753906 218.269531 C 263.710938 212.238281 280.886719 211.078125 296.839844 205.050781 C 309.027344 200.472656 321.328125 196.472656 331.304688 187.660156 C 336.414062 185.109375 339.3125 180.296875 342.910156 176.183594 C 343.722656 175.253906 344.417969 173.863281 343.257812 172.878906 C 342.039062 171.835938 340.820312 172.820312 340.125 173.804688 C 336.585938 178.734375 331.363281 181.746094 327.011719 185.804688 C 319.179688 191.195312 310.648438 195.082031 301.65625 198.210938 C 297.304688 199.71875 293.128906 202.269531 288.660156 203.078125 C 276.011719 205.515625 263.304688 207.777344 250.945312 211.601562 C 242.472656 214.210938 234.175781 217.222656 225.066406 216.585938 C 219.960938 216.238281 214.738281 215.949219 209.632812 216.296875 C 184.160156 218.035156 158.632812 217.398438 133.101562 218.152344 C 95.792969 219.253906 58.484375 219.542969 21.117188 220.179688 C 15.316406 220.296875 13.519531 218.324219 14.96875 212.644531 C 16.070312 208.125 18.738281 204.527344 21.292969 200.761719 C 22.917969 200.007812 23.207031 198.558594 23.382812 197.050781 C 22.453125 194.035156 21.929688 193.632812 19.726562 195.777344 C 14.738281 200.644531 10.5 206.09375 11.082031 213.6875 C 10.386719 213.515625 9.6875 213.28125 8.933594 213.109375 C 8.933594 214.558594 8.933594 216.007812 8.933594 217.398438 L 9.28125 217.398438 C 12.183594 221.628906 15.027344 226.210938 21.003906 226.035156 C 34.929688 225.570312 48.910156 225.28125 62.835938 225.167969 C 84.074219 225.050781 105.25 223.890625 126.488281 223.542969 C 156.949219 223.078125 187.410156 222.964844 217.871094 222.617188 C 220.425781 222.617188 222.980469 221.628906 226.226562 223.078125 C 219.207031 228.585938 213.519531 234.382812 211.894531 242.964844 C 210.792969 248.816406 212.707031 252.703125 218.511719 254.441406 C 215.4375 246.265625 217.058594 239.019531 222.804688 233.222656 Z M 328.753906 186.210938 C 328.695312 186.210938 328.695312 186.210938 328.636719 186.210938 C 328.695312 186.210938 328.753906 186.210938 328.753906 186.210938 Z M 330.667969 186.90625 C 330.378906 186.675781 330.085938 186.558594 329.796875 186.441406 C 330.085938 186.558594 330.378906 186.675781 330.667969 186.90625 Z M 21.351562 198.730469 C 21.410156 198.382812 21.582031 198.035156 21.816406 197.746094 C 21.582031 198.035156 21.46875 198.382812 21.351562 198.730469 C 21.234375 199.195312 21.234375 199.71875 21.234375 200.238281 C 21.234375 199.71875 21.234375 199.195312 21.351562 198.730469 Z M 9.980469 217.222656 C 11.140625 216.703125 11.546875 215.773438 11.3125 214.558594 C 11.546875 215.773438 11.140625 216.644531 9.980469 217.222656 Z M 9.980469 217.222656 " fill-opacity="1" fill-rule="nonzero"/><path fill="#eb436e" d="M 373.777344 163.429688 C 373.488281 144.761719 367.394531 127.953125 357.765625 112.183594 C 347.4375 95.316406 333.628906 83.199219 313.726562 79.023438 C 303.164062 76.824219 292.78125 77.632812 282.101562 79.023438 C 268.410156 80.824219 255.527344 84.070312 243.925781 91.546875 C 242.996094 92.359375 242.011719 93.167969 241.082031 94.039062 C 240.210938 94.851562 239.28125 95.664062 238.414062 96.472656 C 238.527344 96.53125 238.703125 96.589844 238.820312 96.648438 C 238.703125 96.589844 238.585938 96.53125 238.414062 96.472656 C 237.136719 96.765625 236.441406 97.75 235.859375 98.851562 C 234.582031 99.546875 233.945312 99.082031 232.957031 97.980469 C 229.941406 94.734375 231.160156 90.328125 229.359375 86.851562 C 229.765625 85.867188 229.59375 85.054688 228.78125 84.417969 C 228.722656 84.472656 228.605469 84.589844 228.546875 84.648438 C 228.605469 84.589844 228.722656 84.53125 228.78125 84.417969 C 229.359375 80.242188 228.839844 76.125 228.144531 72.011719 C 228.433594 70.273438 228.316406 68.648438 227.445312 67.082031 C 227.273438 66.214844 227.097656 65.402344 226.867188 64.53125 C 226.054688 63.835938 225.589844 63.199219 225.359375 62.5625 C 225.53125 63.199219 226.054688 63.894531 226.867188 64.53125 C 226.925781 62.851562 227.039062 61.113281 227.097656 59.429688 C 225.878906 46.15625 224.660156 32.765625 220.949219 19.953125 C 219.554688 15.199219 218.625 9.519531 213.8125 6.214844 C 210.910156 6.5625 208.9375 5.808594 209.226562 2.390625 C 208.878906 5.867188 210.910156 6.5625 213.8125 6.214844 C 212.765625 4.359375 210.96875 3.433594 209.285156 2.390625 C 209.226562 1.578125 209.226562 0.765625 209.167969 0.0117188 C 207.949219 0.0117188 206.675781 0.0117188 205.457031 0.0117188 C 205.050781 0.824219 204.585938 1.636719 204.179688 2.449219 C 202.324219 2.851562 200.058594 2.273438 199.132812 4.652344 C 199.191406 6.273438 199.246094 7.839844 199.363281 9.460938 C 201.972656 9.808594 204.46875 7.316406 207.195312 9.113281 C 209.632812 10.214844 211.433594 12.011719 212.652344 14.390625 C 213.578125 17.054688 213.925781 20.011719 215.84375 22.273438 C 216.363281 23.027344 216.886719 23.78125 217.464844 24.535156 C 217.292969 25.460938 217.117188 26.390625 216.886719 27.316406 C 215.785156 29.984375 217.699219 32.1875 218.046875 34.679688 C 218.683594 33.808594 218.976562 32.941406 218.976562 32.1875 C 218.976562 32.996094 218.742188 33.808594 218.046875 34.679688 C 218.164062 37.984375 217.699219 41.34375 218.800781 44.535156 C 219.730469 45.230469 220.25 45.925781 220.425781 46.734375 C 220.25 45.984375 219.730469 45.230469 218.800781 44.535156 C 218.105469 46.679688 218.453125 48.765625 219.4375 50.734375 C 219.613281 51.953125 219.789062 53.230469 219.960938 54.445312 C 220.65625 57.75 218.625 61.171875 220.65625 64.359375 C 220.714844 64.242188 220.714844 64.128906 220.773438 64.011719 C 220.714844 64.128906 220.714844 64.242188 220.65625 64.359375 C 220.714844 66.445312 220.136719 68.589844 221.179688 70.5625 C 221.761719 74.675781 220.425781 78.910156 222.167969 82.910156 C 222.339844 83.777344 222.515625 84.589844 222.6875 85.460938 C 222.980469 87.777344 220.773438 90.675781 224.371094 92.125 C 224.3125 92.011719 224.253906 91.835938 224.253906 91.71875 C 224.195312 91.429688 224.140625 91.140625 224.140625 90.851562 C 224.140625 91.140625 224.195312 91.429688 224.253906 91.71875 C 224.3125 91.835938 224.3125 92.011719 224.371094 92.125 C 224.429688 92.53125 224.660156 92.765625 225.066406 92.820312 C 225.066406 92.820312 225.066406 92.820312 225.125 92.820312 C 225.125 92.820312 225.125 92.820312 225.066406 92.820312 C 225.183594 93.980469 224.894531 95.257812 226.460938 95.71875 C 227.792969 98.214844 228.140625 101.167969 230.289062 103.199219 C 229.882812 100.242188 230.695312 96.707031 226.519531 95.664062 C 226.574219 95.316406 226.574219 95.023438 226.574219 94.734375 C 226.574219 95.023438 226.574219 95.316406 226.519531 95.664062 C 230.695312 96.707031 229.941406 100.242188 230.289062 103.199219 C 232.550781 107.023438 234.875 110.851562 237.078125 114.734375 C 247.753906 133.167969 248.507812 154.386719 231.507812 171.195312 C 227.332031 175.371094 222.109375 178.789062 219.03125 184.933594 C 222.574219 184.703125 225.472656 184.53125 228.316406 184.355469 C 229.824219 184.238281 231.855469 183.71875 231.332031 182.09375 C 229.765625 177.457031 233.828125 175.601562 235.976562 173.980469 C 242.359375 169.050781 245.839844 162.5 248.21875 155.253906 C 253.148438 140.125 249.609375 126.210938 241.71875 112.820312 C 239.339844 108.761719 234.816406 104.472656 240.09375 99.316406 L 240.441406 98.910156 C 240.269531 98.039062 239.804688 97.34375 239.167969 96.878906 C 239.804688 97.34375 240.269531 98.039062 240.441406 98.910156 C 242.359375 98.328125 243.867188 97.34375 244.796875 95.546875 C 258.199219 87.894531 272.820312 84.417969 288.023438 82.386719 C 290.980469 81.980469 293.476562 83.371094 296.375 83.082031 C 313.609375 81.519531 328.753906 86.675781 340.589844 99.140625 C 358.460938 117.863281 367.976562 140.300781 368.382812 166.441406 C 368.382812 168.472656 366.933594 172.238281 370.933594 172.238281 C 374.53125 172.238281 373.605469 168.761719 373.953125 166.441406 C 374.011719 165.515625 373.777344 164.472656 373.777344 163.429688 Z M 209.460938 8.648438 C 210.386719 8.59375 211.085938 8.765625 211.605469 9.113281 C 211.085938 8.824219 210.328125 8.648438 209.460938 8.648438 Z M 212.707031 10.851562 C 212.59375 10.273438 212.359375 9.808594 211.953125 9.460938 C 212.359375 9.808594 212.59375 10.273438 212.707031 10.851562 Z M 217.757812 23.375 C 217.757812 23.144531 217.699219 22.96875 217.582031 22.851562 C 217.699219 23.027344 217.757812 23.199219 217.757812 23.375 Z M 223.09375 75.894531 C 223.09375 75.375 223.035156 74.851562 222.921875 74.328125 C 222.863281 73.867188 222.6875 73.460938 222.515625 72.996094 C 222.6875 73.460938 222.804688 73.867188 222.921875 74.328125 C 223.035156 74.851562 223.09375 75.375 223.09375 75.894531 Z M 220.25 48.707031 C 220.308594 48.417969 220.367188 48.183594 220.425781 47.894531 C 220.425781 48.128906 220.367188 48.417969 220.25 48.707031 C 220.136719 48.996094 220.078125 49.230469 219.960938 49.519531 C 220.078125 49.230469 220.195312 48.9375 220.25 48.707031 Z M 221.761719 58.679688 C 221.703125 57.691406 221.46875 56.707031 220.890625 55.78125 C 221.46875 56.707031 221.703125 57.691406 221.761719 58.679688 Z M 221.761719 59.316406 C 221.703125 60.128906 221.585938 60.996094 221.355469 61.808594 C 221.585938 60.996094 221.761719 60.183594 221.761719 59.316406 Z M 221.527344 71.140625 C 221.761719 71.429688 221.933594 71.722656 222.109375 72.070312 C 221.933594 71.777344 221.761719 71.488281 221.527344 71.140625 Z M 228.492188 84.648438 C 228.199219 84.9375 228.085938 85.171875 228.027344 85.402344 C 228.085938 85.171875 228.199219 84.9375 228.492188 84.648438 Z M 226.519531 68.824219 C 226.519531 68.765625 226.574219 68.707031 226.574219 68.648438 C 226.574219 68.707031 226.574219 68.765625 226.519531 68.824219 Z M 225.996094 93.519531 C 225.9375 93.460938 225.878906 93.34375 225.820312 93.285156 C 225.878906 93.402344 225.9375 93.460938 225.996094 93.519531 Z M 226.460938 59.894531 C 226.285156 60.070312 226.113281 60.183594 225.996094 60.359375 C 226.113281 60.183594 226.285156 60.070312 226.460938 59.894531 Z M 225.300781 61.578125 C 225.242188 61.808594 225.242188 61.980469 225.300781 62.214844 C 225.242188 62.039062 225.242188 61.808594 225.300781 61.578125 Z M 225.414062 93.054688 C 225.472656 93.113281 225.53125 93.167969 225.589844 93.226562 C 225.53125 93.167969 225.472656 93.113281 225.414062 93.054688 Z M 226.054688 93.632812 C 226.113281 93.75 226.167969 93.808594 226.226562 93.921875 C 226.167969 93.808594 226.113281 93.75 226.054688 93.632812 Z M 226.285156 93.980469 C 226.34375 94.097656 226.402344 94.214844 226.402344 94.328125 C 226.34375 94.214844 226.285156 94.097656 226.285156 93.980469 Z M 226.402344 94.328125 C 226.460938 94.445312 226.460938 94.617188 226.460938 94.734375 C 226.460938 94.617188 226.402344 94.503906 226.402344 94.328125 Z M 228.027344 85.921875 C 227.96875 85.808594 227.96875 85.75 227.96875 85.632812 C 227.96875 85.691406 227.96875 85.808594 228.027344 85.921875 C 228.085938 86.097656 228.199219 86.214844 228.316406 86.328125 C 228.199219 86.214844 228.085938 86.039062 228.027344 85.921875 Z M 228.027344 85.921875 " fill-opacity="1" fill-rule="nonzero"/><path fill="#eb436e" d="M 352.890625 202.730469 C 347.203125 210.09375 342.039062 218.09375 335.425781 224.527344 C 326.78125 232.875 317.730469 240.761719 306.761719 246.613281 C 292.722656 254.09375 278.507812 260.527344 262.78125 262.90625 C 249.496094 264.933594 236.148438 265.28125 223.328125 259.601562 C 221.816406 258.960938 219.789062 256.757812 218.511719 259.195312 C 217.640625 260.875 219.554688 262.382812 221.179688 263.425781 C 226.808594 267.253906 233.421875 268.238281 239.863281 268.816406 C 254.71875 270.207031 268.816406 267.773438 283.03125 262.5 C 293.417969 258.613281 303.398438 254.613281 312.738281 248.761719 C 332.929688 236.179688 347.957031 218.847656 359.679688 198.382812 C 358.808594 198.328125 357.878906 198.328125 357.011719 198.269531 C 354.980469 199.253906 354.109375 201.167969 352.890625 202.730469 Z M 352.890625 202.730469 " fill-opacity="1" fill-rule="nonzero"/><path fill="#eb436e" d="M 69.453125 90.734375 C 70.960938 93.226562 72.46875 92.648438 73.917969 90.734375 C 80.824219 86.214844 87.671875 81.574219 95.15625 78.039062 C 98.113281 76.648438 98.230469 74.5625 97.1875 71.953125 C 96.082031 70.039062 94.980469 68.128906 93.878906 66.214844 C 92.949219 64.765625 92.082031 63.375 91.152344 61.925781 C 89.410156 61.980469 88.367188 61.578125 87.671875 60.9375 C 88.367188 61.578125 89.410156 61.980469 91.152344 61.925781 C 89.410156 59.488281 87.730469 56.996094 85.988281 54.5625 C 83.667969 50.792969 80.417969 47.894531 76.761719 45.519531 C 75.890625 44.417969 74.90625 43.78125 73.457031 44.359375 C 69.859375 43.433594 66.722656 43.433594 66.722656 48.417969 C 67.769531 48.648438 68.8125 48.9375 69.859375 49.171875 C 76.296875 51.082031 79.894531 56.359375 83.144531 61.460938 C 85.40625 64.9375 90.28125 69.460938 88.539062 72.417969 C 86.277344 76.417969 80.59375 78.445312 76.355469 81.34375 C 74.382812 82.675781 74.324219 81.226562 73.570312 79.835938 C 70.902344 75.023438 72.875 69.34375 70.613281 64.53125 C 70.496094 63.664062 70.378906 62.734375 70.265625 61.867188 C 71.367188 59.082031 69.683594 56.882812 68.753906 54.503906 C 68.523438 54.503906 68.292969 54.503906 68.117188 54.503906 C 68.347656 54.445312 68.523438 54.445312 68.753906 54.503906 C 68.523438 52.589844 67.941406 50.621094 69.859375 49.171875 C 68.8125 48.9375 67.769531 48.648438 66.722656 48.417969 C 63.359375 50.679688 63.535156 53.75 64.75 57.054688 C 64.171875 59.082031 64.230469 61.171875 64.75 63.199219 C 66.027344 64.300781 66.375 65.460938 65.96875 66.679688 C 66.375 65.460938 66.027344 64.300781 64.75 63.199219 C 64.402344 64.878906 64.171875 66.503906 65.15625 68.070312 C 65.15625 68.011719 65.214844 68.011719 65.214844 67.953125 C 65.214844 68.011719 65.15625 68.011719 65.15625 68.070312 C 65.390625 68.878906 65.621094 69.75 65.855469 70.5625 C 66.027344 70.621094 66.203125 70.734375 66.320312 70.792969 C 66.609375 70.96875 66.78125 71.140625 66.957031 71.375 C 66.839844 71.199219 66.609375 70.96875 66.320312 70.792969 C 66.203125 70.675781 66.027344 70.621094 65.855469 70.5625 C 65.449219 71.488281 65.507812 72.300781 66.203125 73.054688 C 66.492188 75.546875 65.507812 78.097656 66.898438 80.472656 C 66.492188 81.808594 66.78125 83.082031 67.535156 84.183594 C 68.058594 83.664062 68.347656 83.199219 68.464844 82.734375 C 68.347656 83.199219 68 83.664062 67.535156 84.183594 C 67.363281 86.675781 67.304688 88.996094 69.453125 90.734375 Z M 94.632812 70.503906 C 94.980469 70.910156 95.445312 71.316406 96.082031 71.546875 C 96.375 71.664062 96.664062 71.777344 97.011719 71.835938 C 96.664062 71.777344 96.375 71.664062 96.082031 71.546875 C 95.445312 71.316406 94.980469 70.96875 94.632812 70.503906 C 94.460938 70.273438 94.285156 70.039062 94.167969 69.808594 C 94.285156 70.097656 94.460938 70.328125 94.632812 70.503906 Z M 74.5 45.402344 C 74.265625 45.285156 73.976562 45.054688 73.804688 44.824219 C 74.035156 45.054688 74.265625 45.230469 74.5 45.402344 C 74.730469 45.578125 75.023438 45.636719 75.3125 45.636719 C 75.078125 45.636719 74.789062 45.519531 74.5 45.402344 Z M 86.511719 58.332031 C 86.453125 58.097656 86.453125 57.925781 86.394531 57.691406 C 86.453125 57.925781 86.453125 58.097656 86.511719 58.332031 C 86.625 58.96875 86.742188 59.546875 87.03125 60.011719 C 86.742188 59.488281 86.625 58.910156 86.511719 58.332031 Z M 87.148438 60.242188 C 87.265625 60.417969 87.378906 60.53125 87.496094 60.707031 C 87.324219 60.589844 87.265625 60.417969 87.148438 60.242188 Z M 68.929688 63.199219 C 68.929688 63.257812 68.929688 63.316406 68.929688 63.375 C 68.929688 63.316406 68.929688 63.257812 68.929688 63.199219 Z M 65.855469 67.027344 C 65.855469 67.027344 65.855469 67.082031 65.855469 67.027344 C 65.796875 67.082031 65.855469 67.082031 65.855469 67.027344 Z M 66.722656 55.257812 C 66.78125 55.199219 66.722656 55.199219 66.722656 55.257812 Z M 67.128906 72.070312 C 67.128906 72.183594 67.074219 72.242188 67.015625 72.359375 C 67.074219 72.242188 67.074219 72.125 67.128906 72.070312 Z M 66.667969 72.765625 C 66.722656 72.707031 66.78125 72.648438 66.839844 72.589844 C 66.78125 72.648438 66.722656 72.707031 66.667969 72.765625 Z M 66.667969 72.765625 " fill-opacity="1" fill-rule="nonzero"/><path fill="#eb436e" d="M 198.378906 30.851562 C 190.71875 41.925781 183.988281 53.402344 181.261719 66.851562 C 180.621094 69.925781 181.898438 70.621094 184.21875 70.734375 C 190.371094 71.140625 195.535156 73.980469 200.523438 77.285156 C 206.152344 80.996094 206.90625 80.648438 208.355469 74.039062 C 209.808594 72.242188 209.167969 70.097656 209.285156 68.128906 C 209.34375 67.375 209.460938 66.5625 209.515625 65.808594 C 208.472656 65.285156 207.894531 64.765625 207.71875 64.183594 C 207.894531 64.765625 208.472656 65.285156 209.515625 65.808594 C 209.402344 64.53125 209.285156 63.199219 209.167969 61.925781 C 209.402344 61.113281 209.632812 60.242188 209.867188 59.429688 C 209.34375 58.621094 209.054688 57.867188 208.996094 57.113281 C 209.054688 57.867188 209.34375 58.621094 209.867188 59.429688 C 211.140625 57.925781 211.027344 56.242188 210.5625 54.503906 C 211.199219 53.285156 211.027344 52.128906 210.445312 50.96875 C 210.214844 50.792969 209.980469 50.679688 209.808594 50.503906 C 209.632812 50.332031 209.515625 50.15625 209.402344 49.925781 C 209.515625 50.097656 209.632812 50.332031 209.808594 50.503906 C 209.980469 50.679688 210.214844 50.851562 210.445312 50.96875 C 211.664062 45.171875 209.75 39.488281 208.9375 33.925781 C 208.183594 28.535156 204.875 27.546875 200.464844 30.273438 C 199.828125 30.390625 198.726562 30.332031 198.378906 30.851562 Z M 204.585938 62.445312 C 204.644531 62.503906 204.757812 62.621094 204.816406 62.679688 C 204.757812 62.621094 204.703125 62.503906 204.585938 62.445312 Z M 208.589844 62.445312 Z M 208.125 62.96875 C 208.066406 63.027344 208.066406 63.082031 208.007812 63.140625 C 208.066406 63.027344 208.066406 62.96875 208.125 62.96875 Z M 209.109375 57.054688 C 209.109375 56.765625 209.109375 56.417969 209.226562 56.128906 C 209.109375 56.476562 209.109375 56.765625 209.109375 57.054688 Z M 205.628906 42.15625 C 205.339844 42.15625 204.992188 42.15625 204.644531 42.214844 C 204.410156 48.824219 204.238281 55.375 204.003906 61.980469 C 203.367188 63.257812 203.425781 64.53125 203.890625 65.808594 C 203.367188 69.460938 202.148438 71.722656 198.144531 68.707031 C 197.042969 67.835938 195.535156 67.488281 194.316406 66.792969 C 191.996094 65.519531 187.699219 67.027344 187.238281 64.183594 C 186.832031 61.867188 189.382812 59.027344 190.429688 56.359375 C 193.503906 48.589844 197.332031 41.171875 201.683594 34.039062 C 203.65625 36.417969 204.121094 39.316406 204.644531 42.15625 C 204.992188 42.15625 205.339844 42.15625 205.628906 42.15625 Z M 205.628906 42.15625 " fill-opacity="1" fill-rule="nonzero"/><path fill="#eb436e" d="M 92.777344 126.617188 C 102.117188 126.617188 107.976562 120.707031 112.679688 113.921875 C 116.390625 108.53125 113.664062 104.300781 106.992188 104.359375 C 98.40625 104.472656 91.789062 108.707031 86.453125 115.199219 C 84.539062 117.515625 83.550781 120.472656 84.828125 123.199219 C 86.277344 126.328125 89.46875 126.90625 92.777344 126.617188 Z M 92.777344 126.617188 " fill-opacity="1" fill-rule="nonzero"/><path fill="#eb436e" d="M 202.207031 104.53125 C 197.042969 97.054688 189.964844 94.910156 181.726562 94.5625 C 180.96875 95.371094 180.214844 95.664062 179.460938 95.429688 C 180.214844 95.664062 180.96875 95.371094 181.726562 94.5625 C 180.5625 93.75 179.347656 93.632812 178.128906 94.503906 C 176.792969 94.328125 175.515625 94.445312 174.355469 95.257812 C 173.949219 96.878906 173.542969 98.5625 173.078125 100.183594 C 173.890625 100.183594 174.703125 100.183594 175.515625 100.183594 C 177.257812 100.125 179.171875 101.34375 180.5625 99.316406 C 182.304688 100.53125 184.277344 100.53125 186.308594 100.765625 C 193.5625 101.574219 200.234375 109.054688 200.175781 116.300781 C 200.175781 121.921875 195.242188 123.71875 191.703125 126.558594 C 190.71875 126.328125 189.847656 126.445312 189.09375 127.199219 C 187.46875 127.488281 185.902344 127.777344 184.277344 128.066406 C 184.21875 128.414062 184.105469 128.703125 183.988281 128.9375 C 184.105469 128.703125 184.21875 128.414062 184.277344 128.066406 C 175.515625 127.894531 166.988281 127.140625 160.257812 120.53125 C 155.265625 115.605469 156.660156 107.664062 163.101562 105.167969 C 165.074219 100.765625 165.128906 100.765625 173.136719 100.125 C 173.542969 98.503906 173.949219 96.820312 174.414062 95.199219 C 173.078125 95.371094 171.6875 95.664062 170.351562 95.664062 C 163.332031 95.488281 156.019531 100.359375 153.234375 107.199219 C 150.160156 114.675781 151.726562 120.300781 157.644531 126.15625 C 165.882812 134.269531 185.03125 137.109375 196.347656 130.675781 C 194.546875 130.851562 192.75 131.023438 190.949219 131.199219 C 192.75 131.023438 194.546875 130.851562 196.347656 130.675781 C 207.542969 124.414062 209.34375 114.910156 202.207031 104.53125 Z M 179.113281 98.214844 C 177.835938 97.515625 176.734375 97.632812 175.863281 99.429688 C 176.675781 97.632812 177.835938 97.460938 179.113281 98.214844 C 179.347656 98.328125 179.519531 98.445312 179.753906 98.617188 C 179.519531 98.445312 179.289062 98.328125 179.113281 98.214844 Z M 183.871094 129.285156 C 183.871094 129.285156 183.8125 129.34375 183.871094 129.285156 C 183.8125 129.34375 183.871094 129.285156 183.871094 129.285156 Z M 178.648438 131.660156 C 178.765625 131.546875 178.824219 131.429688 178.941406 131.3125 C 178.824219 131.429688 178.707031 131.546875 178.648438 131.660156 C 178.535156 131.835938 178.417969 132.007812 178.300781 132.242188 C 178.417969 132.007812 178.535156 131.835938 178.648438 131.660156 Z M 178.648438 131.660156 " fill-opacity="1" fill-rule="nonzero"/><path fill="#eb436e" d="M 120.511719 118.964844 C 123.179688 113.863281 122.367188 104.414062 118.304688 100.53125 C 117.144531 99.371094 115.753906 98.792969 114.417969 99.546875 C 114.304688 99.605469 114.1875 99.664062 114.128906 99.71875 C 114.1875 98.214844 112.273438 97.574219 111.285156 96.878906 C 110.007812 96.011719 108.152344 95.488281 106.644531 95.605469 C 98.230469 96.53125 89.875 97.867188 84.074219 105.054688 C 82.738281 105.460938 81.867188 106.269531 82.621094 107.664062 C 83.667969 109.632812 84.886719 108.359375 85.988281 107.605469 C 85.988281 106.792969 85.699219 106.15625 85.175781 105.75 C 85 105.574219 84.769531 105.402344 84.480469 105.285156 C 84.769531 105.402344 85 105.574219 85.175781 105.75 C 85.699219 106.214844 85.988281 106.792969 85.988281 107.605469 C 93.296875 102.5625 101.132812 99.371094 110.300781 100.9375 C 111.226562 101.113281 112.503906 101.808594 113.375 101.285156 C 113.433594 101.921875 113.722656 102.617188 114.1875 103.199219 C 119.929688 110.851562 116.332031 116.996094 111.167969 123.023438 C 107.6875 127.023438 103.976562 130.558594 98.753906 132.125 C 97.59375 132.472656 97.070312 133.167969 97.1875 134.386719 C 96.664062 134.152344 96.082031 133.574219 95.621094 133.691406 C 87.554688 135.894531 81.695312 132.53125 79.835938 124.53125 C 78.910156 120.300781 80.128906 116.359375 81.519531 112.472656 C 81.984375 111.199219 82.390625 110.097656 80.941406 109.34375 C 79.429688 108.589844 78.792969 109.863281 78.039062 110.792969 C 73.976562 115.894531 72.816406 126.792969 76.414062 131.253906 C 81.636719 137.75 87.613281 140.878906 95.851562 138.039062 C 96.082031 137.457031 96.257812 136.878906 96.488281 136.300781 C 96.257812 136.878906 96.082031 137.457031 95.851562 138.039062 C 97.246094 138.210938 98.519531 138.097656 99.625 137.109375 C 108.558594 133.285156 115.925781 127.835938 120.511719 118.964844 Z M 98.8125 135.429688 C 98.753906 135.371094 98.636719 135.253906 98.578125 135.199219 C 98.695312 135.253906 98.753906 135.3125 98.8125 135.429688 Z M 98.460938 135.082031 C 98.347656 135.023438 98.289062 134.964844 98.171875 134.851562 C 98.289062 134.964844 98.40625 135.023438 98.460938 135.082031 Z M 98.113281 134.851562 C 98 134.792969 97.882812 134.734375 97.765625 134.675781 C 97.882812 134.675781 98 134.734375 98.113281 134.851562 Z M 97.652344 134.617188 C 97.535156 134.558594 97.359375 134.503906 97.1875 134.445312 C 97.359375 134.445312 97.535156 134.503906 97.652344 134.617188 Z M 99.449219 136.414062 C 99.449219 136.472656 99.507812 136.53125 99.507812 136.648438 C 99.507812 136.53125 99.507812 136.472656 99.449219 136.414062 Z M 98.925781 135.546875 C 98.984375 135.601562 99.042969 135.660156 99.101562 135.777344 C 99.101562 135.660156 98.984375 135.601562 98.925781 135.546875 Z M 99.21875 135.953125 C 99.273438 136.007812 99.332031 136.066406 99.332031 136.183594 C 99.332031 136.066406 99.273438 136.007812 99.21875 135.953125 Z M 99.21875 135.953125 " fill-opacity="1" fill-rule="nonzero"/><path fill="#eb436e" d="M 163.214844 105.167969 C 163.15625 105.167969 163.15625 105.226562 163.097656 105.226562 C 163.097656 105.285156 163.042969 105.285156 163.042969 105.34375 Z M 163.214844 105.167969 " fill-opacity="1" fill-rule="nonzero"/><path fill="#eb436e" d="M 54.945312 94.269531 C 56.164062 93.113281 57.324219 91.953125 58.542969 90.792969 C 57.730469 84.300781 57.265625 77.691406 56.105469 71.257812 C 54.132812 60.300781 55.933594 49.054688 52.972656 38.214844 C 52.566406 36.648438 54.132812 33.925781 50.941406 34.214844 C 48.332031 34.445312 48.332031 36.996094 48.214844 39.085938 C 47.460938 49.984375 48.738281 60.878906 50.128906 71.605469 C 51.117188 79.199219 51 87.199219 54.945312 94.269531 Z M 54.945312 94.269531 " fill-opacity="1" fill-rule="nonzero"/><path fill="#eb436e" d="M 357.011719 198.382812 C 357.878906 198.441406 358.808594 198.441406 359.679688 198.5 C 360.957031 194.210938 365.773438 191.429688 364.378906 185.863281 C 361.941406 190.035156 359.445312 194.210938 357.011719 198.382812 Z M 357.011719 198.382812 " fill-opacity="1" fill-rule="nonzero"/><path fill="#eb436e" d="M 367.105469 175.890625 C 365.367188 175.949219 364.496094 176.992188 364.378906 178.617188 C 364.261719 180.238281 365.421875 180.644531 366.757812 180.820312 C 368.09375 180.414062 369.660156 180.183594 369.773438 178.386719 C 369.890625 176.53125 368.789062 175.835938 367.105469 175.890625 Z M 367.105469 175.890625 " fill-opacity="1" fill-rule="nonzero"/><path fill="#eb436e" d="M 199.246094 9.402344 C 199.191406 7.78125 199.132812 6.214844 199.015625 4.59375 C 196.40625 7.433594 196.40625 7.722656 199.246094 9.402344 Z M 199.246094 9.402344 " fill-opacity="1" fill-rule="nonzero"/><path fill="#eb436e" d="M 53.378906 26.097656 C 55.121094 31.375 56.917969 28.011719 58.660156 26.097656 C 59.878906 25.289062 61.15625 24.476562 62.371094 23.664062 C 61.964844 23.375 61.5625 23.144531 61.269531 22.96875 C 60.691406 22.679688 60.226562 22.679688 59.9375 22.792969 C 60.226562 22.621094 60.691406 22.679688 61.269531 22.96875 C 61.617188 23.144531 61.964844 23.316406 62.371094 23.664062 C 63.183594 23.664062 63.996094 23.605469 64.808594 23.605469 C 65.96875 22.332031 66.609375 22.390625 66.957031 23.199219 C 67.015625 23.375 67.074219 23.546875 67.128906 23.722656 C 67.074219 23.492188 67.015625 23.316406 66.957031 23.199219 C 66.609375 22.445312 65.96875 22.332031 64.808594 23.605469 C 65.679688 23.953125 66.492188 24.242188 67.363281 24.59375 C 69.21875 26.042969 71.367188 26.5625 73.628906 26.851562 C 75.371094 25.171875 76.703125 26.503906 78.15625 27.375 C 78.792969 27.78125 79.429688 28.011719 80.128906 27.839844 C 80.417969 27.433594 80.476562 27.085938 80.476562 26.738281 C 80.476562 27.085938 80.417969 27.433594 80.128906 27.839844 C 79.429688 28.011719 78.792969 27.722656 78.15625 27.375 C 76.761719 26.5625 75.429688 25.171875 73.628906 26.851562 C 76.472656 28.648438 79.375 30.445312 82.214844 32.1875 C 82.214844 32.011719 82.214844 31.839844 82.214844 31.664062 C 82.214844 31.839844 82.214844 32.011719 82.214844 32.1875 C 85 35.199219 87.613281 38.332031 90.570312 41.171875 C 97.59375 47.953125 101.132812 57.230469 107.570312 64.359375 C 108.152344 65.402344 108.734375 66.386719 109.3125 67.429688 C 109.488281 69.402344 110.820312 70.675781 112.273438 71.835938 C 115.984375 73.402344 119.871094 74.039062 123.875 74.503906 C 125.792969 74.734375 127.414062 75.257812 128.867188 73.519531 C 128.171875 73.226562 127.765625 72.765625 127.53125 72.300781 C 127.765625 72.765625 128.226562 73.171875 128.867188 73.519531 C 134.089844 73.054688 139.308594 72.648438 144.300781 70.675781 C 145.984375 70.675781 147.664062 70.675781 149.347656 70.675781 C 149.117188 70.445312 148.941406 70.214844 148.710938 70.039062 C 148.941406 70.214844 149.117188 70.445312 149.347656 70.675781 C 150.972656 70.910156 152.773438 70.734375 154.222656 71.375 C 158.804688 73.285156 161.125 72.011719 164.027344 67.722656 C 168.785156 60.707031 172.671875 53.230469 177.199219 46.15625 C 183.8125 35.78125 190.136719 25.171875 194.664062 13.636719 C 195.417969 12.824219 195.535156 11.257812 194.894531 11.199219 C 193.445312 11.085938 192.050781 11.898438 191.296875 13.347656 C 192.050781 13.402344 192.808594 13.460938 193.5625 13.519531 C 192.808594 13.460938 192.050781 13.402344 191.296875 13.347656 C 189.035156 15.664062 187.003906 18.214844 186.308594 21.519531 C 185.089844 22.214844 184.511719 23.316406 184.453125 24.707031 C 176.210938 36.476562 168.4375 48.589844 162.171875 61.460938 C 160.199219 65.519531 157.644531 66.5625 153.988281 65.632812 C 149.058594 64.417969 144.242188 65.34375 139.367188 65.460938 C 137.628906 64.878906 136.175781 65.226562 134.84375 66.445312 C 131.882812 66.039062 129.503906 67.546875 126.953125 68.648438 C 127.066406 69.578125 126.953125 70.5625 127.183594 71.429688 C 127.007812 70.5625 127.066406 69.578125 126.953125 68.648438 C 124.574219 64.476562 121.960938 61.285156 117.378906 66.445312 C 117.261719 66.621094 116.277344 66.039062 115.695312 65.867188 C 114.882812 64.011719 114.246094 62.039062 112.503906 60.707031 C 111.113281 60.359375 110.761719 59.429688 110.820312 58.386719 C 110.707031 59.488281 111.113281 60.359375 112.503906 60.707031 C 112.503906 59.429688 112.039062 58.332031 110.9375 57.578125 C 110.878906 57.75 110.878906 57.925781 110.820312 58.097656 C 110.820312 57.925781 110.878906 57.75 110.9375 57.578125 C 107.398438 52.300781 104.265625 46.621094 100.085938 41.925781 C 95.792969 37.054688 92.542969 31.085938 86.21875 28.1875 C 85.871094 28.1875 85.582031 28.1875 85.292969 28.242188 C 85 28.300781 84.710938 28.300781 84.421875 28.359375 C 84.015625 28.476562 83.667969 28.589844 83.320312 28.765625 C 83.609375 28.589844 84.015625 28.417969 84.421875 28.359375 C 84.710938 28.300781 85 28.242188 85.292969 28.242188 C 85.582031 28.1875 85.929688 28.1875 86.21875 28.1875 C 84.539062 25.867188 82.101562 24.648438 79.546875 23.605469 C 76.703125 22.214844 74.441406 19.375 70.785156 20.011719 C 70.03125 19.375 69.21875 19.144531 68.292969 19.546875 C 65.796875 19.027344 63.359375 18.214844 60.863281 19.492188 C 58.949219 20.1875 56.6875 20.070312 55.121094 21.695312 L 54.65625 21.925781 C 54.65625 22.792969 54.714844 23.664062 54.480469 24.417969 C 54.425781 24.59375 54.367188 24.765625 54.25 24.882812 C 54.367188 24.707031 54.425781 24.535156 54.480469 24.417969 C 54.714844 23.664062 54.65625 22.792969 54.65625 21.925781 C 51.988281 22.5625 53.089844 24.476562 53.378906 26.097656 Z M 186.191406 24.011719 C 186.25 23.953125 186.308594 23.894531 186.308594 23.839844 C 186.308594 23.839844 186.25 23.894531 186.191406 24.011719 Z M 185.960938 24.242188 L 185.902344 24.300781 Z M 138.554688 66.503906 C 138.324219 66.621094 138.035156 66.734375 137.800781 66.792969 C 138.035156 66.734375 138.324219 66.675781 138.554688 66.503906 Z M 137.6875 66.851562 C 137.394531 66.910156 137.164062 66.910156 136.875 66.910156 C 137.164062 66.910156 137.394531 66.910156 137.6875 66.851562 Z M 127.589844 72.359375 C 127.53125 72.242188 127.472656 72.070312 127.414062 71.953125 C 127.472656 72.070312 127.53125 72.183594 127.589844 72.359375 Z M 109.546875 66.675781 C 109.546875 66.503906 109.546875 66.328125 109.546875 66.15625 C 109.546875 66.328125 109.546875 66.445312 109.546875 66.675781 Z M 109.371094 65.460938 C 109.3125 65.34375 109.195312 65.226562 109.140625 65.113281 C 109.195312 65.226562 109.253906 65.34375 109.371094 65.460938 Z M 83.027344 29.34375 C 82.679688 29.691406 82.449219 30.15625 82.332031 30.738281 C 82.449219 30.15625 82.679688 29.691406 83.027344 29.34375 Z M 59.238281 23.894531 C 59.296875 23.664062 59.414062 23.492188 59.53125 23.316406 C 59.355469 23.433594 59.296875 23.664062 59.238281 23.894531 Z M 58.949219 21.636719 C 58.601562 21.808594 58.253906 21.925781 57.847656 21.984375 C 58.195312 21.867188 58.601562 21.75 58.949219 21.636719 Z M 54.25 25.402344 C 54.132812 25.519531 54.074219 25.636719 53.960938 25.691406 C 54.074219 25.636719 54.191406 25.519531 54.25 25.402344 Z M 54.25 25.402344 " fill-opacity="1" fill-rule="nonzero"/><path fill="#eb436e" d="M 128.632812 135.894531 C 129.851562 135.199219 130.433594 134.097656 130.605469 132.703125 C 133.042969 131.429688 133.625 127.835938 136.988281 127.660156 C 140.761719 131.894531 144.417969 136.183594 148.304688 140.355469 C 149.929688 142.097656 151.902344 143.3125 154.164062 141.226562 C 156.136719 139.371094 155.265625 137.632812 153.816406 135.894531 C 150.160156 131.3125 147.375 125.921875 142.039062 122.792969 C 140.238281 120.878906 143.371094 116.066406 138.148438 116.125 C 138.207031 116.183594 138.265625 116.242188 138.324219 116.300781 C 138.265625 116.242188 138.207031 116.183594 138.148438 116.125 C 135.132812 115.894531 132 115.023438 129.503906 117.691406 C 125.792969 120.125 129.679688 122.039062 129.96875 124.183594 C 130.199219 124.007812 130.433594 123.894531 130.605469 123.71875 C 130.78125 123.546875 130.957031 123.429688 131.011719 123.257812 C 131.1875 123.023438 131.246094 122.851562 131.304688 122.617188 C 131.304688 122.503906 131.304688 122.328125 131.304688 122.210938 C 131.304688 122.328125 131.363281 122.503906 131.304688 122.617188 C 131.304688 122.851562 131.1875 123.023438 131.011719 123.257812 C 130.898438 123.371094 130.78125 123.546875 130.605469 123.71875 C 130.433594 123.894531 130.199219 124.007812 129.96875 124.183594 C 124.863281 127.835938 122.25 133.574219 118.539062 138.328125 C 117.667969 139.429688 116.449219 141.226562 118.191406 142.675781 C 119.582031 143.835938 121.324219 143.488281 122.832031 142.792969 C 125.734375 141.34375 127.007812 138.445312 128.632812 135.894531 C 128.578125 135.601562 128.519531 135.3125 128.519531 135.023438 C 128.519531 135.3125 128.578125 135.601562 128.632812 135.894531 Z M 142.039062 122.734375 C 138.382812 122.269531 139.714844 118.910156 138.789062 116.878906 C 139.714844 118.910156 138.382812 122.269531 142.039062 122.734375 Z M 138.5 116.414062 C 138.441406 116.359375 138.441406 116.300781 138.382812 116.242188 C 138.441406 116.359375 138.441406 116.414062 138.5 116.414062 Z M 138.730469 116.878906 C 138.730469 116.820312 138.671875 116.761719 138.613281 116.707031 C 138.671875 116.761719 138.730469 116.820312 138.730469 116.878906 Z M 138.613281 116.648438 C 138.554688 116.589844 138.554688 116.53125 138.5 116.472656 C 138.554688 116.53125 138.613281 116.589844 138.613281 116.648438 Z M 137.28125 127.3125 Z M 137.570312 127.023438 Z M 130.605469 121.054688 C 130.722656 121.167969 130.839844 121.285156 130.898438 121.457031 C 130.839844 121.285156 130.722656 121.167969 130.605469 121.054688 Z M 129.039062 133.402344 C 128.925781 133.515625 128.867188 133.574219 128.808594 133.691406 C 128.867188 133.574219 128.925781 133.515625 129.039062 133.402344 Z M 129.039062 133.402344 " fill-opacity="1" fill-rule="nonzero"/><path fill="#eb436e" d="M 167.800781 120.472656 C 172.558594 122.503906 177.257812 123.3125 182.769531 122.039062 C 187.992188 120.820312 191.9375 118.910156 192.691406 113.691406 C 193.503906 107.777344 189.269531 104.765625 184.21875 103.082031 C 176.910156 100.589844 169.886719 102.15625 163.15625 105.34375 C 158.339844 112.761719 159.503906 116.9375 167.800781 120.472656 Z M 167.800781 120.472656 " fill-opacity="1" fill-rule="nonzero"/><path fill="#eb436e" d="M 163.042969 105.34375 C 163.101562 105.34375 163.101562 105.34375 163.15625 105.285156 C 163.214844 105.226562 163.214844 105.167969 163.214844 105.167969 C 163.214844 105.167969 163.042969 105.34375 163.042969 105.34375 Z M 163.042969 105.34375 " fill-opacity="1" fill-rule="nonzero"/><g fill="#eb436e" fill-opacity="1"><g transform="translate(13.785641, 254.556515)"><g><path d="M 0.359375 -16.484375 C 0.453125 -16.960938 0.515625 -17.242188 0.546875 -17.328125 C 0.660156 -17.734375 0.90625 -18.046875 1.28125 -18.265625 C 1.425781 -18.359375 1.734375 -18.507812 2.203125 -18.71875 C 3.273438 -19.195312 4.429688 -19.535156 5.671875 -19.734375 C 6.941406 -19.941406 8.210938 -19.992188 9.484375 -19.890625 C 10.796875 -19.773438 12.003906 -19.476562 13.109375 -19 C 14.296875 -18.476562 15.296875 -17.773438 16.109375 -16.890625 C 16.492188 -16.460938 16.84375 -15.976562 17.15625 -15.4375 C 17.46875 -14.8125 17.691406 -14.242188 17.828125 -13.734375 C 17.972656 -13.117188 18.015625 -12.53125 17.953125 -11.96875 C 17.804688 -10.601562 16.96875 -9.398438 15.4375 -8.359375 C 13.90625 -7.328125 12.613281 -6.675781 11.5625 -6.40625 C 10.40625 -6.125 9.003906 -6.007812 7.359375 -6.0625 C 7.296875 -6.070312 7.203125 -6.0625 7.078125 -6.03125 C 6.953125 -6 6.851562 -5.960938 6.78125 -5.921875 C 6.664062 -5.867188 6.554688 -5.804688 6.453125 -5.734375 C 6.203125 -5.546875 6.003906 -5.226562 5.859375 -4.78125 C 5.734375 -4.382812 5.648438 -3.914062 5.609375 -3.375 C 5.585938 -3.039062 5.578125 -2.554688 5.578125 -1.921875 C 5.578125 -1.679688 5.582031 -1.460938 5.59375 -1.265625 C 5.601562 -1.066406 5.613281 -0.894531 5.625 -0.75 C 5.632812 -0.59375 5.628906 -0.453125 5.609375 -0.328125 C 5.578125 -0.222656 5.523438 -0.140625 5.453125 -0.078125 C 5.359375 -0.015625 5.257812 0.015625 5.15625 0.015625 C 5.007812 0.0351562 4.878906 0.046875 4.765625 0.046875 C 4.316406 0.046875 3.832031 0.0078125 3.3125 -0.0625 C 2.789062 -0.132812 2.351562 -0.300781 2 -0.5625 C 1.894531 -0.625 1.800781 -0.710938 1.71875 -0.828125 C 1.5625 -1.015625 1.40625 -1.40625 1.25 -2 C 1.113281 -2.457031 0.976562 -3.050781 0.84375 -3.78125 C 0.71875 -4.351562 0.609375 -4.96875 0.515625 -5.625 C 0.398438 -6.300781 0.335938 -6.726562 0.328125 -6.90625 C 0.328125 -6.957031 0.328125 -7.015625 0.328125 -7.078125 C 0.316406 -7.109375 0.304688 -7.140625 0.296875 -7.171875 C 0.296875 -7.203125 0.296875 -7.226562 0.296875 -7.25 C 0.296875 -7.320312 0.289062 -7.375 0.28125 -7.40625 C 0.28125 -7.425781 0.273438 -7.445312 0.265625 -7.46875 C 0.265625 -7.5 0.265625 -7.53125 0.265625 -7.5625 C 0.234375 -7.90625 0.195312 -8.253906 0.15625 -8.609375 C 0.125 -8.972656 0.101562 -9.335938 0.09375 -9.703125 C 0.0390625 -10.367188 0.0078125 -11.128906 0 -11.984375 C 0 -12.898438 0.0234375 -13.671875 0.078125 -14.296875 C 0.140625 -15.148438 0.234375 -15.878906 0.359375 -16.484375 Z M 11.4375 -15.359375 C 10.28125 -15.847656 8.832031 -15.910156 7.09375 -15.546875 C 6.914062 -15.472656 6.769531 -15.414062 6.65625 -15.375 C 6.25 -15.175781 5.9375 -14.851562 5.71875 -14.40625 C 5.550781 -14.039062 5.472656 -13.472656 5.484375 -12.703125 C 5.492188 -11.941406 5.597656 -11.398438 5.796875 -11.078125 C 5.941406 -10.878906 6.082031 -10.726562 6.21875 -10.625 C 6.59375 -10.28125 7.347656 -10.117188 8.484375 -10.140625 C 9.066406 -10.128906 9.691406 -10.171875 10.359375 -10.265625 C 11.035156 -10.367188 11.613281 -10.640625 12.09375 -11.078125 C 12.375 -11.347656 12.585938 -11.648438 12.734375 -11.984375 C 12.890625 -12.335938 12.96875 -12.707031 12.96875 -13.09375 C 12.945312 -13.9375 12.5625 -14.625 11.8125 -15.15625 C 11.695312 -15.226562 11.570312 -15.296875 11.4375 -15.359375 Z M 11.4375 -15.359375 "/></g></g><g transform="translate(32.058795, 254.556515)"><g><path d="M 0.46875 -4.09375 C 0.34375 -5.75 0.363281 -7.429688 0.53125 -9.140625 C 0.707031 -10.847656 0.984375 -12.019531 1.359375 -12.65625 C 1.734375 -13.300781 2.101562 -13.609375 2.46875 -13.578125 C 2.832031 -13.554688 3.179688 -13.515625 3.515625 -13.453125 C 3.816406 -13.390625 4.054688 -13.332031 4.234375 -13.28125 C 4.273438 -13.257812 4.328125 -13.226562 4.390625 -13.1875 C 4.429688 -13.164062 4.476562 -13.125 4.53125 -13.0625 C 4.53125 -13.0625 4.582031 -13.007812 4.6875 -12.90625 C 4.707031 -12.882812 4.742188 -12.828125 4.796875 -12.734375 C 4.828125 -12.691406 4.851562 -12.628906 4.875 -12.546875 C 4.894531 -12.429688 4.921875 -12.316406 4.953125 -12.203125 C 4.953125 -12.179688 4.96875 -12.078125 5 -11.890625 C 5.007812 -11.753906 4.9375 -10.703125 4.78125 -8.734375 C 4.632812 -6.765625 4.726562 -4.472656 5.0625 -1.859375 C 5.050781 -1.585938 5.019531 -1.316406 4.96875 -1.046875 C 4.90625 -0.785156 4.847656 -0.601562 4.796875 -0.5 C 4.691406 -0.34375 4.488281 -0.226562 4.1875 -0.15625 C 4.039062 -0.113281 3.878906 -0.0859375 3.703125 -0.078125 C 3.535156 -0.078125 3.363281 -0.0820312 3.1875 -0.09375 C 2.851562 -0.101562 2.492188 -0.144531 2.109375 -0.21875 C 1.835938 -0.257812 1.59375 -0.320312 1.375 -0.40625 C 1.320312 -0.4375 1.28125 -0.460938 1.25 -0.484375 C 1.21875 -0.492188 1.164062 -0.535156 1.09375 -0.609375 C 1.0625 -0.640625 1.019531 -0.691406 0.96875 -0.765625 C 0.96875 -0.753906 0.925781 -0.8125 0.84375 -0.9375 C 0.8125 -0.957031 0.785156 -1.019531 0.765625 -1.125 C 0.742188 -1.207031 0.71875 -1.320312 0.6875 -1.46875 C 0.675781 -1.570312 0.601562 -2.445312 0.46875 -4.09375 Z M 2.9375 -19.1875 C 3.53125 -19.1875 4.035156 -18.984375 4.453125 -18.578125 C 4.867188 -18.179688 5.078125 -17.695312 5.078125 -17.125 C 5.078125 -16.550781 4.867188 -16.0625 4.453125 -15.65625 C 4.035156 -15.257812 3.53125 -15.0625 2.9375 -15.0625 C 2.351562 -15.0625 1.851562 -15.257812 1.4375 -15.65625 C 1.019531 -16.0625 0.8125 -16.550781 0.8125 -17.125 C 0.8125 -17.695312 1.019531 -18.179688 1.4375 -18.578125 C 1.851562 -18.984375 2.351562 -19.1875 2.9375 -19.1875 Z M 2.9375 -19.1875 "/></g></g><g transform="translate(37.672334, 254.556515)"><g><path d="M 2.03125 -0.234375 C 1.863281 -0.285156 1.726562 -0.347656 1.625 -0.421875 C 1.3125 -0.648438 1.082031 -0.988281 0.9375 -1.4375 C 0.789062 -1.882812 0.691406 -2.328125 0.640625 -2.765625 C 0.515625 -3.585938 0.445312 -4.632812 0.4375 -5.90625 C 0.425781 -7.1875 0.46875 -8.503906 0.5625 -9.859375 C 0.65625 -11.222656 0.921875 -12.175781 1.359375 -12.71875 C 1.554688 -13.050781 1.785156 -13.28125 2.046875 -13.40625 C 2.335938 -13.550781 2.679688 -13.632812 3.078125 -13.65625 C 3.484375 -13.6875 3.835938 -13.6875 4.140625 -13.65625 C 4.597656 -13.601562 4.945312 -13.457031 5.1875 -13.21875 C 5.425781 -12.988281 5.488281 -12.5625 5.375 -11.9375 C 6.300781 -12.632812 7.03125 -12.960938 7.5625 -12.921875 C 8.394531 -12.878906 9.253906 -12.53125 10.140625 -11.875 C 11.078125 -11.175781 11.769531 -10.269531 12.21875 -9.15625 C 12.664062 -8.039062 12.96875 -6.921875 13.125 -5.796875 C 13.238281 -5.015625 13.285156 -4.101562 13.265625 -3.0625 C 13.253906 -2.019531 13.050781 -1.128906 12.65625 -0.390625 C 12.507812 -0.128906 12.3125 0.015625 12.0625 0.046875 C 11.613281 0.117188 11.148438 0.0546875 10.671875 -0.140625 C 10.191406 -0.335938 9.835938 -0.554688 9.609375 -0.796875 C 9.503906 -0.890625 9.4375 -1 9.40625 -1.125 C 9.34375 -1.3125 9.328125 -1.507812 9.359375 -1.71875 C 9.398438 -1.925781 9.441406 -2.125 9.484375 -2.3125 C 9.640625 -3 9.722656 -3.6875 9.734375 -4.375 C 9.753906 -5.070312 9.742188 -5.742188 9.703125 -6.390625 C 9.578125 -7.046875 9.375 -7.582031 9.09375 -8 C 8.5 -9 7.828125 -9.507812 7.078125 -9.53125 C 6.335938 -9.550781 5.835938 -9.109375 5.578125 -8.203125 C 5.367188 -7.484375 5.269531 -6.566406 5.28125 -5.453125 C 5.28125 -5.410156 5.28125 -5.367188 5.28125 -5.328125 C 5.34375 -4.398438 5.445312 -3.515625 5.59375 -2.671875 C 5.625 -2.472656 5.691406 -2.179688 5.796875 -1.796875 C 5.910156 -1.335938 5.90625 -1.039062 5.78125 -0.90625 C 5.75 -0.863281 5.710938 -0.828125 5.671875 -0.796875 C 5.578125 -0.585938 5.414062 -0.421875 5.1875 -0.296875 C 4.8125 -0.109375 4.398438 -0.00390625 3.953125 0.015625 C 3.609375 0.0234375 3.269531 0.0078125 2.9375 -0.03125 C 2.78125 -0.0195312 2.628906 -0.0195312 2.484375 -0.03125 C 2.316406 -0.0390625 2.164062 -0.109375 2.03125 -0.234375 Z M 2.03125 -0.234375 "/></g></g><g transform="translate(51.114846, 254.556515)"><g><path d="M 3.765625 -9.296875 C 4.828125 -10.804688 5.613281 -11.851562 6.125 -12.4375 C 6.632812 -13.019531 7.203125 -13.503906 7.828125 -13.890625 C 8.078125 -14.054688 8.359375 -14.210938 8.671875 -14.359375 C 8.992188 -14.503906 9.304688 -14.550781 9.609375 -14.5 C 9.941406 -14.445312 10.414062 -14.164062 11.03125 -13.65625 C 11.644531 -13.15625 11.738281 -12.695312 11.3125 -12.28125 C 11.195312 -12.164062 11.0625 -12.0625 10.90625 -11.96875 C 10.75 -11.882812 10.601562 -11.796875 10.46875 -11.703125 C 9.664062 -11.210938 8.976562 -10.679688 8.40625 -10.109375 C 7.832031 -9.535156 7.269531 -8.9375 6.71875 -8.3125 C 7.101562 -8.039062 7.625 -7.660156 8.28125 -7.171875 C 8.945312 -6.691406 9.617188 -6.191406 10.296875 -5.671875 C 10.984375 -5.148438 11.609375 -4.660156 12.171875 -4.203125 C 12.742188 -3.753906 13.128906 -3.429688 13.328125 -3.234375 C 13.796875 -2.742188 13.675781 -2.1875 12.96875 -1.5625 C 12.269531 -0.945312 11.742188 -0.609375 11.390625 -0.546875 C 11.046875 -0.484375 10.625 -0.628906 10.125 -0.984375 C 9.625 -1.347656 9.117188 -1.738281 8.609375 -2.15625 C 8.109375 -2.582031 7.601562 -3.039062 7.09375 -3.53125 C 6.59375 -4.019531 6.035156 -4.515625 5.421875 -5.015625 C 4.867188 -5.421875 4.46875 -5.660156 4.21875 -5.734375 C 4.601562 -4.109375 5 -2.84375 5.40625 -1.9375 C 5.476562 -1.78125 5.554688 -1.617188 5.640625 -1.453125 C 5.722656 -1.285156 5.773438 -1.117188 5.796875 -0.953125 C 5.828125 -0.640625 5.691406 -0.398438 5.390625 -0.234375 C 5.085938 -0.078125 4.71875 0.0234375 4.28125 0.078125 C 3.851562 0.140625 3.507812 0.15625 3.25 0.125 C 3 0.09375 2.78125 0.0390625 2.59375 -0.03125 C 2.257812 -0.15625 1.992188 -0.375 1.796875 -0.6875 C 1.597656 -1.007812 1.4375 -1.3125 1.3125 -1.59375 C 1.070312 -2.175781 0.851562 -2.921875 0.65625 -3.828125 C 0.457031 -4.734375 0.300781 -5.671875 0.1875 -6.640625 C 0.0703125 -7.609375 0.00390625 -9.429688 -0.015625 -12.109375 C -0.046875 -14.796875 -0.0195312 -16.425781 0.0625 -17 C 0.15625 -17.507812 0.28125 -17.921875 0.4375 -18.234375 C 0.550781 -18.492188 0.722656 -18.671875 0.953125 -18.765625 C 1.203125 -18.898438 1.429688 -18.984375 1.640625 -19.015625 C 1.847656 -19.046875 2.09375 -19.0625 2.375 -19.0625 C 2.800781 -19.050781 3.140625 -18.976562 3.390625 -18.84375 C 3.648438 -18.707031 3.773438 -18.394531 3.765625 -17.90625 C 3.710938 -17.25 3.710938 -14.378906 3.765625 -9.296875 Z M 3.765625 -9.296875 "/></g></g><g transform="translate(64.524042, 254.556515)"><g><path d="M 0.734375 -11.6875 C 1.035156 -12.15625 1.296875 -12.492188 1.515625 -12.703125 C 1.742188 -12.921875 2.070312 -13.195312 2.5 -13.53125 C 2.96875 -13.726562 3.429688 -13.59375 3.890625 -13.125 C 4.566406 -12.445312 5.132812 -11.476562 5.59375 -10.21875 C 6.0625 -8.96875 6.609375 -7.96875 7.234375 -7.21875 C 7.421875 -6.957031 7.625 -6.90625 7.84375 -7.0625 C 8.070312 -7.226562 8.265625 -7.40625 8.421875 -7.59375 C 8.878906 -8.113281 9.320312 -8.84375 9.75 -9.78125 C 10.175781 -10.726562 10.539062 -11.535156 10.84375 -12.203125 C 11.019531 -12.617188 11.21875 -12.914062 11.4375 -13.09375 C 11.65625 -13.28125 11.972656 -13.28125 12.390625 -13.09375 C 12.785156 -12.894531 13.117188 -12.640625 13.390625 -12.328125 C 13.671875 -12.023438 13.9375 -11.671875 14.1875 -11.265625 C 14.476562 -10.804688 14.550781 -10.195312 14.40625 -9.4375 C 14.21875 -8.476562 13.882812 -7.523438 13.40625 -6.578125 C 12.9375 -5.628906 12.488281 -4.753906 12.0625 -3.953125 C 11.59375 -3.117188 11.101562 -2.316406 10.59375 -1.546875 C 10.09375 -0.785156 9.582031 -0.0234375 9.0625 0.734375 C 8.570312 1.398438 8.082031 2.066406 7.59375 2.734375 C 7.101562 3.398438 6.570312 4 6 4.53125 C 5.382812 5.09375 4.816406 5.457031 4.296875 5.625 C 3.910156 5.75 3.453125 5.671875 2.921875 5.390625 C 2.390625 5.109375 2.019531 4.800781 1.8125 4.46875 C 1.601562 4.144531 1.394531 3.796875 1.1875 3.421875 C 0.976562 3.054688 0.988281 2.707031 1.21875 2.375 C 1.394531 2.113281 1.65625 1.847656 2 1.578125 C 2.351562 1.304688 2.648438 1.007812 2.890625 0.6875 C 3.117188 0.40625 3.332031 0.175781 3.53125 0 C 3.738281 -0.1875 4.023438 -0.585938 4.390625 -1.203125 C 5.097656 -2.148438 5.085938 -3.125 4.359375 -4.125 C 4.078125 -4.625 3.671875 -5.234375 3.140625 -5.953125 C 2.609375 -6.671875 2.179688 -7.257812 1.859375 -7.71875 C 1.640625 -8.03125 1.421875 -8.363281 1.203125 -8.71875 C 0.984375 -9.070312 0.800781 -9.441406 0.65625 -9.828125 C 0.5 -10.171875 0.414062 -10.476562 0.40625 -10.75 C 0.40625 -11.019531 0.515625 -11.332031 0.734375 -11.6875 Z M 0.734375 -11.6875 "/></g></g><g transform="translate(79.015969, 254.556515)"><g><path d="M 5.609375 -14.25 C 7.085938 -16.5 8.175781 -18.0625 8.875 -18.9375 C 9.582031 -19.8125 10.363281 -20.539062 11.21875 -21.125 C 11.582031 -21.363281 11.984375 -21.59375 12.421875 -21.8125 C 12.867188 -22.03125 13.289062 -22.101562 13.6875 -22.03125 C 14.15625 -21.957031 14.816406 -21.539062 15.671875 -20.78125 C 16.535156 -20.03125 16.664062 -19.34375 16.0625 -18.71875 C 15.90625 -18.539062 15.71875 -18.382812 15.5 -18.25 C 15.289062 -18.113281 15.09375 -17.988281 14.90625 -17.875 C 13.78125 -17.132812 12.820312 -16.332031 12.03125 -15.46875 C 11.238281 -14.613281 10.457031 -13.722656 9.6875 -12.796875 C 10.238281 -12.390625 10.96875 -11.820312 11.875 -11.09375 C 12.78125 -10.375 13.707031 -9.628906 14.65625 -8.859375 C 15.601562 -8.097656 16.46875 -7.375 17.25 -6.6875 C 18.039062 -6 18.578125 -5.507812 18.859375 -5.21875 C 19.484375 -4.476562 19.3125 -3.644531 18.34375 -2.71875 C 17.382812 -1.800781 16.660156 -1.300781 16.171875 -1.21875 C 15.691406 -1.125 15.101562 -1.347656 14.40625 -1.890625 C 13.71875 -2.429688 13.023438 -3.007812 12.328125 -3.625 C 11.640625 -4.25 10.941406 -4.925781 10.234375 -5.65625 C 9.523438 -6.394531 8.75 -7.132812 7.90625 -7.875 C 7.144531 -8.5 6.585938 -8.851562 6.234375 -8.9375 C 6.765625 -6.519531 7.316406 -4.632812 7.890625 -3.28125 C 7.984375 -3.050781 8.085938 -2.8125 8.203125 -2.5625 C 8.316406 -2.3125 8.382812 -2.0625 8.40625 -1.8125 C 8.46875 -1.351562 8.285156 -1.003906 7.859375 -0.765625 C 7.429688 -0.535156 6.914062 -0.375 6.3125 -0.28125 C 5.71875 -0.195312 5.242188 -0.171875 4.890625 -0.203125 C 4.546875 -0.242188 4.25 -0.328125 4 -0.453125 C 3.53125 -0.640625 3.15625 -0.96875 2.875 -1.4375 C 2.601562 -1.914062 2.390625 -2.367188 2.234375 -2.796875 C 1.878906 -3.648438 1.566406 -4.75 1.296875 -6.09375 C 1.035156 -7.445312 0.820312 -8.847656 0.65625 -10.296875 C 0.5 -11.742188 0.398438 -13.140625 0.359375 -14.484375 C 0.316406 -15.835938 0.359375 -16.941406 0.484375 -17.796875 C 0.609375 -18.566406 0.773438 -19.1875 0.984375 -19.65625 C 1.160156 -20.019531 1.398438 -20.285156 1.703125 -20.453125 C 2.054688 -20.640625 2.375 -20.757812 2.65625 -20.8125 C 2.9375 -20.863281 3.285156 -20.890625 3.703125 -20.890625 C 4.285156 -20.878906 4.75 -20.769531 5.09375 -20.5625 C 5.445312 -20.351562 5.613281 -19.882812 5.59375 -19.15625 C 5.53125 -18.175781 5.535156 -16.539062 5.609375 -14.25 Z M 5.609375 -14.25 "/></g></g><g transform="translate(98.355196, 254.556515)"><g><path d="M 0.46875 -4.09375 C 0.34375 -5.75 0.363281 -7.429688 0.53125 -9.140625 C 0.707031 -10.847656 0.984375 -12.019531 1.359375 -12.65625 C 1.734375 -13.300781 2.101562 -13.609375 2.46875 -13.578125 C 2.832031 -13.554688 3.179688 -13.515625 3.515625 -13.453125 C 3.816406 -13.390625 4.054688 -13.332031 4.234375 -13.28125 C 4.273438 -13.257812 4.328125 -13.226562 4.390625 -13.1875 C 4.429688 -13.164062 4.476562 -13.125 4.53125 -13.0625 C 4.53125 -13.0625 4.582031 -13.007812 4.6875 -12.90625 C 4.707031 -12.882812 4.742188 -12.828125 4.796875 -12.734375 C 4.828125 -12.691406 4.851562 -12.628906 4.875 -12.546875 C 4.894531 -12.429688 4.921875 -12.316406 4.953125 -12.203125 C 4.953125 -12.179688 4.96875 -12.078125 5 -11.890625 C 5.007812 -11.753906 4.9375 -10.703125 4.78125 -8.734375 C 4.632812 -6.765625 4.726562 -4.472656 5.0625 -1.859375 C 5.050781 -1.585938 5.019531 -1.316406 4.96875 -1.046875 C 4.90625 -0.785156 4.847656 -0.601562 4.796875 -0.5 C 4.691406 -0.34375 4.488281 -0.226562 4.1875 -0.15625 C 4.039062 -0.113281 3.878906 -0.0859375 3.703125 -0.078125 C 3.535156 -0.078125 3.363281 -0.0820312 3.1875 -0.09375 C 2.851562 -0.101562 2.492188 -0.144531 2.109375 -0.21875 C 1.835938 -0.257812 1.59375 -0.320312 1.375 -0.40625 C 1.320312 -0.4375 1.28125 -0.460938 1.25 -0.484375 C 1.21875 -0.492188 1.164062 -0.535156 1.09375 -0.609375 C 1.0625 -0.640625 1.019531 -0.691406 0.96875 -0.765625 C 0.96875 -0.753906 0.925781 -0.8125 0.84375 -0.9375 C 0.8125 -0.957031 0.785156 -1.019531 0.765625 -1.125 C 0.742188 -1.207031 0.71875 -1.320312 0.6875 -1.46875 C 0.675781 -1.570312 0.601562 -2.445312 0.46875 -4.09375 Z M 2.9375 -19.1875 C 3.53125 -19.1875 4.035156 -18.984375 4.453125 -18.578125 C 4.867188 -18.179688 5.078125 -17.695312 5.078125 -17.125 C 5.078125 -16.550781 4.867188 -16.0625 4.453125 -15.65625 C 4.035156 -15.257812 3.53125 -15.0625 2.9375 -15.0625 C 2.351562 -15.0625 1.851562 -15.257812 1.4375 -15.65625 C 1.019531 -16.0625 0.8125 -16.550781 0.8125 -17.125 C 0.8125 -17.695312 1.019531 -18.179688 1.4375 -18.578125 C 1.851562 -18.984375 2.351562 -19.1875 2.9375 -19.1875 Z M 2.9375 -19.1875 "/></g></g><g transform="translate(103.968736, 254.556515)"><g><path d="M 2.9375 -13.453125 C 2.988281 -14.453125 3.078125 -15.28125 3.203125 -15.9375 C 3.328125 -16.613281 3.484375 -17.140625 3.671875 -17.515625 C 3.804688 -17.835938 3.976562 -18.054688 4.1875 -18.171875 C 4.445312 -18.304688 4.820312 -18.394531 5.3125 -18.4375 C 5.800781 -18.476562 6.1875 -18.484375 6.46875 -18.453125 C 6.851562 -18.398438 7.160156 -18.265625 7.390625 -18.046875 C 7.617188 -17.828125 7.695312 -17.394531 7.625 -16.75 C 7.519531 -15.71875 7.4375 -14.632812 7.375 -13.5 C 7.644531 -13.488281 7.910156 -13.472656 8.171875 -13.453125 C 8.609375 -13.410156 9.046875 -13.320312 9.484375 -13.1875 C 9.910156 -13.0625 10.257812 -12.890625 10.53125 -12.671875 C 10.71875 -12.503906 10.859375 -12.234375 10.953125 -11.859375 C 11.046875 -11.523438 11.082031 -11.140625 11.0625 -10.703125 C 11.03125 -10.296875 10.960938 -9.960938 10.859375 -9.703125 C 10.734375 -9.421875 10.578125 -9.285156 10.390625 -9.296875 C 10.304688 -9.296875 10.210938 -9.3125 10.109375 -9.34375 C 10.035156 -9.351562 9.925781 -9.382812 9.78125 -9.4375 C 9.113281 -9.664062 8.359375 -9.800781 7.515625 -9.84375 L 7.34375 -9.84375 C 7.34375 -9.726562 7.347656 -9.617188 7.359375 -9.515625 C 7.429688 -6.878906 7.695312 -4.550781 8.15625 -2.53125 C 8.207031 -2.320312 8.257812 -2.101562 8.3125 -1.875 C 8.375 -1.644531 8.410156 -1.421875 8.421875 -1.203125 C 8.421875 -0.785156 8.269531 -0.488281 7.96875 -0.3125 C 7.675781 -0.132812 7.328125 -0.0351562 6.921875 -0.015625 C 6.523438 0.00390625 6.050781 -0.0195312 5.5 -0.09375 C 4.957031 -0.164062 4.601562 -0.265625 4.4375 -0.390625 C 4.132812 -0.597656 3.90625 -0.914062 3.75 -1.34375 C 3.59375 -1.769531 3.472656 -2.1875 3.390625 -2.59375 C 3.222656 -3.375 3.09375 -4.367188 3 -5.578125 C 2.90625 -6.785156 2.851562 -8.035156 2.84375 -9.328125 C 2.832031 -9.535156 2.828125 -9.742188 2.828125 -9.953125 L 2.75 -9.953125 C 2.09375 -9.941406 1.445312 -9.882812 0.8125 -9.78125 C 0.644531 -9.738281 0.539062 -9.71875 0.5 -9.71875 C 0.394531 -9.71875 0.300781 -9.738281 0.21875 -9.78125 C 0.144531 -9.8125 0.078125 -9.867188 0.015625 -9.953125 C -0.0234375 -10.023438 -0.0664062 -10.140625 -0.109375 -10.296875 C -0.191406 -10.566406 -0.226562 -10.875 -0.21875 -11.21875 C -0.21875 -11.5625 -0.179688 -11.878906 -0.109375 -12.171875 C -0.046875 -12.484375 0.160156 -12.726562 0.515625 -12.90625 C 0.710938 -13.007812 0.941406 -13.101562 1.203125 -13.1875 C 1.378906 -13.226562 1.640625 -13.285156 1.984375 -13.359375 C 2.128906 -13.378906 2.382812 -13.410156 2.75 -13.453125 Z M 2.9375 -13.453125 "/></g></g><g transform="translate(115.279102, 254.556515)"><g><path d="M 2.9375 -13.453125 C 2.988281 -14.453125 3.078125 -15.28125 3.203125 -15.9375 C 3.328125 -16.613281 3.484375 -17.140625 3.671875 -17.515625 C 3.804688 -17.835938 3.976562 -18.054688 4.1875 -18.171875 C 4.445312 -18.304688 4.820312 -18.394531 5.3125 -18.4375 C 5.800781 -18.476562 6.1875 -18.484375 6.46875 -18.453125 C 6.851562 -18.398438 7.160156 -18.265625 7.390625 -18.046875 C 7.617188 -17.828125 7.695312 -17.394531 7.625 -16.75 C 7.519531 -15.71875 7.4375 -14.632812 7.375 -13.5 C 7.644531 -13.488281 7.910156 -13.472656 8.171875 -13.453125 C 8.609375 -13.410156 9.046875 -13.320312 9.484375 -13.1875 C 9.910156 -13.0625 10.257812 -12.890625 10.53125 -12.671875 C 10.71875 -12.503906 10.859375 -12.234375 10.953125 -11.859375 C 11.046875 -11.523438 11.082031 -11.140625 11.0625 -10.703125 C 11.03125 -10.296875 10.960938 -9.960938 10.859375 -9.703125 C 10.734375 -9.421875 10.578125 -9.285156 10.390625 -9.296875 C 10.304688 -9.296875 10.210938 -9.3125 10.109375 -9.34375 C 10.035156 -9.351562 9.925781 -9.382812 9.78125 -9.4375 C 9.113281 -9.664062 8.359375 -9.800781 7.515625 -9.84375 L 7.34375 -9.84375 C 7.34375 -9.726562 7.347656 -9.617188 7.359375 -9.515625 C 7.429688 -6.878906 7.695312 -4.550781 8.15625 -2.53125 C 8.207031 -2.320312 8.257812 -2.101562 8.3125 -1.875 C 8.375 -1.644531 8.410156 -1.421875 8.421875 -1.203125 C 8.421875 -0.785156 8.269531 -0.488281 7.96875 -0.3125 C 7.675781 -0.132812 7.328125 -0.0351562 6.921875 -0.015625 C 6.523438 0.00390625 6.050781 -0.0195312 5.5 -0.09375 C 4.957031 -0.164062 4.601562 -0.265625 4.4375 -0.390625 C 4.132812 -0.597656 3.90625 -0.914062 3.75 -1.34375 C 3.59375 -1.769531 3.472656 -2.1875 3.390625 -2.59375 C 3.222656 -3.375 3.09375 -4.367188 3 -5.578125 C 2.90625 -6.785156 2.851562 -8.035156 2.84375 -9.328125 C 2.832031 -9.535156 2.828125 -9.742188 2.828125 -9.953125 L 2.75 -9.953125 C 2.09375 -9.941406 1.445312 -9.882812 0.8125 -9.78125 C 0.644531 -9.738281 0.539062 -9.71875 0.5 -9.71875 C 0.394531 -9.71875 0.300781 -9.738281 0.21875 -9.78125 C 0.144531 -9.8125 0.078125 -9.867188 0.015625 -9.953125 C -0.0234375 -10.023438 -0.0664062 -10.140625 -0.109375 -10.296875 C -0.191406 -10.566406 -0.226562 -10.875 -0.21875 -11.21875 C -0.21875 -11.5625 -0.179688 -11.878906 -0.109375 -12.171875 C -0.046875 -12.484375 0.160156 -12.726562 0.515625 -12.90625 C 0.710938 -13.007812 0.941406 -13.101562 1.203125 -13.1875 C 1.378906 -13.226562 1.640625 -13.285156 1.984375 -13.359375 C 2.128906 -13.378906 2.382812 -13.410156 2.75 -13.453125 Z M 2.9375 -13.453125 "/></g></g><g transform="translate(126.589468, 254.556515)"><g><path d="M 0.734375 -11.6875 C 1.035156 -12.15625 1.296875 -12.492188 1.515625 -12.703125 C 1.742188 -12.921875 2.070312 -13.195312 2.5 -13.53125 C 2.96875 -13.726562 3.429688 -13.59375 3.890625 -13.125 C 4.566406 -12.445312 5.132812 -11.476562 5.59375 -10.21875 C 6.0625 -8.96875 6.609375 -7.96875 7.234375 -7.21875 C 7.421875 -6.957031 7.625 -6.90625 7.84375 -7.0625 C 8.070312 -7.226562 8.265625 -7.40625 8.421875 -7.59375 C 8.878906 -8.113281 9.320312 -8.84375 9.75 -9.78125 C 10.175781 -10.726562 10.539062 -11.535156 10.84375 -12.203125 C 11.019531 -12.617188 11.21875 -12.914062 11.4375 -13.09375 C 11.65625 -13.28125 11.972656 -13.28125 12.390625 -13.09375 C 12.785156 -12.894531 13.117188 -12.640625 13.390625 -12.328125 C 13.671875 -12.023438 13.9375 -11.671875 14.1875 -11.265625 C 14.476562 -10.804688 14.550781 -10.195312 14.40625 -9.4375 C 14.21875 -8.476562 13.882812 -7.523438 13.40625 -6.578125 C 12.9375 -5.628906 12.488281 -4.753906 12.0625 -3.953125 C 11.59375 -3.117188 11.101562 -2.316406 10.59375 -1.546875 C 10.09375 -0.785156 9.582031 -0.0234375 9.0625 0.734375 C 8.570312 1.398438 8.082031 2.066406 7.59375 2.734375 C 7.101562 3.398438 6.570312 4 6 4.53125 C 5.382812 5.09375 4.816406 5.457031 4.296875 5.625 C 3.910156 5.75 3.453125 5.671875 2.921875 5.390625 C 2.390625 5.109375 2.019531 4.800781 1.8125 4.46875 C 1.601562 4.144531 1.394531 3.796875 1.1875 3.421875 C 0.976562 3.054688 0.988281 2.707031 1.21875 2.375 C 1.394531 2.113281 1.65625 1.847656 2 1.578125 C 2.351562 1.304688 2.648438 1.007812 2.890625 0.6875 C 3.117188 0.40625 3.332031 0.175781 3.53125 0 C 3.738281 -0.1875 4.023438 -0.585938 4.390625 -1.203125 C 5.097656 -2.148438 5.085938 -3.125 4.359375 -4.125 C 4.078125 -4.625 3.671875 -5.234375 3.140625 -5.953125 C 2.609375 -6.671875 2.179688 -7.257812 1.859375 -7.71875 C 1.640625 -8.03125 1.421875 -8.363281 1.203125 -8.71875 C 0.984375 -9.070312 0.800781 -9.441406 0.65625 -9.828125 C 0.5 -10.171875 0.414062 -10.476562 0.40625 -10.75 C 0.40625 -11.019531 0.515625 -11.332031 0.734375 -11.6875 Z M 0.734375 -11.6875 "/></g></g><g transform="translate(141.081395, 254.556515)"><g/></g><g transform="translate(149.543347, 254.556515)"><g><path d="M 16.3125 -20.453125 C 17.1875 -20.253906 17.878906 -20.003906 18.390625 -19.703125 C 18.984375 -19.335938 19.28125 -18.90625 19.28125 -18.40625 C 19.28125 -17.820312 19.226562 -17.390625 19.125 -17.109375 C 19.03125 -16.828125 18.835938 -16.429688 18.546875 -15.921875 C 18.128906 -15.191406 17.726562 -14.828125 17.34375 -14.828125 C 16.988281 -14.828125 16.632812 -14.882812 16.28125 -15 C 15.9375 -15.113281 15.609375 -15.226562 15.296875 -15.34375 C 14.609375 -15.5625 13.675781 -15.648438 12.5 -15.609375 C 11.332031 -15.578125 10.226562 -15.328125 9.1875 -14.859375 C 8.15625 -14.390625 7.273438 -13.660156 6.546875 -12.671875 C 5.816406 -11.679688 5.757812 -10.046875 6.375 -7.765625 C 6.769531 -6.421875 7.628906 -5.394531 8.953125 -4.6875 C 10.273438 -3.988281 12.164062 -3.925781 14.625 -4.5 C 13.09375 -4.976562 12.234375 -5.273438 12.046875 -5.390625 C 11.785156 -5.566406 11.582031 -5.765625 11.4375 -5.984375 C 11.320312 -6.148438 11.238281 -6.34375 11.1875 -6.5625 C 11.09375 -7.164062 11.140625 -7.785156 11.328125 -8.421875 C 11.472656 -8.960938 11.957031 -9.164062 12.78125 -9.03125 C 13.613281 -8.90625 14.519531 -8.644531 15.5 -8.25 C 16.488281 -7.851562 17.425781 -7.414062 18.3125 -6.9375 C 19.207031 -6.46875 19.796875 -6.144531 20.078125 -5.96875 C 20.785156 -5.5 20.71875 -4.75 19.875 -3.71875 C 19.039062 -2.695312 18.378906 -2.007812 17.890625 -1.65625 C 17.546875 -1.40625 17.203125 -1.191406 16.859375 -1.015625 C 15.929688 -0.523438 15 -0.238281 14.0625 -0.15625 C 13.125 -0.0703125 12.191406 -0.078125 11.265625 -0.171875 C 10.023438 -0.273438 8.84375 -0.554688 7.71875 -1.015625 C 6.800781 -1.367188 5.929688 -1.835938 5.109375 -2.421875 C 4.285156 -3.015625 3.566406 -3.738281 2.953125 -4.59375 C 1.785156 -6.15625 1.003906 -7.898438 0.609375 -9.828125 C -0.015625 -12.785156 0.703125 -15.253906 2.765625 -17.234375 C 3.796875 -18.242188 4.960938 -19 6.265625 -19.5 C 7.578125 -20 8.84375 -20.347656 10.0625 -20.546875 C 11.082031 -20.703125 12.125 -20.78125 13.1875 -20.78125 C 14.257812 -20.78125 15.300781 -20.671875 16.3125 -20.453125 Z M 16.3125 -20.453125 "/></g></g><g transform="translate(170.331767, 254.556515)"><g><path d="M 0.46875 -4.09375 C 0.34375 -5.75 0.363281 -7.429688 0.53125 -9.140625 C 0.707031 -10.847656 0.984375 -12.019531 1.359375 -12.65625 C 1.734375 -13.300781 2.101562 -13.609375 2.46875 -13.578125 C 2.832031 -13.554688 3.179688 -13.515625 3.515625 -13.453125 C 3.816406 -13.390625 4.054688 -13.332031 4.234375 -13.28125 C 4.273438 -13.257812 4.328125 -13.226562 4.390625 -13.1875 C 4.429688 -13.164062 4.476562 -13.125 4.53125 -13.0625 C 4.53125 -13.0625 4.582031 -13.007812 4.6875 -12.90625 C 4.707031 -12.882812 4.742188 -12.828125 4.796875 -12.734375 C 4.828125 -12.691406 4.851562 -12.628906 4.875 -12.546875 C 4.894531 -12.429688 4.921875 -12.316406 4.953125 -12.203125 C 4.953125 -12.179688 4.96875 -12.078125 5 -11.890625 C 5.007812 -11.753906 4.9375 -10.703125 4.78125 -8.734375 C 4.632812 -6.765625 4.726562 -4.472656 5.0625 -1.859375 C 5.050781 -1.585938 5.019531 -1.316406 4.96875 -1.046875 C 4.90625 -0.785156 4.847656 -0.601562 4.796875 -0.5 C 4.691406 -0.34375 4.488281 -0.226562 4.1875 -0.15625 C 4.039062 -0.113281 3.878906 -0.0859375 3.703125 -0.078125 C 3.535156 -0.078125 3.363281 -0.0820312 3.1875 -0.09375 C 2.851562 -0.101562 2.492188 -0.144531 2.109375 -0.21875 C 1.835938 -0.257812 1.59375 -0.320312 1.375 -0.40625 C 1.320312 -0.4375 1.28125 -0.460938 1.25 -0.484375 C 1.21875 -0.492188 1.164062 -0.535156 1.09375 -0.609375 C 1.0625 -0.640625 1.019531 -0.691406 0.96875 -0.765625 C 0.96875 -0.753906 0.925781 -0.8125 0.84375 -0.9375 C 0.8125 -0.957031 0.785156 -1.019531 0.765625 -1.125 C 0.742188 -1.207031 0.71875 -1.320312 0.6875 -1.46875 C 0.675781 -1.570312 0.601562 -2.445312 0.46875 -4.09375 Z M 2.9375 -19.1875 C 3.53125 -19.1875 4.035156 -18.984375 4.453125 -18.578125 C 4.867188 -18.179688 5.078125 -17.695312 5.078125 -17.125 C 5.078125 -16.550781 4.867188 -16.0625 4.453125 -15.65625 C 4.035156 -15.257812 3.53125 -15.0625 2.9375 -15.0625 C 2.351562 -15.0625 1.851562 -15.257812 1.4375 -15.65625 C 1.019531 -16.0625 0.8125 -16.550781 0.8125 -17.125 C 0.8125 -17.695312 1.019531 -18.179688 1.4375 -18.578125 C 1.851562 -18.984375 2.351562 -19.1875 2.9375 -19.1875 Z M 2.9375 -19.1875 "/></g></g><g transform="translate(175.945306, 254.556515)"><g><path d="M 2.34375 -0.234375 C 2.175781 -0.285156 2.046875 -0.347656 1.953125 -0.421875 C 1.628906 -0.648438 1.394531 -0.988281 1.25 -1.4375 C 1.101562 -1.882812 1.003906 -2.328125 0.953125 -2.765625 C 0.828125 -3.585938 0.757812 -4.632812 0.75 -5.90625 C 0.738281 -7.1875 0.78125 -8.503906 0.875 -9.859375 C 0.96875 -11.222656 1.238281 -12.175781 1.6875 -12.71875 C 1.875 -13.050781 2.097656 -13.28125 2.359375 -13.40625 C 2.648438 -13.550781 2.992188 -13.632812 3.390625 -13.65625 C 3.796875 -13.6875 4.15625 -13.6875 4.46875 -13.65625 C 4.914062 -13.601562 5.257812 -13.457031 5.5 -13.21875 C 5.738281 -12.988281 5.804688 -12.5625 5.703125 -11.9375 C 6.617188 -12.632812 7.800781 -12.84375 9.25 -12.5625 C 10.707031 -12.289062 11.335938 -11.59375 11.140625 -10.46875 C 10.941406 -9.351562 10.082031 -8.921875 8.5625 -9.171875 C 7.039062 -9.429688 6.148438 -9.109375 5.890625 -8.203125 C 5.679688 -7.484375 5.582031 -6.566406 5.59375 -5.453125 C 5.59375 -5.410156 5.59375 -5.367188 5.59375 -5.328125 C 5.664062 -4.398438 5.769531 -3.515625 5.90625 -2.671875 C 5.945312 -2.472656 6.015625 -2.179688 6.109375 -1.796875 C 6.222656 -1.335938 6.21875 -1.039062 6.09375 -0.90625 C 6.0625 -0.863281 6.03125 -0.828125 6 -0.796875 C 5.894531 -0.585938 5.726562 -0.421875 5.5 -0.296875 C 5.132812 -0.109375 4.722656 -0.00390625 4.265625 0.015625 C 3.921875 0.0234375 3.582031 0.0078125 3.25 -0.03125 C 3.09375 -0.0195312 2.941406 -0.0195312 2.796875 -0.03125 C 2.628906 -0.0390625 2.476562 -0.109375 2.34375 -0.234375 Z M 2.34375 -0.234375 "/></g></g><g transform="translate(186.989154, 254.556515)"><g><path d="M 4.359375 -17.453125 C 4.128906 -15.171875 4.046875 -12.660156 4.109375 -9.921875 C 4.179688 -7.179688 4.4375 -4.765625 4.875 -2.671875 C 4.914062 -2.441406 4.960938 -2.207031 5.015625 -1.96875 C 5.066406 -1.726562 5.101562 -1.492188 5.125 -1.265625 C 5.125 -0.859375 4.976562 -0.5625 4.6875 -0.375 C 4.40625 -0.1875 4.070312 -0.078125 3.6875 -0.046875 C 3.3125 -0.0234375 2.941406 -0.0546875 2.578125 -0.140625 C 2.210938 -0.234375 1.953125 -0.347656 1.796875 -0.484375 C 1.503906 -0.703125 1.285156 -1.035156 1.140625 -1.484375 C 1.003906 -1.929688 0.894531 -2.363281 0.8125 -2.78125 C 0.65625 -3.59375 0.535156 -4.628906 0.453125 -5.890625 C 0.367188 -7.148438 0.316406 -8.453125 0.296875 -9.796875 C 0.285156 -11.140625 0.304688 -12.425781 0.359375 -13.65625 C 0.421875 -14.882812 0.519531 -15.878906 0.65625 -16.640625 C 0.757812 -17.347656 0.894531 -17.898438 1.0625 -18.296875 C 1.195312 -18.628906 1.363281 -18.859375 1.5625 -18.984375 C 1.8125 -19.117188 2.09375 -19.195312 2.40625 -19.21875 C 2.71875 -19.25 3.003906 -19.242188 3.265625 -19.203125 C 3.628906 -19.160156 3.921875 -19.023438 4.140625 -18.796875 C 4.359375 -18.566406 4.429688 -18.117188 4.359375 -17.453125 Z M 4.359375 -17.453125 "/></g></g><g transform="translate(192.352833, 254.556515)"><g><path d="M 9.34375 -8.140625 L 10.34375 -7.46875 C 10.375 -7.4375 10.398438 -7.414062 10.421875 -7.40625 C 11.222656 -6.914062 11.78125 -6.335938 12.09375 -5.671875 C 12.414062 -5.015625 12.421875 -4.269531 12.109375 -3.4375 C 11.785156 -2.613281 11.210938 -1.910156 10.390625 -1.328125 C 9.847656 -0.953125 9.191406 -0.679688 8.421875 -0.515625 C 7.660156 -0.359375 6.867188 -0.300781 6.046875 -0.34375 C 6.046875 -0.332031 6.046875 -0.320312 6.046875 -0.3125 L 6.03125 -0.3125 C 5.007812 -0.382812 4.519531 -0.457031 4.5625 -0.53125 C 4.195312 -0.613281 3.878906 -0.691406 3.609375 -0.765625 L 1.765625 -1.625 C 1.398438 -1.851562 1.082031 -2.109375 0.8125 -2.390625 C 0.800781 -2.421875 0.789062 -2.4375 0.78125 -2.4375 C 0.769531 -2.445312 0.765625 -2.460938 0.765625 -2.484375 C 0.742188 -2.492188 0.726562 -2.503906 0.71875 -2.515625 C 0.71875 -2.523438 0.710938 -2.535156 0.703125 -2.546875 C 0.554688 -2.710938 0.476562 -2.890625 0.46875 -3.078125 L 0.46875 -3.171875 C 0.476562 -3.410156 0.488281 -3.703125 0.5 -4.046875 C 0.519531 -4.398438 0.582031 -4.6875 0.6875 -4.90625 C 0.78125 -5.164062 0.925781 -5.25 1.125 -5.15625 C 1.332031 -5.0625 1.507812 -4.953125 1.65625 -4.828125 C 1.664062 -4.816406 1.675781 -4.804688 1.6875 -4.796875 C 1.707031 -4.785156 1.726562 -4.773438 1.75 -4.765625 C 2.082031 -4.460938 2.460938 -4.207031 2.890625 -4 C 3.867188 -3.53125 5.054688 -3.304688 6.453125 -3.328125 C 6.492188 -3.347656 6.5625 -3.390625 6.65625 -3.453125 C 6.957031 -3.628906 7.023438 -3.863281 6.859375 -4.15625 C 6.847656 -4.1875 6.835938 -4.207031 6.828125 -4.21875 C 6.816406 -4.238281 6.8125 -4.253906 6.8125 -4.265625 C 6.71875 -4.378906 5.890625 -4.867188 4.328125 -5.734375 C 2.828125 -6.765625 1.96875 -7.445312 1.75 -7.78125 C 1.21875 -8.582031 1.054688 -9.378906 1.265625 -10.171875 C 1.484375 -10.960938 1.957031 -11.648438 2.6875 -12.234375 C 3.957031 -13.285156 6 -13.664062 8.8125 -13.375 C 9.15625 -13.269531 9.457031 -13.171875 9.71875 -13.078125 C 9.820312 -13.023438 9.96875 -12.957031 10.15625 -12.875 C 10.34375 -12.757812 10.5625 -12.644531 10.8125 -12.53125 C 11.132812 -12.394531 11.257812 -12.25 11.1875 -12.09375 C 11.207031 -12.070312 11.234375 -12.046875 11.265625 -12.015625 C 11.429688 -11.796875 11.5625 -11.492188 11.65625 -11.109375 C 11.75 -10.734375 11.671875 -10.429688 11.421875 -10.203125 C 11.390625 -10.179688 11.367188 -10.164062 11.359375 -10.15625 C 11.148438 -9.988281 10.84375 -9.957031 10.4375 -10.0625 C 10.007812 -10.1875 9.585938 -10.285156 9.171875 -10.359375 L 8.484375 -10.53125 C 7.585938 -10.632812 6.9375 -10.6875 6.53125 -10.6875 C 5.707031 -10.414062 5.90625 -9.882812 7.125 -9.09375 C 7.226562 -9 7.96875 -8.679688 9.34375 -8.140625 Z M 9.34375 -8.140625 "/></g></g></g></svg>